<?xml version="1.0" encoding="utf-8"?>
<!-- Generator: Adobe Illustrator 23.0.0, SVG Export Plug-In . SVG Version: 6.00 Build 0)  -->
<svg version="1.1" id="Calque_1" xmlns="http://www.w3.org/2000/svg" xmlns:xlink="http://www.w3.org/1999/xlink" x="0px" y="0px"
	 viewBox="0 0 70 70" enable-background="new 0 0 70 70" xml:space="preserve">
<g>
	<path fill="#010101" d="M25.2,19.3c-0.1,0-0.1,0-0.1-0.1C25,19.2,25,19.1,25,19V4c0-0.1,0.1-0.2,0.2-0.2c0.5-0.2,1.1-0.3,1.6-0.5
		l0.5-0.1c2.6-0.7,5.2-1,7.7-1c2.5,0,5.1,0.3,7.7,1l0.5,0.1c0.6,0.2,1.1,0.3,1.7,0.5C45,3.9,45,3.9,45,4c0,3.3,0,15,0,15
		c0,0.1,0,0.1-0.1,0.2c0,0-0.1,0.1-0.2,0.1c0,0,0,0-0.1,0L43.5,19L43.3,19l-0.1-0.3l0,0.2l-0.7-0.1L42,18.7l-0.1-0.3l0,0.2L41,18.6
		l-0.7-0.1L39,18.4l-0.2-0.3l0,0.2l-1.4-0.1l-0.8,0L36.5,18l0,0.2l-0.3,0L36,18l0,0.2c-0.3,0-0.6,0-1,0c-1,0-1.9,0-2.9,0.1l-0.5,0
		l-0.1-0.2l0,0.2l-0.9,0.1l-0.9,0.1l-0.6,0.1l-0.9,0.1l-0.6,0.1c-0.5,0.1-0.9,0.2-1.4,0.2C26,19.1,25.6,19.2,25.2,19.3
		C25.2,19.3,25.2,19.3,25.2,19.3z"/>
	<path fill="#010101" d="M35,2.4c2.6,0,5.1,0.4,7.6,1c0.2,0,0.3,0.1,0.5,0.1c0,0,0,0,0,0c0.5,0.2,1.1,0.3,1.6,0.5c0,5,0,10,0,15
		c-0.1,0-0.2,0-0.3-0.1c-0.1,0-0.2-0.1-0.4-0.1c0,0-0.1,0-0.1,0c-0.1,0-0.2,0-0.3-0.1c0,0-0.1,0-0.1,0c-0.1,0-0.2,0-0.3-0.1
		c-0.1,0-0.1,0-0.2,0c-0.1,0-0.2,0-0.4-0.1c0,0-0.1,0-0.1,0c-0.1,0-0.1,0-0.2,0c-0.1,0-0.3,0-0.4-0.1c0,0-0.1,0-0.1,0
		c-0.1,0-0.1,0-0.2,0c-0.1,0-0.3,0-0.4-0.1c0,0-0.1,0-0.1,0c-0.1,0-0.1,0-0.2,0c-0.1,0-0.3,0-0.4-0.1c0,0-0.1,0-0.1,0
		c-0.1,0-0.1,0-0.2,0c-0.1,0-0.3,0-0.4,0c0,0-0.1,0-0.1,0c-0.1,0-0.1,0-0.2,0c-0.1,0-0.3,0-0.4,0c0,0-0.1,0-0.1,0
		c-0.1,0-0.1,0-0.2,0c-0.1,0-0.3,0-0.4,0c0,0-0.1,0-0.1,0c-0.1,0-0.2,0-0.3,0c-0.1,0-0.2,0-0.3,0c0,0-0.1,0-0.1,0
		c-0.1,0-0.1,0-0.2,0c-0.1,0-0.3,0-0.4,0c0,0-0.1,0-0.1,0c-0.1,0-0.2,0-0.3,0c-0.1,0-0.1,0-0.1,0c-0.1,0-0.2,0-0.3,0
		c-0.1,0-0.1,0-0.2,0c-0.3,0-0.6,0-1,0c-1,0-1.9,0-2.9,0.1c0,0,0,0,0,0c-0.2,0-0.3,0-0.5,0c0,0-0.1,0-0.1,0c-0.1,0-0.2,0-0.3,0
		c0,0-0.1,0-0.1,0c-0.2,0-0.3,0-0.5,0c0,0,0,0,0,0c-0.2,0-0.3,0-0.5,0c0,0-0.1,0-0.1,0c-0.1,0-0.2,0-0.3,0c0,0-0.1,0-0.1,0
		c-0.2,0-0.3,0-0.5,0.1c0,0,0,0,0,0c-0.2,0-0.3,0-0.5,0.1c0,0-0.1,0-0.1,0c-0.1,0-0.2,0-0.3,0c0,0-0.1,0-0.1,0c-0.2,0-0.3,0-0.5,0.1
		c0,0,0,0,0,0c-0.5,0.1-0.9,0.2-1.4,0.2c0,0,0,0,0,0c-0.4,0.1-0.8,0.2-1.2,0.3c0-5,0-10,0-15c0.5-0.2,1.1-0.3,1.6-0.5c0,0,0,0,0,0
		c0.2,0,0.3-0.1,0.5-0.1C29.9,2.8,32.4,2.4,35,2.4 M35,1.9c-2.6,0-5.1,0.3-7.8,1c-0.2,0-0.3,0.1-0.5,0.1c-0.6,0.2-1.1,0.3-1.7,0.5
		c-0.2,0.1-0.3,0.2-0.3,0.5c0,3.3,0,6.7,0,10l0,5c0,0.1,0.1,0.3,0.2,0.4c0.1,0.1,0.2,0.1,0.3,0.1c0,0,0.1,0,0.1,0
		c0.4-0.1,0.8-0.2,1.2-0.2c0.5-0.1,0.9-0.2,1.4-0.2c0.2,0,0.3,0,0.5-0.1l0.1,0l0.3,0l0.1,0c0.2,0,0.3,0,0.5-0.1c0.2,0,0.3,0,0.5-0.1
		l0.1,0l0.3,0l0.1,0c0.2,0,0.3,0,0.5,0c0.2,0,0.3,0,0.5,0l0.1,0l0.3,0l0.1,0c0.2,0,0.3,0,0.5,0c1-0.1,1.9-0.1,2.9-0.1
		c0.3,0,0.6,0,1,0l0.2,0l0.3,0l0.1,0l0.3,0l0.1,0l0.4,0l0.1,0l0.2,0l0.3,0l0.3,0l0.1,0l0.4,0l0.2,0l0.1,0l0.4,0l0.2,0l0.1,0l0.4,0
		l0.2,0l0.1,0l0.4,0.1l0.2,0l0.1,0l0.4,0.1l0.2,0l0.1,0l0.4,0.1l0.2,0l0.1,0l0.4,0.1l0.2,0l0.3,0.1l0.1,0l0.3,0.1l0.1,0l0.4,0.1
		l0.3,0.1c0,0,0.1,0,0.1,0c0.1,0,0.2,0,0.3-0.1c0.1-0.1,0.2-0.2,0.2-0.4l0-5c0-3.3,0-6.7,0-10c0-0.2-0.1-0.4-0.3-0.5
		c-0.5-0.2-1.1-0.3-1.6-0.5C43.1,3,42.9,3,42.8,2.9C40.1,2.3,37.6,1.9,35,1.9L35,1.9z"/>
</g>
<path fill="#FFFFFF" stroke="#010101" stroke-width="0.4784" stroke-linecap="round" stroke-linejoin="round" d="M60,67
	c2.5-5.4,4.7-11.5,5.9-17.4c1.3-6.1,1.5-12.1,0.6-18.3c-0.9-6-3.1-11.9-6.9-16.8C55.8,9.6,50.7,6,44.8,4c0,5,0,10,0,15
	c3,0.7,5.9,1.7,8.6,3.2c1.4,0.7,2.6,1.6,3.8,2.5c1.2,1,2.2,2.1,3,3.4c1.6,2.7,2,5.9,1.9,8.9c-0.1,3.1-0.8,6.1-1.5,9.1
	c-0.8,3.2-1.5,5.7-1.9,9c-0.2,1.5-0.3,3.1-0.3,4.6c0,1.5,0.1,3,0.4,4.5c0.1,0.5,0.2,1,0.4,1.4c0.1,0.2,0.2,0.4,0.4,0.7
	c0.1,0.1,0.1,0.2,0.2,0.3C59.9,66.7,60.1,66.9,60,67c-0.1,0.1-0.1,0.1-0.2,0.1c-0.3,0.1-0.7,0.1-1,0.1c-1.7,0-3.3,0-5,0
	c-3.1,0-6.1,0-9.2-0.1c-0.1,0-0.1,0-0.2,0c-0.1,0-0.2,0-0.3,0c0,0-0.1,0-0.1,0c-0.2,0-0.4,0-0.7,0c0,0-0.1,0-0.1,0
	c-0.1,0-0.2,0-0.4,0c0,0,0,0,0,0c-0.1,0-0.2,0-0.2,0c-0.1,0-0.1,0-0.2,0c-0.1,0-0.2,0-0.3,0c0,0,0,0-0.1,0c-0.1,0-0.1,0-0.2,0
	c-0.1,0-0.1,0-0.2,0c-0.1,0-0.2,0-0.3,0c0,0-0.1,0-0.1,0c-0.1,0-0.2,0-0.3,0c0,0-0.1,0-0.1,0c-0.1,0-0.2,0-0.4,0c0,0,0,0-0.1,0
	c-0.1,0-0.2,0-0.3,0c0,0-0.1,0-0.1,0c-0.1,0-0.2,0-0.3,0c-0.1,0-0.1,0-0.2,0c-0.1,0-0.1,0-0.2,0c-0.1,0-0.1,0-0.2,0
	c-0.1,0-0.1,0-0.2,0c-0.1,0-0.2,0-0.3,0c0,0-0.1,0-0.1,0c-0.1,0-0.2,0-0.3,0c0,0,0,0-0.1,0c-0.2,0-0.4,0-0.5,0c-0.1,0-0.1,0-0.2,0
	c0,0,0,0,0,0c-0.1,0-0.2,0-0.3,0c0,0-0.1,0-0.1,0c-0.1,0-0.2,0-0.3,0c-0.1,0-0.1,0-0.2,0c-0.1,0-0.1,0-0.2,0c-0.1,0-0.1,0-0.2,0
	c-0.1,0-0.1,0-0.2,0c-0.1,0-0.2,0-0.3,0c-0.1,0-0.2,0-0.3,0c-0.1,0-0.1,0-0.2,0c-0.1,0-0.3,0-0.4,0c-0.4,0-0.8,0-1.3,0c0,0,0,0,0,0
	c-0.1,0-0.2,0-0.3,0c-2.6,0-5.3,0-7.9,0c-0.1,0-0.2,0-0.3,0c0,0,0,0,0,0c-3.1,0-6.1,0-9.2,0.1c-1.6,0-3.2,0-4.8,0
	c-0.3,0-0.6,0-1-0.1c-0.1,0-0.3-0.1-0.2-0.3c0.1-0.2,0.3-0.4,0.4-0.6c0.1-0.2,0.2-0.4,0.3-0.7c0.2-0.5,0.3-1,0.3-1.4
	c0.5-3.1,0.5-6.1,0.1-9.1c-0.4-3.3-1.1-5.8-1.9-9c-0.8-3-1.4-5.9-1.5-9c-0.1-3,0.4-6.2,1.9-8.8c0.8-1.4,1.8-2.4,3-3.4
	c1.2-1,2.5-1.8,3.8-2.5c2.7-1.5,5.6-2.5,8.6-3.1c0-5,0-10,0-15c-5.8,1.9-11,5.6-14.8,10.5c-3.8,4.9-5.9,10.8-6.9,16.8
	c-1,6.1-0.7,12.2,0.6,18.3C5.3,55.5,7.5,61.5,10,67"/>
<polyline fill="#010101" stroke="#010101" stroke-width="0.4784" stroke-linecap="round" stroke-linejoin="round" points="35,2.4 
	35,2.4 35,2.4 "/>
<path fill="#010101" stroke="#010101" stroke-width="0.4784" stroke-linecap="round" stroke-linejoin="round" d="M24.8,7.9
	C24.8,7.9,24.8,7.9,24.8,7.9C24.8,7.9,24.8,7.9,24.8,7.9C24.8,7.9,24.9,8,24.9,8c0,0,0.1,0,0.1,0c0.1,0,0.1,0,0.2,0"/>
<g>
	<path fill="#010101" d="M24.9,8.7c-0.1,0-0.2,0-0.3-0.1c-0.1-0.1-0.1-0.3-0.1-0.4l0-3.2c0-0.1,0-0.2,0.1-0.3
		c0.1-0.1,0.3-0.2,0.4-0.2c0.1,0,0.3-0.1,0.4-0.1c0,0,0.1,0,0.2,0c0.1,0.1,0.1,0.2,0.1,0.3l0,3.2c0,0.3-0.2,0.5-0.5,0.7
		C25.1,8.7,25,8.7,24.9,8.7z"/>
	<path fill="#010101" d="M25.5,4.6C25.5,4.6,25.5,4.6,25.5,4.6C25.6,4.7,25.6,4.7,25.5,4.6c0.1,0.1,0.1,0.1,0.1,0.1
		c0,0.1,0,0.1,0,0.2c0,0.1,0,0.3,0,0.4c0,0.4,0,0.7,0,1.1c0,0.4,0,0.7,0,1.1c0,0.1,0,0.3,0,0.4c0,0.3-0.2,0.4-0.4,0.5
		c-0.1,0-0.2,0.1-0.2,0.1c0,0-0.1,0-0.1,0c-0.1,0,0-0.2,0-0.2c0-0.2,0-0.3,0-0.5c0-0.4,0-0.7,0-1.1c0-0.4,0-0.7,0-1.1
		c0-0.1,0-0.3,0-0.4c0-0.1,0-0.1,0-0.2c0-0.1,0-0.1,0.1-0.1c0.1-0.1,0.2-0.1,0.4-0.2C25.2,4.7,25.4,4.6,25.5,4.6 M25.5,4.2
		C25.5,4.2,25.5,4.2,25.5,4.2c-0.2,0-0.4,0.1-0.5,0.1c-0.1,0-0.3,0.1-0.5,0.2c-0.1,0.1-0.2,0.2-0.2,0.5v0.2v0.4v1.1v1.1v0.5
		c0,0.1,0,0.4,0.2,0.6C24.6,8.9,24.8,9,24.9,9c0.1,0,0.3,0,0.4-0.1C25.9,8.6,26,8.2,26,7.9V7.5l0-1.1L26,6l0-0.6l0-0.2l0-0.2l0-0.2
		c0,0,0,0,0,0c0,0,0,0,0,0c0-0.2-0.1-0.4-0.3-0.5C25.7,4.2,25.6,4.2,25.5,4.2L25.5,4.2z"/>
</g>
<g>
	<path fill="#010101" d="M45,8.7c-0.3,0-0.6-0.2-0.7-0.5c-0.1-0.1-0.1-0.3-0.1-0.4l0-3.2c0-0.1,0.2-0.3,0.3-0.3c0.1,0,0.1,0,0.2,0
		c0.1,0,0.2,0,0.3,0.1c0.1,0,0.2,0.1,0.2,0.1c0.1,0.1,0.3,0.1,0.3,0.3v3.3c0,0.2,0,0.3-0.1,0.4C45.3,8.7,45.2,8.7,45,8.7
		C45.1,8.7,45,8.7,45,8.7z"/>
	<path fill="#010101" d="M44.5,4.6C44.5,4.6,44.5,4.6,44.5,4.6c0.1,0,0.1,0,0.1,0c0.1,0,0.1,0,0.2,0.1c0.1,0,0.1,0.1,0.2,0.1
		c0,0,0.2,0.1,0.2,0.1c0,0.7,0,1.5,0,2.2c0,0.4,0,0.7,0,1.1c0,0.2,0,0.3-0.1,0.3c0,0,0,0-0.1,0c-0.2,0-0.5-0.2-0.6-0.3
		c-0.1-0.1,0-0.2,0-0.3c0-0.1,0-0.2,0-0.3c0-0.2,0-0.3,0-0.5c0-0.4,0-0.7,0-1.1c0-0.4,0-0.7,0-1.1C44.4,4.8,44.4,4.7,44.5,4.6
		C44.4,4.6,44.5,4.6,44.5,4.6 M44.5,4.2c-0.3,0-0.5,0.3-0.5,0.5l0,0.2l0,0.1l0,1l0,1.1l0,0.5v0.3c0,0.1,0,0.3,0.1,0.6
		C44.3,8.7,44.6,8.9,45,9c0,0,0.1,0,0.1,0c0.2,0,0.4-0.1,0.4-0.2c0.2-0.2,0.2-0.4,0.2-0.5l0-0.6V7.1V6l0-1.1c0-0.4-0.3-0.5-0.4-0.6
		c-0.1,0-0.2-0.1-0.3-0.1c-0.1,0-0.2-0.1-0.3-0.1C44.7,4.2,44.6,4.2,44.5,4.2C44.5,4.2,44.5,4.2,44.5,4.2L44.5,4.2z"/>
</g>
<g>
	<g>
		<path d="M12.5,67.8c-0.5,0-0.9,0-1.4,0c-0.2,0-0.4,0-0.6,0c-0.4,0-0.8-0.1-1.1-0.5c-0.6-0.7-0.6-1.8-0.4-2.6
			c0-0.1,0.1-0.2,0.4-0.5l0.1-0.1c0.1-0.2,0.2-0.4,0.3-0.6c0.2-0.4,0.3-1.8,0.4-2.6c0.1-0.9,0.1-1.8,0.1-2.7c0-1.7-0.2-3.5-0.6-5.4
			c-0.3-1.8-0.8-3.6-1.2-5.4c-0.4-1.7-0.9-3.5-1.2-5.3c-0.8-4.2-0.8-7.8,0-11c0.5-1.9,1.2-3.6,2.2-5.1c1.1-1.7,2.4-2.8,3.9-3.9
			c0.7-0.5,1.4-1,2.1-1.4c0.7-0.5,1.5-0.9,2.4-1.3c1.6-0.7,3.3-1.4,5.1-1.9c1.9-0.5,3.9-1,6-1.2c2-0.3,4.1-0.4,6.2-0.4
			c1,0,2.1,0,3.1,0.1c1,0.1,2.1,0.2,3.1,0.3c2.1,0.3,4.1,0.7,6,1.2c1.8,0.5,3.5,1.2,5.1,1.9c0.8,0.4,1.5,0.8,2.3,1.2
			c0.7,0.4,1.5,0.9,2.2,1.5c1.5,1.1,2.8,2.2,3.9,3.9c1,1.5,1.7,3.1,2.2,5.1c0.8,3.2,0.8,6.8,0,11c-0.3,1.8-0.8,3.6-1.2,5.3
			c-0.4,1.8-0.9,3.6-1.2,5.4c-0.4,1.9-0.5,3.7-0.6,5.4c0,0.9,0,1.9,0.1,2.8c0.1,0.8,0.2,2.1,0.4,2.6c0.1,0.2,0.2,0.4,0.3,0.6
			l0.1,0.1c0.3,0.3,0.4,0.5,0.4,0.5c0.2,0.6,0.2,1.3,0,1.9c-0.3,0.7-0.7,1-1.5,1.1c-0.4,0-0.8,0-1.2,0c-0.3,0-0.6,0-0.9,0l-1.4,0
			l-7-0.1c-4.7,0-9.3-0.1-14-0.1c-4.7,0-9.3,0-14,0.1L12.5,67.8z M11.9,65c0.7,0,1.4,0,2.1,0l2.6,0c6.1,0,12.3,0,18.4,0
			c4.2,0,8.4,0,12.6,0l8.4,0c0.7,0,1.4,0,2.1,0c-0.3-1.1-0.5-2.8-0.5-3.8c-0.1-1.3-0.1-2.7,0-4.1c0.1-2.5,0.5-5.1,1.2-8.1
			c0.2-0.9,0.4-1.8,0.7-2.7c1.1-4.3,2.2-8.7,1.5-13.3c-0.4-2.9-1.6-5.3-3.4-7.1c-0.9-0.9-2.3-1.8-3.2-2.4c-1.1-0.7-2.3-1.3-3.6-1.9
			c-4.5-2-10.1-3.1-15.8-3.1s-11.3,1.1-15.8,3.1c-1.3,0.6-2.5,1.2-3.6,1.9c-0.9,0.6-2.3,1.6-3.2,2.4c-1.8,1.8-3,4.1-3.4,7.1
			c-0.7,4.6,0.5,9,1.5,13.3c0.2,0.9,0.5,1.8,0.7,2.7c0.7,3,1.1,5.6,1.2,8.1c0.1,1.4,0.1,2.8,0,4.1C12.4,62.2,12.2,63.9,11.9,65z"/>
	</g>
	<g>
		<path fill="#FFFFFF" d="M35,16.1C35,16.1,35,16.1,35,16.1c1,0,2.1,0,3.1,0.1c1,0.1,2,0.2,3.1,0.3c2,0.3,4,0.7,5.9,1.2
			c1.7,0.5,3.4,1.1,5.1,1.9c0.8,0.4,1.5,0.8,2.3,1.2c0.7,0.4,1.5,0.9,2.2,1.4c1.6,1.2,2.7,2.2,3.8,3.9c1,1.6,1.7,3.2,2.2,5
			c0.9,3.6,0.6,7.3,0,10.9c-0.7,3.6-1.8,7.1-2.5,10.7c-0.3,1.8-0.5,3.6-0.6,5.4c0,0.9,0,1.9,0.1,2.8c0,0.5,0.2,2.1,0.4,2.7
			c0.1,0.2,0.2,0.4,0.4,0.6c0.1,0.1,0.4,0.5,0.4,0.6c0.2,0.6,0.2,1.2,0,1.7c-0.2,0.6-0.6,0.9-1.3,1c-0.4,0-0.8,0-1.2,0
			c-0.3,0-0.6,0-0.9,0c-0.5,0-0.9,0-1.4,0c-2.3,0-4.7,0-7-0.1c-4.7,0-9.3-0.1-14-0.1c0,0,0,0-0.1,0c-4.6,0-9.3,0-13.9,0.1
			c-2.3,0-4.7,0-7,0.1c-0.5,0-1,0-1.5,0c-0.5,0-0.9,0-1.4,0c-0.2,0-0.4,0-0.6,0c-0.4,0-0.7-0.1-0.9-0.4c-0.5-0.6-0.6-1.6-0.3-2.3
			c0-0.1,0.4-0.5,0.4-0.6c0.1-0.2,0.3-0.4,0.4-0.6c0.2-0.5,0.4-2.2,0.4-2.7c0.1-0.9,0.1-1.8,0.1-2.7c0-1.8-0.3-3.6-0.6-5.4
			C9.3,49.1,8.1,45.6,7.5,42c-0.7-3.6-0.9-7.3,0-10.9c0.4-1.8,1.1-3.4,2.2-5c1.1-1.6,2.3-2.7,3.8-3.9c0.7-0.5,1.4-1,2.1-1.4
			c0.8-0.5,1.5-0.9,2.3-1.3c1.6-0.8,3.3-1.4,5-1.9c1.9-0.6,3.9-1,5.9-1.2C30.9,16.2,32.9,16.1,35,16.1 M14,65.3c0.9,0,1.7,0,2.6,0
			c6.1,0,12.2,0,18.3,0c0,0,0.1,0,0.1,0c6.2,0,12.4,0,18.5,0c0.8,0,1.6,0,2.5,0c0.8,0,1.6,0,2.4,0c-0.3-1-0.5-3-0.6-4
			c-0.1-1.4-0.1-2.7,0-4.1c0.1-2.7,0.6-5.4,1.2-8.1c1.2-5.1,3-10.5,2.2-16c-0.4-2.7-1.4-5.3-3.5-7.2c-0.9-0.8-2.2-1.8-3.2-2.4
			c-1.2-0.7-2.4-1.4-3.6-1.9C46,19.4,40.3,18.4,35,18.4c-5.3,0-11,0.9-15.9,3.1c-1.3,0.6-2.5,1.2-3.6,1.9c-1,0.6-2.3,1.6-3.2,2.4
			c-2,2-3.1,4.5-3.5,7.2c-0.8,5.6,1,10.9,2.2,16c0.6,2.7,1.1,5.3,1.2,8.1c0.1,1.4,0.1,2.7,0,4.1c-0.1,1-0.3,3-0.6,4
			C12.4,65.3,13.2,65.3,14,65.3 M35,15.6C35,15.6,35,15.6,35,15.6L35,15.6c-2.1,0-4.2,0.1-6.2,0.4c-2.1,0.3-4.1,0.7-6,1.3
			c-1.8,0.5-3.5,1.2-5.1,1.9c-0.8,0.4-1.6,0.8-2.4,1.3c-0.7,0.4-1.4,0.9-2.1,1.4c-1.5,1.1-2.8,2.2-4,4C8.1,27.4,7.4,29,7,31
			c-0.8,3.2-0.8,6.8,0,11.1c0.3,1.8,0.8,3.6,1.2,5.3c0.4,1.8,0.9,3.6,1.2,5.4c0.4,1.9,0.5,3.7,0.6,5.4c0,0.9,0,1.8-0.1,2.7
			c-0.1,0.8-0.2,2.2-0.4,2.6c-0.1,0.2-0.2,0.4-0.3,0.5L9.2,64c-0.3,0.3-0.4,0.5-0.4,0.6c-0.3,0.8-0.2,2,0.4,2.8
			c0.4,0.4,0.9,0.5,1.3,0.6c0.2,0,0.4,0,0.6,0c0.5,0,1,0,1.4,0c0.4,0,0.7,0,1.1,0l0.4,0c1.2,0,2.5,0,3.7,0c1.1,0,2.2,0,3.3,0
			c4.6,0,9.3-0.1,13.9-0.1H35c4.6,0,9.3,0,14,0.1c1.1,0,2.1,0,3.2,0c1.3,0,2.5,0,3.8,0c0.5,0,0.9,0,1.4,0c0.3,0,0.6,0,0.9,0
			c0.4,0,0.8,0,1.2-0.1c0.9-0.1,1.4-0.5,1.7-1.3c0.2-0.7,0.3-1.4,0-2.1c0-0.1-0.1-0.2-0.4-0.6l-0.1-0.1c-0.1-0.2-0.2-0.4-0.3-0.5
			c-0.1-0.3-0.3-1.5-0.4-2.5C60,60,59.9,59.1,60,58.2c0-1.7,0.2-3.4,0.6-5.4c0.3-1.8,0.8-3.6,1.2-5.4c0.4-1.7,0.9-3.5,1.2-5.3
			c0.8-4.3,0.8-7.9,0-11.1c-0.5-2-1.2-3.6-2.2-5.2c-1.2-1.7-2.4-2.8-4-4c-0.7-0.5-1.5-1-2.2-1.5c-0.7-0.4-1.5-0.8-2.3-1.2
			c-1.6-0.8-3.3-1.4-5.1-1.9c-1.9-0.5-3.9-1-6-1.2c-1-0.1-2.1-0.2-3.1-0.3C37.1,15.6,36,15.6,35,15.6L35,15.6z M12.2,64.8
			c0.2-1.1,0.4-2.7,0.5-3.5c0.1-1.4,0.1-2.7,0-4.1c-0.1-2.5-0.5-5.1-1.3-8.1c-0.2-0.9-0.4-1.8-0.7-2.7c-1.1-4.3-2.2-8.7-1.5-13.2
			c0.4-2.9,1.5-5.2,3.3-6.9c0.9-0.8,2.2-1.8,3.1-2.4c1.1-0.7,2.3-1.3,3.6-1.9c4.4-2,10-3,15.7-3c5.7,0,11.3,1.1,15.7,3
			c1.3,0.6,2.5,1.2,3.6,1.9c0.9,0.6,2.3,1.5,3.1,2.4c1.8,1.7,2.9,4,3.3,6.9c0.7,4.5-0.5,8.9-1.5,13.2c-0.2,0.9-0.5,1.8-0.7,2.7
			c-0.7,3-1.1,5.6-1.3,8.1c-0.1,1.4-0.1,2.8,0,4.1c0,0.2,0.2,2.1,0.5,3.5c-0.6,0-1.2,0-1.8,0l-1.5,0l-1,0l-6,0c-4.2,0-8.3,0-12.5,0
			h-0.1c-6.1,0-12.2,0-18.3,0l-1.1,0l-1.5,0C13.4,64.8,12.8,64.8,12.2,64.8L12.2,64.8z"/>
	</g>
</g>
</svg>
