<?xml version="1.0" encoding="utf-8"?>
<!-- Generator: Adobe Illustrator 23.0.0, SVG Export Plug-In . SVG Version: 6.00 Build 0)  -->
<svg version="1.1" id="Calque_1" xmlns="http://www.w3.org/2000/svg" xmlns:xlink="http://www.w3.org/1999/xlink" x="0px" y="0px"
	 viewBox="0 0 70 70" enable-background="new 0 0 70 70" xml:space="preserve">
<g>
	<path fill="#FFFFFF" d="M41.4,66.7c-3.4,0-6.3,0-8.6-0.1c-3.5-0.1-8.7-0.2-12.3-0.7c-1.9-0.2-4.1-0.6-6-1.7c-1.8-1-3.4-2.6-4.4-4.3
		C8.2,56.7,8,52.7,9.7,48c0.5-1.5,1.2-2.9,1.8-4.3l0.6-1.3c0.8-1.8,1.6-3.7,2.1-5.8c1.2-4.7,0.4-8.2-2.6-11.1
		c-0.8-0.7-3.9-3.2-4.7-3.9c-1.7-1.3-3.3-2.5-5-3.6c-0.1-0.1-0.1-0.2-0.1-0.3c2.6-4,5.7-7.3,9.2-9.7c3.6-2.5,7.7-4.2,12.4-5.1
		c2.5-0.5,5.1-0.7,7.7-0.7c6.4,0,12.8,1.4,18.6,4.1c0,0,0.1,0,0.1,0.1c5.2,2.4,9.8,6.3,13.2,11.3c3.4,5,5.5,10.7,5.9,16.4
		c0.4,5.4-0.6,11.5-2.7,17.3c-1.9,5.2-4.7,10-8.8,15.2c0,0.1-0.1,0.1-0.2,0.1C52.9,66.7,47,66.7,41.4,66.7
		C41.4,66.7,41.4,66.7,41.4,66.7z"/>
	<path fill="#010101" d="M31.2,2.4c6.4,0,12.8,1.4,18.5,4.1c0,0,0,0,0,0c0,0,0,0,0,0c5.4,2.5,9.8,6.4,13.2,11.3
		c3.3,4.8,5.4,10.4,5.8,16.3c0.4,5.7-0.7,11.9-2.7,17.2c-2,5.6-5,10.5-8.7,15.1c-4.6,0-10.4,0.1-15.9,0.1c-3.1,0-6.1,0-8.7-0.1
		c-3.6-0.1-8.7-0.2-12.3-0.7c-2-0.3-4.1-0.7-5.9-1.7c-1.8-1-3.3-2.5-4.3-4.2C8.1,56.2,8.6,51.8,9.9,48c0.7-1.9,1.5-3.8,2.3-5.6
		c0.8-1.9,1.6-3.8,2.1-5.8c1.1-4.3,0.7-8.1-2.7-11.3c-0.8-0.7-3.9-3.2-4.8-3.9c-1.6-1.3-3.3-2.5-5-3.6c2.4-3.7,5.5-7.1,9.2-9.7
		c3.7-2.6,7.9-4.2,12.3-5C26,2.6,28.6,2.4,31.2,2.4 M31.2,1.9c-2.6,0-5.2,0.2-7.8,0.7c-4.8,0.9-8.9,2.6-12.5,5.1
		c-3.6,2.5-6.7,5.8-9.3,9.8c-0.1,0.2-0.1,0.5,0.1,0.6c1.6,1.1,3.3,2.3,4.9,3.6c0.9,0.7,3.9,3.1,4.7,3.9c3,2.8,3.8,6.2,2.6,10.8
		c-0.5,2-1.3,4-2.1,5.7c-0.2,0.4-0.4,0.9-0.6,1.3c-0.6,1.4-1.3,2.9-1.8,4.4c-1.7,4.8-1.5,8.9,0.4,12.3c1,1.8,2.6,3.4,4.5,4.4
		c1.9,1.1,4.1,1.5,6.1,1.7c3.6,0.5,8.8,0.6,12.3,0.7c2.4,0,5.3,0.1,8.7,0.1c5.7,0,11.8-0.1,15.9-0.1c0.1,0,0.3-0.1,0.4-0.2
		c4.1-5.2,6.9-10,8.8-15.2c2.1-5.8,3.1-12,2.7-17.4c-0.4-5.8-2.5-11.5-5.9-16.5c-3.5-5-8.1-8.9-13.3-11.4c0,0-0.1,0-0.1-0.1
		C44,3.4,37.6,1.9,31.2,1.9L31.2,1.9z"/>
</g>
<path fill="none" stroke="#010101" stroke-width="0.4734" stroke-linecap="round" stroke-linejoin="round" d="M53.7,65.3
	c1.3,0,2.6,0,3.9,0"/>
<path fill="none" stroke="#010101" stroke-width="0.4734" stroke-linecap="round" stroke-linejoin="round" d="M57.6,65.3
	C57.6,65.3,57.6,65.3,57.6,65.3"/>
<path fill="none" stroke="#010101" stroke-width="0.4734" stroke-linecap="round" stroke-linejoin="round" d="M57.4,65.3
	C57.4,65.3,57.4,65.3,57.4,65.3"/>
<path fill="none" stroke="#010101" stroke-width="0.4734" stroke-linecap="round" stroke-linejoin="round" d="M52.5,65.3
	c1.7,0,3.3,0,5,0"/>
<g>
	<path fill="#010101" stroke="#010101" stroke-width="9.467931e-02" stroke-linecap="round" stroke-linejoin="round" d="M10.3,8.7
		C7,11.2,4.2,14.4,2,17.8"/>
	<path fill="#010101" stroke="#010101" stroke-width="9.467931e-02" stroke-linecap="round" stroke-linejoin="round" d="M57.4,66.4
		c2.6-3.3,4.9-6.6,6.7-10.4"/>
	<path fill="#010101" stroke="#010101" stroke-width="9.467931e-02" stroke-linecap="round" stroke-linejoin="round" d="M44.4,4.9
		c-1.2-0.1-2.4-0.1-3.6-0.2c-2.1-1.2-4.6-2-7-2.2C37.4,2.7,41.1,3.5,44.4,4.9z"/>
	<path fill="#010101" stroke="#010101" stroke-width="9.467931e-02" stroke-linecap="round" stroke-linejoin="round" d="M5.6,18
		c-0.3,0.6-0.6,1.2-1,1.8c-0.9-0.7-1.8-1.3-2.7-1.9C3.2,17.9,4.4,17.9,5.6,18z"/>
	<path fill="#010101" stroke="#010101" stroke-width="9.467931e-02" stroke-linecap="round" stroke-linejoin="round" d="M61.4,20.2
		c1.9,3.6,3.1,7.6,3.5,11.7c1.2,0,2.4,0.1,3.6,0.1c-0.6-4.1-2-8-4-11.6C63.5,20.3,62.4,20.3,61.4,20.2z"/>
	<path fill="#010101" stroke="#010101" stroke-width="9.467931e-02" stroke-linecap="round" stroke-linejoin="round" d="M52.6,19.9
		c2.9,0.1,5.9,0.2,8.8,0.4c-1.8-3.5-4.3-6.8-7.2-9.5c-2.2-0.1-4.4-0.2-6.7-0.3C49.7,13.3,51.4,16.5,52.6,19.9z"/>
	<path fill="#010101" stroke="#010101" stroke-width="9.467931e-02" stroke-linecap="round" stroke-linejoin="round" d="M33.8,2.5
		c1.1,0.1,2.1,1.1,2.6,1.9c-1.6-0.1-3.2-0.2-4.9-0.3C31.9,3.5,32.8,2.4,33.8,2.5z"/>
	<path fill="#010101" stroke="#010101" stroke-width="9.467931e-02" stroke-linecap="round" stroke-linejoin="round" d="M33.7,2.5
		c-2.3-0.1-4.6,0.4-6.6,1.4c-1.3-0.1-2.7-0.2-4-0.2c3.4-1,7-1.4,10.5-1.2"/>
	<path fill="#010101" stroke="#010101" stroke-width="9.467931e-02" stroke-linecap="round" stroke-linejoin="round" d="M12.8,62.9
		c-0.3-2.3-0.6-4.5-0.8-6.8c-1,0-2.1,0-3.1,0C9.4,58.7,10.7,61.1,12.8,62.9z"/>
	<path fill="#010101" stroke="#010101" stroke-width="9.467931e-02" stroke-linecap="round" stroke-linejoin="round" d="M44.4,4.9
		c1.8,0.7,3.5,1.5,5.1,2.5c1.7,1,3.2,2.1,4.6,3.4c0.8,0,1.7,0.1,2.5,0.1c-2.1-1.8-4.4-3.2-6.9-4.4c0,0,0,0,0,0c0,0,0,0,0,0
		c-1.3-0.6-2.5-1.1-3.8-1.6C45.4,4.9,44.9,4.9,44.4,4.9z"/>
	<path fill="#010101" stroke="#010101" stroke-width="9.467931e-02" stroke-linecap="round" stroke-linejoin="round" d="M47.5,10.5
		c-1.8-2.3-4.1-4.4-6.7-5.8c-1.5-0.1-3-0.2-4.5-0.3c1.1,1.6,1.9,3.9,2.4,5.7C41.6,10.2,44.6,10.3,47.5,10.5z"/>
	<path fill="#010101" stroke="#010101" stroke-width="9.467931e-02" stroke-linecap="round" stroke-linejoin="round" d="M20.5,9.2
		c1.7-2.2,3.9-4.1,6.5-5.3C28.5,4,30,4,31.5,4.1c-1.1,1.5-1.8,3.8-2.4,5.5C26.3,9.5,23.4,9.4,20.5,9.2z"/>
	<path fill="#010101" stroke="#010101" stroke-width="9.467931e-02" stroke-linecap="round" stroke-linejoin="round" d="M13.1,8.9
		c2.9-2.5,6.3-4.2,10-5.2c-0.5,0-1-0.1-1.6-0.1c-4.1,1-7.7,2.6-11.2,5.2C11.2,8.8,12.2,8.8,13.1,8.9z"/>
	<path fill="#010101" stroke="#010101" stroke-width="9.467931e-02" stroke-linecap="round" stroke-linejoin="round" d="M15.7,18.4
		C12.4,18.2,9,18.1,5.6,18c1.9-3.4,4.4-6.6,7.4-9.1c2.5,0.1,5,0.2,7.4,0.3C18.4,11.9,16.9,15.2,15.7,18.4z"/>
	<path fill="#010101" stroke="#010101" stroke-width="9.467931e-02" stroke-linecap="round" stroke-linejoin="round" d="M40.4,19.4
		c-0.3-3.2-0.8-6.2-1.6-9.3c-3.2-0.1-6.4-0.3-9.6-0.4c-0.9,3-1.5,6.1-1.9,9.2C31.6,19,36,19.2,40.4,19.4z"/>
	<path fill="#010101" stroke="#010101" stroke-width="9.467931e-02" stroke-linecap="round" stroke-linejoin="round" d="M52.6,19.9
		c1.3,3.8,2,7.7,2.2,11.7c-4.7-0.1-9.3-0.3-14-0.4c0-4-0.1-7.9-0.5-11.9C44.4,19.5,48.5,19.7,52.6,19.9z"/>
	<path fill="#010101" stroke="#010101" stroke-width="9.467931e-02" stroke-linecap="round" stroke-linejoin="round" d="M13.4,27.3
		c0.6-3,1.3-6,2.4-8.9c3.8,0.2,7.7,0.3,11.5,0.5c-0.6,4-1,8-1.3,12c-3.7-0.1-7.5-0.2-11.2-0.3C14.5,29.3,14.1,28.3,13.4,27.3z"/>
	<path fill="#010101" stroke="#010101" stroke-width="9.467931e-02" stroke-linecap="round" stroke-linejoin="round" d="M40.4,43.6
		c0.3-4.1,0.5-8.3,0.5-12.4c-5-0.1-10-0.3-14.9-0.4c-0.3,4.2-0.5,8.4-0.6,12.6C30.3,43.5,35.4,43.6,40.4,43.6z"/>
	<path fill="#010101" stroke="#010101" stroke-width="9.467931e-02" stroke-linecap="round" stroke-linejoin="round" d="M64.9,31.9
		c-3.4-0.1-6.7-0.2-10.1-0.3c0.2,4.1,0,8.1-0.5,12.2c3.4,0,6.7,0.1,10.1,0.1C65.1,40,65.3,35.9,64.9,31.9z"/>
	<path fill="#010101" stroke="#010101" stroke-width="9.467931e-02" stroke-linecap="round" stroke-linejoin="round" d="M64.4,44
		c-0.8,4.2-2,8.2-3.8,12.1c1.1,0,2.3,0,3.4,0c1.9-3.9,3.2-7.8,4-12C66.8,44,65.6,44,64.4,44z"/>
	<path fill="#010101" stroke="#010101" stroke-width="9.467931e-02" stroke-linecap="round" stroke-linejoin="round" d="M60.6,56
		c-3,0-6.1,0-9.1,0c-1.2,3.6-2.5,7-4.1,10.5c2.4,0,4.8,0,7.2-0.1C56.9,63.1,58.9,59.7,60.6,56z"/>
	<path fill="#010101" stroke="#010101" stroke-width="9.467931e-02" stroke-linecap="round" stroke-linejoin="round" d="M54.3,43.8
		C53.7,48,52.8,52,51.5,56c-4.1,0-8.3,0-12.4,0c0.6-4.1,1-8.2,1.3-12.4C45,43.7,49.7,43.8,54.3,43.8z"/>
	<path fill="#010101" stroke="#010101" stroke-width="9.467931e-02" stroke-linecap="round" stroke-linejoin="round" d="M37.4,66.5
		c0.6-3.5,1.2-7,1.7-10.5c-4.6,0-9.2,0-13.8,0c0.1,3.4,0.2,6.8,0.4,10.2C29.6,66.4,33.5,66.5,37.4,66.5z"/>
	<path fill="#010101" stroke="#010101" stroke-width="9.467931e-02" stroke-linecap="round" stroke-linejoin="round" d="M25.3,43.4
		c-4.5-0.1-8.9-0.1-13.4-0.2c-0.1,0.1-0.1,0.2-0.2,0.4c-0.1,4.2,0,8.3,0.3,12.4c4.4,0,8.8,0,13.3,0C25.2,51.8,25.2,47.6,25.3,43.4z"
		/>
</g>
<g>
	<path fill="#FFFFFF" d="M14.3,8.7c-0.1,0-0.2-0.1-0.3-0.1c0,0-0.2-0.2,0.1-0.5c0.1-0.1,0.2-0.2,0.3-0.3c0.5-0.3,1.9-1,2.5-1.2
		c0.8-0.4,1.7-0.7,2.5-1C20.3,5.3,21.1,5,22,4.8c0.4-0.1,0.9-0.2,1.3-0.3l0.1,0c0.2,0,0.3-0.1,0.5-0.1c0.3,0,0.4,0.1,0.5,0.3
		c0,0.1,0,0.2-0.2,0.4c-0.1,0.1-0.3,0.1-0.4,0.2c-1.8,0.4-3.5,0.9-5.2,1.5c-0.8,0.3-1.7,0.7-2.5,1.1c-0.5,0.2-0.9,0.5-1.4,0.7
		C14.7,8.6,14.5,8.7,14.3,8.7z"/>
	<path fill="#010101" d="M24,4.6C24,4.6,24.1,4.6,24,4.6c0.2,0,0.3,0.1,0.2,0.2c-0.1,0.1-0.2,0.1-0.3,0.1c-1.8,0.4-3.5,0.8-5.2,1.5
		c-0.8,0.3-1.7,0.7-2.5,1.1c-0.5,0.2-0.9,0.5-1.4,0.7c-0.1,0-0.3,0.2-0.5,0.2c0,0-0.1,0-0.1,0c0,0,0-0.1,0.1-0.2
		c0.1-0.1,0.2-0.2,0.3-0.2C15,7.7,16.5,7,17,6.8c0.8-0.4,1.7-0.7,2.5-1c0.9-0.3,1.7-0.5,2.6-0.8c0.4-0.1,0.9-0.2,1.3-0.3
		C23.6,4.7,23.8,4.6,24,4.6 M24,4.2C24,4.2,24,4.2,24,4.2c-0.2,0-0.4,0-0.6,0.1l-0.1,0c-0.4,0.1-0.9,0.2-1.3,0.3
		c-0.9,0.2-1.8,0.5-2.6,0.8c-0.9,0.3-1.7,0.6-2.6,1c-0.5,0.2-2,0.9-2.5,1.3c-0.1,0.1-0.2,0.2-0.4,0.3c-0.3,0.3-0.2,0.6,0,0.8
		c0.1,0.1,0.3,0.2,0.4,0.2c0.2,0,0.4-0.1,0.7-0.3c0.5-0.3,0.9-0.5,1.4-0.7c0.8-0.4,1.6-0.7,2.4-1.1c1.6-0.6,3.3-1.1,5.1-1.5
		c0.1,0,0.3-0.1,0.5-0.2c0.3-0.2,0.3-0.4,0.3-0.6C24.6,4.3,24.4,4.2,24,4.2C24.1,4.2,24.1,4.2,24,4.2L24,4.2z"/>
</g>
<g>
	<path fill="#FFFFFF" d="M48.7,8.1c-0.1,0-0.3-0.1-0.4-0.1c-0.4-0.2-0.7-0.3-1.1-0.5c-0.4-0.2-0.8-0.3-1.1-0.4
		c-0.8-0.3-1.6-0.6-2.3-0.8c-1.6-0.5-3.2-0.9-4.8-1.2c-0.1,0-0.1,0-0.2,0c-0.1,0-0.1,0-0.2-0.1c0,0-0.1-0.1-0.1-0.1
		c0,0-0.1-0.1-0.1-0.1c0,0,0-0.1,0-0.1c0-0.1,0-0.2,0.2-0.2c0.1,0,0.1-0.1,0.2-0.1c0,0,0.1,0,0.1,0c0.1,0,0.2,0,0.3,0
		c0.4,0.1,0.8,0.2,1.2,0.2c0.4,0.1,0.8,0.2,1.3,0.3c0.8,0.2,1.6,0.4,2.4,0.7c0.8,0.2,1.6,0.5,2.4,0.8c0.8,0.3,1.6,0.6,2.3,0.9
		c0.1,0,0.1,0.1,0.2,0.1c0.1,0,0.1,0.1,0.1,0.1c0,0,0.1,0.1,0.1,0.1c0,0.1,0,0.2,0,0.3c0,0-0.1,0.1-0.1,0.1c0,0-0.1,0-0.1,0
		C48.9,8.1,48.8,8.1,48.7,8.1C48.8,8.1,48.7,8.1,48.7,8.1z"/>
	<path fill="#010101" d="M38.9,4.6c0.1,0,0.1,0,0.2,0c0.4,0.1,0.8,0.2,1.2,0.2c0.4,0.1,0.8,0.2,1.2,0.3c0.8,0.2,1.6,0.4,2.4,0.7
		c0.8,0.2,1.6,0.5,2.4,0.8c0.8,0.3,1.5,0.6,2.3,0.9c0,0,0.1,0,0.1,0.1c0,0,0.1,0.1,0.1,0.1c0,0,0.1,0,0.1,0.1c0,0,0,0,0,0.1
		c0,0,0,0,0,0c0,0,0,0,0,0c0,0,0,0-0.1,0c0,0,0,0,0,0c-0.1,0-0.2,0-0.3-0.1c-0.4-0.2-0.7-0.3-1.1-0.5C47,7.2,46.6,7,46.2,6.9
		c-0.8-0.3-1.6-0.6-2.4-0.8c-1.6-0.5-3.2-0.9-4.8-1.2c0,0-0.1,0-0.1,0c0,0-0.1,0-0.1-0.1c0,0-0.1,0-0.1-0.1c0,0,0,0,0,0c0,0,0,0,0,0
		c0,0,0,0,0,0C38.7,4.6,38.8,4.6,38.9,4.6C38.8,4.6,38.9,4.6,38.9,4.6 M38.9,4.1c0,0-0.1,0-0.1,0c-0.1,0-0.2,0-0.3,0.1
		c-0.2,0.1-0.3,0.2-0.3,0.4c0,0.1,0,0.2,0,0.3c0,0.1,0.1,0.1,0.1,0.2c0.1,0,0.1,0.1,0.2,0.1c0.1,0,0.1,0.1,0.2,0.1
		c0.1,0,0.1,0,0.2,0c1.6,0.3,3.2,0.7,4.8,1.2c0.8,0.2,1.6,0.5,2.3,0.8c0.4,0.1,0.8,0.3,1.1,0.4c0.4,0.1,0.7,0.3,1.1,0.5
		c0.1,0,0.3,0.1,0.4,0.1c0,0,0.1,0,0.1,0c0.1,0,0.1,0,0.2,0c0.1,0,0.2-0.1,0.2-0.1c0.1-0.1,0.1-0.1,0.2-0.2c0-0.1,0.1-0.3,0-0.5
		c-0.1-0.1-0.1-0.2-0.2-0.2c-0.1,0-0.1-0.1-0.2-0.1c-0.1,0-0.1-0.1-0.2-0.1c-0.7-0.3-1.5-0.6-2.3-0.9c-0.8-0.3-1.6-0.6-2.4-0.8
		c-0.8-0.2-1.6-0.5-2.4-0.7c-0.4-0.1-0.8-0.2-1.3-0.3c-0.4-0.1-0.8-0.2-1.2-0.2C39.1,4.1,39,4.1,38.9,4.1L38.9,4.1z"/>
</g>
<g>
	<path fill="#FFFFFF" d="M64.5,50.9c0,0-0.1,0-0.1,0c-0.3-0.2-0.1-0.6,0-0.8c0.2-0.5,0.4-1,0.5-1.5c0.3-0.9,0.5-1.7,0.7-2.6
		c0.4-1.8,0.8-3.5,1-5.3c0-0.1,0-0.3,0.1-0.4c0-0.1,0.1-0.2,0.3-0.2c0.1,0,0.2,0.1,0.2,0.1c0.2,0.2,0.1,0.5,0.1,0.8
		c-0.1,0.6-0.1,1.1-0.2,1.6c-0.1,0.9-0.3,1.8-0.5,2.7c-0.4,1.9-0.9,3.7-1.5,5.2c-0.1,0.1-0.1,0.3-0.2,0.4
		C64.8,50.9,64.7,50.9,64.5,50.9z"/>
	<path fill="#010101" d="M67,40.2C67,40.2,67,40.3,67,40.2c0.2,0.2,0.1,0.5,0.1,0.7c-0.1,0.5-0.1,1-0.2,1.5
		c-0.1,0.9-0.3,1.8-0.5,2.7c-0.4,1.8-0.9,3.5-1.5,5.2c0,0.1-0.1,0.2-0.2,0.3c0,0-0.1,0.1-0.1,0.1c0,0,0,0,0,0
		c-0.1-0.1,0.1-0.5,0.1-0.6c0.2-0.5,0.3-1,0.5-1.5c0.3-0.9,0.5-1.7,0.7-2.6c0.4-1.8,0.8-3.5,1-5.3C66.8,40.5,66.9,40.4,67,40.2
		C66.9,40.3,67,40.2,67,40.2 M67,39.8c-0.2,0-0.4,0.1-0.5,0.3c-0.1,0.2-0.1,0.4-0.2,0.5c-0.2,1.8-0.5,3.5-1,5.3
		c-0.2,0.9-0.5,1.7-0.7,2.6c-0.2,0.5-0.3,1-0.5,1.5c-0.1,0.3-0.3,0.9,0.1,1.1c0.1,0,0.2,0.1,0.3,0.1c0.1,0,0.3,0,0.5-0.3
		c0.1-0.2,0.2-0.3,0.2-0.4c0.6-1.6,1.1-3.3,1.5-5.3c0.2-0.9,0.4-1.8,0.5-2.7c0.1-0.5,0.2-1,0.2-1.6l0-0.1c0-0.3,0.1-0.7-0.2-1
		C67.3,39.8,67.1,39.8,67,39.8L67,39.8z"/>
</g>
<g>
	<path fill="#FFFFFF" d="M65.4,26.2c-0.1,0-0.2-0.1-0.2-0.1C65.1,26,65,25.9,65,25.8l-0.2-0.5c-0.1-0.3-0.2-0.5-0.3-0.8
		c-0.2-0.4-0.4-0.8-0.5-1.2c-0.4-0.8-0.8-1.6-1.3-2.4c-0.4-0.8-0.9-1.5-1.5-2.3c-0.3-0.4-0.5-0.7-0.8-1.1l-0.1-0.1
		c-0.1-0.1-0.2-0.3-0.3-0.4c0-0.1-0.1-0.2-0.1-0.3c0-0.1,0-0.2,0.1-0.2c0,0,0.1-0.1,0.2-0.1c0.1,0,0.1,0,0.2,0
		c0.2,0.1,0.3,0.2,0.3,0.3c1.1,1.5,2.1,2.9,3,4.5c0.4,0.8,0.8,1.6,1.2,2.4c0.2,0.5,0.4,1,0.6,1.5c0.1,0.3,0.2,0.6,0.1,0.8
		C65.6,26.2,65.5,26.2,65.4,26.2z"/>
	<path fill="#010101" d="M60.2,16.7C60.3,16.7,60.3,16.7,60.2,16.7c0.2,0.1,0.3,0.2,0.3,0.3c1.1,1.4,2.1,2.9,3,4.5
		c0.4,0.8,0.8,1.6,1.2,2.4c0.2,0.5,0.4,1,0.6,1.5c0,0.1,0.2,0.5,0.1,0.6c0,0,0,0,0,0c0,0-0.1,0-0.1,0c-0.1-0.1-0.1-0.2-0.2-0.3
		c-0.2-0.4-0.3-0.9-0.5-1.3c-0.2-0.4-0.4-0.8-0.5-1.2c-0.4-0.8-0.8-1.6-1.3-2.4c-0.5-0.8-0.9-1.5-1.5-2.3c-0.3-0.4-0.5-0.7-0.8-1.1
		c-0.1-0.2-0.3-0.3-0.4-0.5C60.2,16.9,60.2,16.8,60.2,16.7C60.2,16.7,60.2,16.7,60.2,16.7 M60.2,16.2c-0.1,0-0.3,0.1-0.4,0.2
		c-0.1,0.1-0.2,0.3-0.1,0.4c0,0.2,0.1,0.3,0.1,0.3c0.1,0.2,0.2,0.3,0.3,0.5c0,0,0.1,0.1,0.1,0.1c0.3,0.3,0.5,0.7,0.8,1
		c0.5,0.7,1,1.5,1.4,2.2c0.4,0.8,0.9,1.6,1.2,2.4c0.2,0.4,0.4,0.8,0.5,1.2c0.1,0.2,0.2,0.5,0.3,0.7c0.1,0.2,0.1,0.3,0.2,0.5
		c0.1,0.1,0.1,0.3,0.3,0.4c0.1,0.1,0.2,0.2,0.4,0.2c0.2,0,0.4-0.1,0.5-0.3c0.2-0.3,0-0.7-0.1-1l0-0.1c-0.2-0.5-0.4-1-0.6-1.5
		c-0.4-0.8-0.8-1.7-1.2-2.5c-0.9-1.6-1.9-3.1-3-4.6c-0.1-0.1-0.2-0.3-0.4-0.4C60.4,16.2,60.3,16.2,60.2,16.2L60.2,16.2z"/>
</g>
<g>
	<path d="M39.6,67.8c-2.5,0-4.9,0-7.4,0c-3.5-0.1-8.6-0.2-12.3-0.7c-2.2-0.3-4.1-0.7-5.9-1.7c-1.8-1-3.4-2.5-4.5-4.2
		c-2.7-4.1-2.1-8.8-1.2-12c0.5-1.9,1.3-3.7,2.1-5.4l0.3-0.6c0.8-1.7,1.6-3.6,2.1-5.4c1.1-3.5,1.8-7.6-1.8-11.1
		c-0.5-0.5-1-0.9-1.5-1.3L9,25c-0.7-0.6-1.4-1.2-2.1-1.7c-1.8-1.4-3.6-2.7-5.6-4.1C1.2,19.1,1.1,19,1,18.9c-0.3-0.6,0.2-1.3,0.4-1.5
		c0.4-0.4,0.7-0.7,1.2-0.9c0,0,0.1,0,0.1,0c0,0,0.1,0,0.1,0c0.8,0.6,1.7,1.2,2.5,1.8c0.9,0.6,1.7,1.3,2.6,2c1.5,1.1,2.9,2.3,4,3.2
		l0.2,0.2c0.1,0.1,0.3,0.2,0.4,0.3c0.1,0.1,0.2,0.2,0.3,0.3c0.1,0.1,0.2,0.2,0.3,0.3c0.4,0.4,0.7,0.8,1.1,1.2
		c0.3,0.4,0.6,0.9,0.9,1.4c0.3,0.4,0.5,0.9,0.7,1.4c0.1,0.2,0.2,0.5,0.3,0.7c0.1,0.3,0.2,0.5,0.2,0.8c0.3,1.1,0.4,2.2,0.3,3.4
		c0,1.2-0.2,2.5-0.6,3.8c-0.3,1.1-0.7,2.3-1.2,3.7c-0.3,0.7-0.5,1.3-0.8,2c-0.3,0.6-0.5,1.2-0.8,1.9L12.6,46
		c-0.2,0.4-0.3,0.8-0.5,1.2c-0.3,0.8-0.6,1.5-0.8,2.1c-0.3,0.7-0.5,1.4-0.6,2.1c-0.1,0.7-0.3,1.3-0.3,2c-0.1,0.8-0.1,1.6,0,2.4
		c0.1,0.8,0.3,1.5,0.6,2.3c0.3,0.7,0.6,1.3,1,1.9c0.4,0.6,0.9,1.2,1.5,1.7c0.3,0.2,0.5,0.4,0.8,0.7c0.3,0.2,0.6,0.4,0.9,0.6
		c0.6,0.3,1.2,0.6,1.9,0.8c0.4,0.1,0.8,0.2,1.2,0.3c0.5,0.1,1,0.2,1.4,0.3c1.1,0.2,2.2,0.3,3.6,0.4c1.4,0.1,2.9,0.2,4.8,0.3
		c1.9,0.1,4,0.1,6.5,0.2c2.8,0,5.7,0.1,8.5,0.1c5,0,10,0,15,0c0.1,0,0.2,0.1,0.2,0.2c0,0.5-0.1,0.9-0.4,1.4
		c-0.1,0.2-0.6,0.9-1.3,0.9C51,67.8,45.3,67.8,39.6,67.8C39.6,67.8,39.6,67.8,39.6,67.8z"/>
	<g>
		<path fill="#FFFFFF" d="M2.7,16.7c0.8,0.6,1.7,1.2,2.5,1.8c0.9,0.6,1.7,1.3,2.6,1.9c1.3,1,2.6,2.1,3.9,3.2
			c0.1,0.1,0.1,0.1,0.2,0.2c0.1,0.1,0.3,0.2,0.4,0.3c0.1,0.1,0.2,0.2,0.3,0.3c0.1,0.1,0.2,0.2,0.3,0.3c0.4,0.4,0.7,0.8,1,1.2
			c0.3,0.4,0.6,0.9,0.9,1.3c0.2,0.4,0.5,0.9,0.6,1.3c0.1,0.2,0.2,0.5,0.3,0.7c0.1,0.2,0.2,0.5,0.2,0.8c0.3,1.1,0.4,2.2,0.3,3.3
			c0,1.3-0.3,2.5-0.6,3.8c-0.3,1.3-0.7,2.5-1.2,3.7c-0.3,0.7-0.5,1.3-0.8,1.9c-0.4,1-0.9,2.1-1.4,3.1c-0.2,0.4-0.3,0.8-0.5,1.2
			c-0.3,0.7-0.6,1.4-0.8,2.1c-0.2,0.7-0.4,1.4-0.6,2.1c-0.1,0.7-0.3,1.3-0.3,2c-0.1,0.8-0.1,1.6,0,2.5c0.1,0.8,0.3,1.6,0.6,2.3
			c0.3,0.7,0.6,1.4,1.1,2c0.4,0.6,1,1.2,1.5,1.7c0.3,0.2,0.6,0.5,0.8,0.7c0.3,0.2,0.6,0.4,0.9,0.6c0.6,0.3,1.2,0.6,1.9,0.8
			c0.4,0.1,0.8,0.2,1.2,0.3c0.5,0.1,1,0.2,1.5,0.3c1.2,0.2,2.4,0.3,3.7,0.4c1.6,0.1,3.2,0.2,4.8,0.3c2.2,0.1,4.3,0.1,6.5,0.2
			c2.8,0,5.7,0.1,8.5,0.1c5,0,10,0,15,0c0,0.5-0.1,0.9-0.4,1.3c-0.2,0.3-0.6,0.8-1,0.8c-5.7,0.1-11.4,0.2-17.1,0.2
			c-2.5,0-4.9,0-7.4-0.1c-3.6-0.1-8.7-0.2-12.2-0.7c-2.1-0.3-4-0.7-5.9-1.7c-1.8-1-3.4-2.4-4.5-4.1c-2.3-3.6-2.3-7.9-1.2-11.8
			c0.6-2,1.4-3.8,2.2-5.7c0.8-1.9,1.6-3.7,2.3-5.7c1.3-4.1,1.6-8-1.9-11.4c-0.6-0.6-1.3-1.1-1.9-1.7c-0.7-0.6-1.4-1.2-2.2-1.7
			c-1.8-1.4-3.7-2.8-5.6-4.1c-0.1-0.1-0.2-0.1-0.2-0.3c-0.2-0.4,0.1-1,0.4-1.3C1.9,17.1,2.2,16.8,2.7,16.7 M2.7,16.2
			c-0.1,0-0.1,0-0.2,0c-0.5,0.2-1,0.5-1.4,0.9c-0.2,0.2-0.8,1-0.4,1.8c0.1,0.2,0.2,0.4,0.4,0.5c2,1.4,3.8,2.7,5.5,4.1
			c0.7,0.6,1.4,1.1,2.1,1.7l0.4,0.3c0.5,0.4,1,0.8,1.5,1.3c2.8,2.7,3.3,6,1.8,10.9c-0.6,1.8-1.4,3.6-2.1,5.4l-0.1,0.3l-0.1,0.3
			c-0.8,1.7-1.6,3.6-2.1,5.4C6.7,53.8,7.1,58,9.3,61.4c1.1,1.8,2.8,3.3,4.6,4.3c1.9,1,3.8,1.4,6,1.7c3.6,0.5,8.8,0.6,12.3,0.7
			c2.4,0,4.8,0.1,7.4,0.1c5.7,0,11.4-0.1,17.1-0.2c0.8,0,1.3-0.8,1.5-1c0.3-0.5,0.5-1,0.4-1.6c0-0.3-0.2-0.5-0.5-0.5
			c-5.8,0-10.6,0-15,0c-2.7,0-5.6,0-8.5-0.1c-2.5,0-4.6-0.1-6.5-0.2c-1.9-0.1-3.4-0.2-4.8-0.3c-1.4-0.1-2.6-0.2-3.6-0.4
			c-0.5-0.1-1-0.2-1.4-0.3c-0.4-0.1-0.8-0.2-1.1-0.3c-0.7-0.2-1.3-0.5-1.8-0.8c-0.3-0.2-0.6-0.3-0.9-0.5c-0.3-0.2-0.6-0.4-0.8-0.6
			c-0.6-0.5-1.1-1-1.5-1.6c-0.4-0.6-0.8-1.2-1-1.9c-0.3-0.7-0.4-1.4-0.5-2.2c-0.1-0.7-0.1-1.5,0-2.4c0.1-0.6,0.2-1.3,0.3-1.9
			c0.1-0.7,0.3-1.4,0.6-2.1c0.3-0.8,0.6-1.5,0.8-2.1c0.2-0.4,0.3-0.8,0.5-1.2c0.2-0.4,0.4-0.9,0.6-1.3c0.3-0.6,0.5-1.2,0.8-1.8
			c0.3-0.7,0.6-1.4,0.8-2c0.5-1.4,0.9-2.6,1.2-3.8c0.3-1.4,0.5-2.6,0.6-3.9c0-1.2-0.1-2.4-0.3-3.5c-0.1-0.3-0.1-0.5-0.2-0.8
			c-0.1-0.3-0.2-0.5-0.3-0.8c-0.2-0.5-0.4-1-0.7-1.4c-0.3-0.5-0.6-0.9-0.9-1.4c-0.3-0.4-0.7-0.8-1.1-1.2c-0.1-0.1-0.2-0.2-0.3-0.3
			c-0.1-0.1-0.2-0.2-0.3-0.3c-0.1-0.1-0.3-0.2-0.4-0.4l-0.2-0.2c-1.1-0.9-2.5-2.1-4-3.2c-0.9-0.7-1.8-1.3-2.6-2
			c-0.8-0.6-1.7-1.2-2.5-1.8C2.9,16.2,2.8,16.2,2.7,16.2L2.7,16.2z"/>
	</g>
</g>
</svg>
