<?xml version="1.0" encoding="utf-8"?>
<!-- Generator: Adobe Illustrator 23.0.0, SVG Export Plug-In . SVG Version: 6.00 Build 0)  -->
<svg version="1.1" id="Calque_1" xmlns="http://www.w3.org/2000/svg" xmlns:xlink="http://www.w3.org/1999/xlink" x="0px" y="0px"
	 viewBox="0 0 70 70" enable-background="new 0 0 70 70" xml:space="preserve">
<g>
	<path fill="#010101" d="M32.6,66.7l-0.1-0.2l0,0.2c0,0-0.2,0-0.2,0l-0.1-0.2l0,0.2l-2.6-0.1l-2.4-0.1l-1.7-0.1l-1.5-0.1l-1.5-0.1
		l-1.3-0.1L20.3,66l-0.1-0.3l0,0.2c-0.7-0.1-1.3-0.2-2-0.3c-0.6-0.1-1.3-0.3-1.9-0.5c-0.4-0.1-0.9-0.3-1.3-0.5
		c-0.7-0.4-1.5-0.8-2.2-1.4c-0.6-0.5-1.1-1-1.6-1.6l-0.2-0.3l-0.2-0.3c0,0-0.2-0.3-0.3-0.3l-0.1-0.2c-0.9-1.3-1.4-2.6-1.7-4.1
		L8.7,56l-0.1-0.4l0.2-0.1l-0.2,0c0,0,0-0.1,0-0.1c-0.1-0.9-0.1-1.8,0-2.8l0-0.3c0.1-1.1,0.3-2.1,0.6-3.1c0.2-0.8,0.5-1.6,0.8-2.3
		c0.2-0.6,0.5-1.2,0.8-1.8l1.3-2.9c0.2-0.5,0.5-1.1,0.7-1.6l0.5-1.3l0.3-0.1L13.4,39l0.3-0.1l-0.2-0.1l0.4-1.1l0.2-0.6l0.2-0.7
		l0.1-0.3c0.1-0.3,0.1-0.5,0.2-0.7l0.1-0.3l0.1-0.3c0-0.2,0.1-0.4,0.1-0.7l0.2-0.1l-0.2,0l0.1-0.7l0-0.2c0-0.8,0-1.5-0.1-2.2
		l-0.1-0.5l0.2-0.2l-0.2,0.1L14.4,30l-0.1-0.4l-0.1-0.2l-0.1-0.2L14,28.8l0.2-0.2l-0.2,0.1l-0.1-0.1l0.2-0.2l-0.2,0.1l-0.2-0.4
		l-0.3-0.5l0.1-0.2l-0.2,0.1l-0.2-0.4c-0.5-0.7-1.1-1.4-1.9-2.1l-0.7-0.6l0.1-0.3l-0.1,0.2L8.5,23c0,0-1.5-1.2-1.5-1.2l0-0.3
		l-0.1,0.2c0,0-0.1-0.1-0.1-0.1l0.1-0.3l-0.1,0.2c0,0-0.1-0.1-0.1-0.1l0.1-0.3l-0.1,0.2l0.1-0.3l-0.1,0.2l0-0.3l-0.1,0.2l-0.1-0.1
		l0.1-0.3l-0.1,0.2l-1.6-1.2l0-0.3l-0.1,0.2l0-0.3l-0.1,0.2l-0.1-0.1l0-0.3l-0.1,0.2l0-0.3L4,19.5l-0.1-0.1l0-0.3l-0.1,0.2
		c0,0-0.1-0.1-0.1-0.1L3.8,19l-0.2,0.1c0,0-0.2-0.2-0.2-0.2l0-0.3l-0.1,0.2l0-0.3l-0.1,0.2l-0.5-0.4l0-0.3l-0.1,0.2
		c0,0-0.2-0.1-0.2-0.1l0.1-0.2l-0.2,0.2L2.2,18l-0.2,0.2L1.9,18c-0.1,0-0.1-0.1-0.2-0.2c0-0.1,0-0.1,0-0.1c1.5-2.4,3.2-4.4,5.1-6.3
		c0,0,0.1-0.1,0.2-0.1c0,0,0.1,0,0.1,0c1.7,1.2,3.5,2.5,5.3,3.9c1,0.8,3.5,2.8,4.4,3.6c3.3,2.9,5.3,6.5,6.1,10.6
		c0.6,3.7,0.2,7.6-1.5,12.2c-0.7,1.9-1.5,3.8-2.3,5.7L19,47.6c-0.7,1.6-1.6,3.7-1.9,5.3c-0.2,1.1,0,1.9,0.5,2.8
		c0.5,0.8,1.4,1.4,2.3,1.6c1.3,0.3,3.4,0.5,6.1,0.6c4.1,0.2,8.1,0.2,12.2,0.3c1.2,0,2.4,0,3.6,0c7.1,0,14.1-0.1,20.9-0.2
		c0,0,0,0,0,0c0.1,0,0.2,0,0.2,0.1c0,0.1,0,0.2,0,0.2c-1.5,2.7-3.3,5.3-5.5,8.1c0,0.1-0.1,0.1-0.2,0.1l-0.6,0l-0.1-0.2l0,0.2
		c0,0-3,0-3,0l-0.1-0.2l0,0.2c0,0-0.3,0-0.3,0l-0.2-0.2l0,0.2l-0.5,0l-0.1-0.2l0,0.2l-0.1-0.2l0,0.2l-0.1-0.2l0,0.2l-2,0L50,66.5
		l0,0.2l-0.2-0.2l0,0.2c0,0-8.2,0-8.2,0L32.6,66.7z"/>
	<path fill="#010101" d="M7.1,11.5c1.8,1.2,3.6,2.6,5.3,3.9c1,0.8,3.5,2.8,4.4,3.6c3.1,2.8,5.3,6.3,6,10.4c0.7,4.1-0.1,8.2-1.4,12
		c-0.7,1.9-1.5,3.8-2.3,5.7c-0.7,1.7-1.8,3.9-2,5.8c-0.2,1.1,0,2,0.6,2.9c0.6,0.9,1.5,1.5,2.5,1.7c1.7,0.4,4.3,0.5,6.1,0.6
		c4.1,0.2,8.2,0.2,12.3,0.3c1.2,0,2.4,0,3.6,0c7,0,13.9-0.1,20.9-0.2c-1.6,2.9-3.5,5.5-5.5,8.1c0,0,0,0,0,0c0,0,0,0,0,0c0,0,0,0,0,0
		c0,0,0,0,0,0c0,0,0,0,0,0c0,0,0,0,0,0c0,0,0,0,0,0c0,0,0,0,0,0c0,0,0,0,0,0c0,0,0,0,0,0c-0.1,0-0.2,0-0.2,0c0,0,0,0,0,0
		c0,0,0,0,0,0c0,0,0,0,0,0c0,0,0,0,0,0c0,0,0,0,0,0c0,0,0,0-0.1,0c0,0,0,0,0,0c0,0-0.1,0-0.1,0c-0.8,0-1.5,0-2.3,0
		c-0.2,0-0.4,0-0.5,0c0,0-0.1,0-0.1,0c0,0-0.1,0-0.1,0c0,0-0.1,0-0.1,0c0,0-0.1,0-0.1,0c0,0-0.1,0-0.1,0c-0.1,0-0.1,0-0.2,0
		c-0.1,0-0.2,0-0.2,0c0,0,0,0,0,0c-0.1,0-0.1,0-0.2,0c0,0,0,0-0.1,0c-0.1,0-0.1,0-0.2,0c0,0-0.1,0-0.1,0c0,0-0.1,0-0.1,0
		c-0.1,0-0.1,0-0.2,0c-0.1,0-0.2,0-0.3,0c0,0,0,0,0,0c-0.1,0-0.2,0-0.2,0c0,0,0,0-0.1,0c-0.1,0-0.1,0-0.2,0c0,0-0.1,0-0.1,0
		c0,0-0.1,0-0.1,0c-0.1,0-0.1,0-0.2,0c-0.1,0-0.2,0-0.3,0c0,0,0,0,0,0c-0.1,0-0.2,0-0.2,0c0,0,0,0-0.1,0c-0.1,0-0.1,0-0.2,0
		c0,0-0.1,0-0.1,0c-0.4,0-0.8,0-1.2,0c0,0-0.1,0-0.1,0c0,0-0.1,0-0.1,0c0,0-0.1,0-0.1,0c0,0-0.1,0-0.1,0c0,0-0.1,0-0.1,0
		c-0.1,0-0.1,0-0.2,0c0,0-0.1,0-0.1,0c-0.1,0-0.1,0-0.2,0c0,0-0.1,0-0.1,0c-0.1,0-0.1,0-0.2,0c0,0-0.1,0-0.1,0c-0.1,0-0.1,0-0.2,0
		c0,0,0,0-0.1,0c-0.1,0-0.1,0-0.2,0c-0.7,0-1.4,0-2.1,0c0,0,0,0,0,0c0,0,0,0,0,0c-0.1,0-0.2,0-0.3,0c0,0,0,0,0,0c0,0,0,0,0,0
		c-0.1,0-0.2,0-0.2,0c0,0,0,0-0.1,0c0,0,0,0,0,0c-0.1,0-0.2,0-0.2,0c0,0,0,0-0.1,0c0,0,0,0,0,0c0,0,0,0,0,0c-0.1,0-0.1,0-0.2,0
		c0,0,0,0-0.1,0c0,0,0,0,0,0c0,0,0,0,0,0c-0.1,0-0.1,0-0.2,0c0,0-0.1,0-0.1,0c0,0,0,0,0,0c0,0,0,0-0.1,0c0,0-0.1,0-0.1,0
		c0,0-0.1,0-0.1,0c0,0,0,0-0.1,0c0,0,0,0-0.1,0c0,0-0.1,0-0.1,0c0,0-0.1,0-0.1,0c0,0,0,0-0.1,0c0,0,0,0-0.1,0c0,0-0.1,0-0.1,0
		c0,0-0.1,0-0.1,0c0,0,0,0-0.1,0c0,0,0,0-0.1,0c0,0-0.1,0-0.1,0c0,0-0.1,0-0.1,0c0,0-0.1,0-0.1,0c0,0,0,0-0.1,0c0,0,0,0-0.1,0
		c0,0-0.1,0-0.1,0c0,0-0.1,0-0.1,0c0,0,0,0-0.1,0c0,0,0,0-0.1,0c0,0-0.1,0-0.1,0c0,0-0.1,0-0.1,0c0,0,0,0-0.1,0c0,0,0,0-0.1,0
		c0,0-0.1,0-0.1,0c0,0-0.1,0-0.1,0c0,0,0,0-0.1,0c0,0,0,0,0,0c0,0-0.1,0-0.1,0c0,0-0.1,0-0.1,0c0,0,0,0,0,0c0,0,0,0,0,0
		c0,0,0,0-0.1,0c-0.1,0-0.1,0-0.2,0c0,0,0,0,0,0c0,0,0,0,0,0c0,0,0,0-0.1,0c-0.1,0-0.1,0-0.2,0c0,0,0,0,0,0c0,0,0,0,0,0c0,0,0,0,0,0
		c-0.1,0-0.2,0-0.2,0c-0.7,0-1.4,0-2,0c0,0,0,0,0,0c0,0,0,0,0,0c-0.1,0-0.2,0-0.3,0c0,0,0,0,0,0c-0.1,0-0.2,0-0.3,0c0,0,0,0-0.1,0
		c-0.2,0-0.4,0-0.6,0c0,0-0.1,0-0.1,0c-0.1,0-0.2,0-0.2,0c0,0-0.1,0-0.1,0c-0.1,0-0.2,0-0.2,0c0,0-0.1,0-0.1,0c-0.1,0-0.1,0-0.2,0
		c0,0-0.1,0-0.1,0c-0.1,0-0.1,0-0.2,0c0,0-0.1,0-0.1,0c-0.1,0-0.1,0-0.2,0c0,0-0.1,0-0.1,0c-0.1,0-0.1,0-0.2,0c-0.1,0-0.1,0-0.2,0
		c-0.1,0-0.1,0-0.2,0c-0.1,0-0.1,0-0.2,0s-0.1,0-0.2,0c-0.1,0-0.1,0-0.2,0c-0.1,0-0.1,0-0.2,0c-0.1,0-0.1,0-0.2,0c0,0-0.1,0-0.1,0
		c-0.1,0-0.1,0-0.2,0c0,0-0.1,0-0.1,0c-0.1,0-0.1,0-0.2,0c0,0-0.1,0-0.1,0c-0.1,0-0.1,0-0.2,0c0,0-0.1,0-0.1,0c-0.2,0-0.4,0-0.6,0
		c0,0-0.1,0-0.1,0c-0.2,0-0.4,0-0.6,0c0,0-0.1,0-0.1,0c-0.2,0-0.4,0-0.6,0c0,0-0.1,0-0.1,0c-0.2,0-0.4,0-0.6,0c0,0,0,0-0.1,0
		c-0.2,0-0.4,0-0.6,0c-0.2,0-0.4,0-0.5,0c-0.1,0-0.1,0-0.2,0c-0.1,0-0.2,0-0.3,0c-0.2,0-0.3,0-0.5,0c-0.2,0-0.3,0-0.5,0
		c0,0-0.1,0-0.1,0c-0.2,0-0.5,0-0.7,0c0,0,0,0,0,0c-0.2,0-0.5,0-0.7,0c-0.1,0-0.2,0-0.3,0c-0.1,0-0.2,0-0.3,0c0,0-0.1,0-0.1,0
		c-0.2,0-0.3,0-0.5,0c-0.1,0-0.3,0-0.4,0c-0.1,0-0.2,0-0.2,0c-0.1,0-0.1,0-0.2,0c-0.1,0-0.3,0-0.4,0c0,0,0,0-0.1,0
		c-0.2,0-0.4,0-0.6-0.1c0,0-0.1,0-0.1,0c-0.1,0-0.2,0-0.2,0c-0.1,0-0.3,0-0.4,0c-0.1,0-0.2,0-0.2,0c-0.1,0-0.1,0-0.2,0
		c-0.1,0-0.1,0-0.2,0c-0.7-0.1-1.3-0.2-2-0.3c-0.6-0.1-1.2-0.3-1.8-0.5c-0.4-0.1-0.8-0.3-1.2-0.5c-0.8-0.4-1.5-0.8-2.1-1.3
		c-0.6-0.5-1.1-1-1.6-1.5c0,0,0,0-0.1-0.1c-0.1-0.1-0.1-0.1-0.1-0.2c0,0,0-0.1-0.1-0.1c-0.1-0.1-0.1-0.1-0.2-0.2c0,0,0,0,0-0.1
		c0-0.1-0.1-0.1-0.1-0.2c0,0,0-0.1-0.1-0.1c0-0.1-0.1-0.1-0.1-0.2c0,0,0,0,0-0.1c-0.8-1.2-1.3-2.5-1.6-3.9c0,0,0-0.1,0-0.1
		c0-0.1,0-0.1,0-0.2c0-0.1,0-0.1,0-0.2c0,0,0-0.1,0-0.1c0-0.1,0-0.2,0-0.3c0,0,0-0.1,0-0.1c0,0,0-0.1,0-0.1c-0.1-0.9-0.1-1.8,0-2.7
		c0-0.1,0-0.2,0-0.3c0,0,0-0.1,0-0.1c0.1-1,0.3-2,0.6-3c0.2-0.8,0.5-1.6,0.8-2.3c0.2-0.6,0.5-1.2,0.8-1.8c0,0,0-0.1,0-0.1
		c0.1-0.2,0.1-0.3,0.2-0.5c0-0.1,0-0.1,0.1-0.2c0.1-0.1,0.1-0.3,0.2-0.4c0-0.1,0.1-0.2,0.1-0.2c0.1-0.1,0.1-0.2,0.2-0.4
		c0-0.1,0.1-0.2,0.1-0.3c0.1-0.1,0.1-0.2,0.2-0.3c0-0.1,0.1-0.2,0.1-0.3c0-0.1,0.1-0.2,0.1-0.3c0.2-0.5,0.5-1.1,0.7-1.6
		c0-0.1,0.1-0.2,0.1-0.2c0,0,0-0.1,0-0.1c0-0.1,0.1-0.1,0.1-0.2c0,0,0-0.1,0-0.1c0-0.1,0.1-0.1,0.1-0.2c0,0,0-0.1,0-0.1
		c0-0.1,0-0.1,0.1-0.2c0,0,0-0.1,0-0.1c0-0.1,0-0.1,0.1-0.2c0,0,0-0.1,0.1-0.1c0-0.1,0-0.1,0.1-0.2c0-0.1,0-0.1,0.1-0.2
		c0-0.1,0-0.1,0.1-0.2c0-0.1,0-0.1,0.1-0.2c0,0,0-0.1,0-0.1c0-0.1,0-0.1,0.1-0.2c0,0,0-0.1,0-0.1c0-0.1,0-0.1,0.1-0.2
		c0,0,0-0.1,0-0.1c0-0.1,0-0.2,0.1-0.2c0,0,0-0.1,0-0.1c0-0.1,0-0.2,0.1-0.3c0,0,0,0,0-0.1c0-0.1,0-0.2,0.1-0.3c0,0,0,0,0-0.1
		c0-0.1,0-0.2,0.1-0.3c0,0,0,0,0,0c0.1-0.2,0.1-0.4,0.1-0.7c0-0.1,0-0.2,0.1-0.3c0,0,0,0,0,0c0-0.1,0-0.2,0.1-0.3
		c0-0.2,0.1-0.4,0.1-0.7c0,0,0-0.1,0-0.1c0-0.1,0-0.1,0-0.2c0-0.1,0-0.1,0-0.2c0,0,0-0.1,0-0.1c0,0,0-0.1,0-0.1c0-0.1,0-0.1,0-0.2
		c0,0,0,0,0-0.1c0-0.7,0-1.5-0.1-2.2c0,0,0,0,0-0.1c0,0,0-0.1,0-0.1c0-0.1,0-0.1,0-0.2c0-0.1,0-0.1,0-0.2c0,0,0-0.1,0-0.1
		c0,0,0,0,0-0.1c0-0.1,0-0.1-0.1-0.2c0,0,0-0.1,0-0.1c0,0,0-0.1,0-0.1c0,0,0,0,0,0c0-0.1-0.1-0.2-0.1-0.2c0,0,0,0,0,0
		c0-0.1,0-0.1-0.1-0.2c0,0,0,0,0-0.1c0-0.1,0-0.1-0.1-0.2c0,0,0,0,0,0c0-0.1-0.1-0.1-0.1-0.2c0,0,0-0.1,0-0.1c0-0.1,0-0.1-0.1-0.2
		c0,0,0-0.1,0-0.1c0-0.1,0-0.1-0.1-0.2c0,0,0,0,0,0c0-0.1-0.1-0.1-0.1-0.2c0,0,0,0,0-0.1c0-0.1-0.1-0.1-0.1-0.2c0,0,0-0.1-0.1-0.1
		c0,0-0.1-0.1-0.1-0.1c0,0,0-0.1-0.1-0.1c0,0-0.1-0.1-0.1-0.1c0,0,0-0.1-0.1-0.1c0-0.1-0.1-0.1-0.1-0.2c-0.6-0.8-1.2-1.5-1.9-2.1
		c0,0,0,0,0,0c-0.1,0-0.1-0.1-0.2-0.1c0,0,0,0-0.1,0c-0.1,0-0.1-0.1-0.2-0.1c0,0,0,0-0.1,0c0,0-0.1-0.1-0.1-0.1c0,0-0.1-0.1-0.1-0.1
		c0,0-0.1-0.1-0.1-0.1c0,0-0.1-0.1-0.1-0.1c0,0-0.1-0.1-0.1-0.1c0,0-0.1,0-0.1-0.1c0,0-0.1-0.1-0.1-0.1c0,0,0,0-0.1,0
		c0,0-0.1-0.1-0.1-0.1c0,0,0,0,0,0c-0.1,0-0.1-0.1-0.2-0.1c-0.1-0.1-0.2-0.2-0.4-0.3c0,0,0,0-0.1,0c0,0-0.1-0.1-0.1-0.1
		c0,0-0.1,0-0.1-0.1c0,0-0.1,0-0.1-0.1c0,0-0.1-0.1-0.1-0.1c0,0,0,0-0.1,0c0,0-0.1-0.1-0.1-0.1c-0.2-0.2-0.5-0.4-0.7-0.6
		c0,0-0.1,0-0.1-0.1C7.8,22.1,7.7,22,7.6,22c0,0-0.1,0-0.1-0.1c0,0,0,0-0.1,0c0,0-0.1-0.1-0.1-0.1c0,0,0,0-0.1,0
		c0,0-0.1-0.1-0.1-0.1c0,0,0,0-0.1,0c0,0-0.1-0.1-0.1-0.1c0,0,0,0-0.1,0c0,0-0.1-0.1-0.1-0.1c0,0,0,0,0,0c0,0-0.1-0.1-0.1-0.1
		c0,0,0,0,0,0c0,0-0.1-0.1-0.1-0.1c0,0,0,0,0,0c0,0-0.1-0.1-0.1-0.1c0,0,0,0,0,0c0,0-0.1-0.1-0.1-0.1c0,0,0,0,0,0
		c0,0-0.1-0.1-0.1-0.1c0,0,0,0,0,0c0,0-0.1-0.1-0.1-0.1c0,0,0,0,0,0c0,0-0.1-0.1-0.1-0.1c0,0,0,0,0,0c0,0-0.1-0.1-0.1-0.1
		c0,0,0,0,0,0c-0.2-0.1-0.3-0.2-0.5-0.4c0,0,0,0,0,0c-0.1,0-0.1-0.1-0.2-0.1c0,0,0,0-0.1,0c0,0-0.1-0.1-0.1-0.1c0,0,0,0,0,0
		c-0.1,0-0.1-0.1-0.2-0.1c0,0,0,0,0,0c-0.1,0-0.1-0.1-0.2-0.1c0,0,0,0-0.1-0.1c0,0-0.1-0.1-0.1-0.1c0,0,0,0,0,0
		c-0.1,0-0.1-0.1-0.2-0.1c0,0,0,0,0,0c0,0-0.1-0.1-0.1-0.1c0,0-0.1,0-0.1-0.1c0,0-0.1,0-0.1-0.1c0,0,0,0,0,0c0,0-0.1-0.1-0.1-0.1
		c0,0,0,0,0,0c0,0-0.1,0-0.1-0.1c0,0-0.1,0-0.1-0.1c0,0,0,0-0.1,0c0,0,0,0-0.1,0c0,0,0,0-0.1,0c0,0,0,0,0,0c0,0-0.1-0.1-0.1-0.1
		c0,0-0.1-0.1-0.1-0.1c0,0,0,0-0.1,0c0,0,0,0,0,0c0,0,0,0,0,0c0,0,0,0,0,0c0,0-0.1,0-0.1-0.1c0,0,0,0,0,0c0,0-0.1,0-0.1-0.1
		c0,0,0,0,0,0c0,0,0,0,0,0c0,0,0,0,0,0c0,0,0,0-0.1,0c0,0,0,0,0,0c0,0,0,0-0.1,0c0,0,0,0,0,0c0,0,0,0,0,0c0,0,0,0,0,0c0,0,0,0,0,0
		c-0.1,0-0.1-0.1-0.2-0.1c0,0,0,0,0,0c0,0,0,0,0,0c0,0,0,0,0,0c0,0,0,0,0,0c0,0,0,0,0,0C3.5,15.5,5.1,13.4,7.1,11.5 M62.9,58.3
		L62.9,58.3 M7.1,11.1c-0.1,0-0.2,0-0.3,0.1c-1.9,1.9-3.6,4-5.2,6.3c-0.1,0.1-0.1,0.2-0.1,0.3c0,0.2,0.1,0.3,0.2,0.4l0.2,0.1
		c0,0,0.1,0.1,0.1,0.1c0,0,0.1,0,0.1,0l0,0l0.1,0l0.1,0l0.1,0l0.1,0l0.1,0.1l0.3-0.3l-0.3,0.4l0.1,0l0.1,0L2.8,19l0.1,0.1l0.3-0.4
		L3,19.1l0.1,0l0,0l0.1,0.1l0.1,0.1l0.1,0.1l0,0l0,0l0.1,0.1l0.1,0.1l0.1,0.1l0.1,0.1L4,19.8l0.1,0.1l0.1,0l0.2,0.1l0.2,0.2l0.1,0.1
		l0.1,0L5,20.5l0.5,0.4L5.6,21l0.1,0.1l0.1,0.1L6,21.3l0.1,0.1l0.1,0.1l0.3-0.3l-0.3,0.4l0.1,0.1l0.4-0.3l-0.3,0.4l0.1,0.1l0,0
		l0.1,0.1l0.3-0.3l-0.3,0.4L6.9,22l0.3-0.3L6.9,22L7,22.1l0.1,0l0.1,0.1l0.1,0l0.1,0.1l0.2,0.2l0.1,0.1c0.2,0.2,0.5,0.4,0.7,0.5
		l0.1,0.1l0.1,0l0.1,0.1l0.1,0.1l0.1,0.1l0.1,0.1l0.1,0l0.4,0.3l0.2,0.1l0.2,0.1l0.1,0l0.1,0.1l0.1,0.1l0.1,0.1l0.2,0.1l0.1,0.1
		l0.1,0.1l0.1,0.1l0.1,0.1l0.1,0.1l0.1,0l0.2,0.1c0.8,0.7,1.4,1.3,1.9,2l0.1,0.1l0.1,0.1l0.1,0.1l0,0.1l0.1,0.1l0.1,0.1l0.1,0.2
		l0,0.1c0,0.1,0.1,0.1,0.1,0.2l0.1,0.2l0,0.1l0.1,0.2l0,0.1c0,0.1,0.1,0.1,0.1,0.2l0.1,0.2l0,0.1l0.1,0.2c0,0.1,0.1,0.2,0.1,0.3
		l0,0.2l0,0.1l0.1,0.2c0,0,0,0,0,0l0,0.1l0,0.2l0,0.2l0,0.1l0,0.1c0.1,0.7,0.2,1.4,0.1,2.1l0,0.1l0,0.2l0,0.1l0,0.1l0,0.2l0,0.2
		l0,0.1c0,0.2-0.1,0.4-0.1,0.7c0,0.1,0,0.2-0.1,0.3c0,0.1,0,0.2-0.1,0.3c0,0.2-0.1,0.4-0.1,0.6L14,36.4l0,0.1l-0.1,0.3l0,0.1
		L13.8,37l0,0.1l-0.1,0.2l0,0.1l-0.1,0.2l0,0.1L13.5,38l0,0.1l-0.1,0.2l-0.1,0.2l-0.1,0.2l-0.1,0.2l-0.1,0.1l-0.1,0.2l0,0.1L13,39.4
		l0,0.1l-0.1,0.2l0,0.1l-0.1,0.2l0,0.1l-0.1,0.2c-0.2,0.5-0.4,1.1-0.7,1.6l-0.1,0.3l-0.1,0.3L11.5,43l-0.1,0.3l-0.1,0.3l0,0.1
		l-0.1,0.2l-0.2,0.4l-0.1,0.2l-0.2,0.5l0,0.1c-0.3,0.6-0.5,1.2-0.8,1.9c-0.3,0.8-0.6,1.6-0.8,2.4c-0.3,1-0.5,2-0.6,3.1l0,0.1l0,0.3
		c-0.1,0.9-0.1,1.9,0,2.8l0,0.1l0,0.1c0,0.1,0,0.2,0,0.3l0,0.2l0,0.2l0,0.2l0,0.1c0.3,1.5,0.8,2.8,1.7,4.1l0.1,0.1
		c0,0.1,0.1,0.1,0.1,0.2l0.1,0.1c0,0.1,0.1,0.1,0.1,0.2l0.1,0.1c0.1,0.1,0.1,0.1,0.2,0.2l0.1,0.1c0.1,0.1,0.1,0.1,0.2,0.2l0.1,0.1
		c0.5,0.6,1.1,1.1,1.7,1.6c0.7,0.6,1.4,1,2.2,1.4c0.4,0.2,0.8,0.4,1.3,0.5c0.6,0.2,1.3,0.4,1.9,0.5c0.7,0.1,1.3,0.3,2,0.3l0.1,0
		l0.1,0l0.2,0l0.1,0l0.1,0l0.4,0l0.2,0l0.1,0c0.2,0,0.4,0,0.6,0.1l0.1,0l0.4,0l0.2,0l0.3,0l0.4,0l0.5,0l0.1,0l0.3,0l0.3,0l0.7,0
		l0.7,0l0.1,0l0.5,0l0.5,0l0.3,0l0.2,0l0.2,0c0.1,0,0.2,0,0.4,0l0.6,0l0.1,0l0.6,0l0.1,0l0.6,0l0.1,0l0.6,0l0.1,0l0.6,0l0.1,0l0.2,0
		l0.1,0l0.2,0l0.1,0l0.2,0l0.1,0l0.2,0l0.2,0l0.2,0l0.2,0l0.2,0l0.2,0l0.2,0l0.2,0l0.1,0l0.2,0l0.1,0l0.2,0l0.1,0l0.2,0l0.1,0l0.2,0
		l0.1,0l0.1,0l0.2,0l0.1,0l0.6,0l0.1,0l0.1,0l0.1,0c0,0,0.1,0,0.1,0l0.3,0l1.1,0l0.9,0l0.2,0l0.1,0l0.2,0l0.1,0l0.1-0.5l0,0.5l0.2,0
		l0.1,0l0.1-0.5l0,0.5l0.2,0l0.1,0c0,0,0.1,0,0.1,0l0.1,0l0.1,0l0.1,0l0.1,0l0.1,0l0.1,0l0.1,0l0.1,0l0.1,0l0.1,0l0.1,0l0.1,0l0.1,0
		l0.1,0l0.1,0l0.1,0l0.1,0l0.1,0l0.1,0l0.1,0l0.1,0l0.1,0l0.1,0l0.1,0l0.1,0l0.1,0l0.1,0l0.1,0l0.1,0l0.2,0l0.1,0l0.1,0l0.2,0l0.1,0
		l0.2,0l0.1,0l0.2,0c0,0,0.1,0,0.1,0l0.3,0l2.1,0l0.2,0l0.1,0l0.2,0l0.1,0l0.2,0l0.1,0l0.2,0l0.1,0l0.2,0l0.1,0l0.1,0l0.1,0l0.1,0
		l0.1,0l1.2,0l0.1,0l0.1,0l0.1,0l0.1,0l0.1,0l0.1,0l0.1,0l0.3,0l0.2,0l0.1,0l0.1,0l0.1,0l0.2,0l0.1,0l0.2,0l0.3,0l0.2,0l0.1,0l0.1,0
		l0.1,0l0.1,0c0,0,0.1,0,0.1,0l0.1,0l0.1,0l0.1,0l0.2,0l0.2,0l0.1-0.5l0,0.5l0.1,0l0.1,0l0.1,0l0.1,0l0.1-0.5l0,0.5l0.1,0l0.1,0
		l0.5,0l2.3,0l0.1,0l0.1,0c0,0,0.1,0,0.1,0c0,0,0.1,0,0.1,0l0.1-0.5l0,0.5l0.2,0c0,0,0.1,0,0.1,0c0,0,0.1,0,0.1,0
		c0.1,0,0.3-0.1,0.4-0.2c2.2-2.8,4-5.5,5.5-8.1c0.1-0.1,0.1-0.2,0.1-0.3c0-0.3-0.2-0.5-0.5-0.5h0c0,0,0,0,0,0c0,0,0,0,0,0h0
		c0,0,0,0,0,0C56,57.9,49,58,42,58c-1.2,0-2.4,0-3.6,0c-4.1,0-8.2-0.1-12.2-0.3c-2.7-0.1-4.7-0.4-6-0.6c-0.9-0.2-1.7-0.7-2.2-1.5
		c-0.5-0.8-0.7-1.6-0.5-2.6c0.3-1.7,1.1-3.7,1.8-5.3l0.2-0.4c0.8-1.9,1.6-3.8,2.3-5.7c1.6-4.6,2.1-8.5,1.5-12.3
		c-0.7-4.1-2.8-7.7-6.1-10.7c-0.9-0.8-3.4-2.8-4.4-3.6c-1.8-1.5-3.6-2.7-5.3-3.9C7.3,11.1,7.2,11.1,7.1,11.1L7.1,11.1z"/>
</g>
<g>
	<path fill="#010101" d="M31.2,2.4c6.4,0,12.7,1.4,18.5,4.1c0,0,0,0,0,0c0,0,0,0,0,0c4.6,2.1,8.6,5.3,11.7,9.3
		c3.1,3.9,5.4,8.5,6.6,13.4c1.2,5,1,10,0,15c-1,5-2.7,9.6-5.2,14.1c-7,0.1-13.9,0.2-20.9,0.2c-1.2,0-2.4,0-3.6,0
		c-4.1,0-8.2-0.1-12.3-0.3c-1.8-0.1-4.4-0.3-6.1-0.6c-1-0.2-1.9-0.8-2.5-1.7c-0.6-0.9-0.7-1.9-0.6-2.9c0.3-1.8,1.3-4.1,2-5.8
		c0.8-1.9,1.6-3.7,2.3-5.7c1.4-3.8,2.2-7.9,1.4-12c-0.7-4.2-2.9-7.7-6-10.4c-0.9-0.8-3.4-2.8-4.4-3.6c-1.7-1.4-3.5-2.7-5.3-3.9
		c2.8-2.7,5.8-4.8,9.4-6.3c3.5-1.5,7.3-2.3,11-2.6C28.7,2.5,30,2.4,31.2,2.4 M31.2,1.9c-1.2,0-2.5,0.1-3.7,0.2
		c-4,0.3-7.8,1.2-11.2,2.7c-3.6,1.5-6.6,3.6-9.5,6.4c-0.1,0.1-0.2,0.2-0.1,0.4c0,0.1,0.1,0.3,0.2,0.3c1.7,1.2,3.5,2.5,5.3,3.9
		c1,0.8,3.5,2.8,4.4,3.6c3.2,2.8,5.1,6.2,5.8,10.2c0.6,3.5,0.1,7.4-1.4,11.8c-0.7,1.9-1.5,3.8-2.3,5.6l-0.2,0.4
		c-0.7,1.7-1.6,3.7-1.9,5.5c-0.2,1.2,0,2.3,0.7,3.3c0.6,1,1.6,1.6,2.8,1.9c1.4,0.3,3.4,0.5,6.2,0.6c4.1,0.2,8.1,0.2,12.3,0.3
		c1.2,0,2.4,0,3.6,0c7.1,0,14.1-0.1,20.9-0.2c0.2,0,0.3-0.1,0.4-0.2c2.5-4.5,4.3-9.2,5.2-14.2c1.1-5.5,1.1-10.5,0-15.2
		c-1.1-4.8-3.4-9.6-6.7-13.6c-3.3-4.1-7.3-7.3-11.8-9.4c0,0-0.1,0-0.1-0.1C44,3.4,37.6,1.9,31.2,1.9L31.2,1.9z"/>
</g>
<g>
	<path fill="#010101" d="M38.9,4.6c0.1,0,0.1,0,0.2,0c0.4,0.1,0.8,0.2,1.2,0.2c0.4,0.1,0.8,0.2,1.2,0.3c0.8,0.2,1.6,0.4,2.4,0.7
		c0.8,0.2,1.6,0.5,2.4,0.8c0.8,0.3,1.5,0.6,2.3,0.9c0,0,0.1,0,0.1,0.1c0,0,0.1,0.1,0.1,0.1c0,0,0.1,0,0.1,0.1c0,0,0,0,0,0.1
		c0,0,0,0,0,0c0,0,0,0,0,0c0,0,0,0-0.1,0c0,0,0,0,0,0c-0.1,0-0.2,0-0.3-0.1c-0.4-0.2-0.7-0.3-1.1-0.5C47,7.2,46.6,7,46.2,6.9
		c-0.8-0.3-1.6-0.6-2.4-0.8c-1.6-0.5-3.2-0.9-4.8-1.2c0,0-0.1,0-0.1,0c0,0-0.1,0-0.1-0.1c0,0-0.1,0-0.1-0.1c0,0,0,0,0,0c0,0,0,0,0,0
		c0,0,0,0,0,0C38.7,4.6,38.8,4.6,38.9,4.6C38.8,4.6,38.9,4.6,38.9,4.6 M38.9,4.1c0,0-0.1,0-0.1,0c-0.1,0-0.2,0-0.3,0.1
		c-0.2,0.1-0.3,0.2-0.3,0.4c0,0.1,0,0.2,0,0.3c0,0.1,0.1,0.1,0.1,0.2c0.1,0,0.1,0.1,0.2,0.1c0.1,0,0.1,0.1,0.2,0.1
		c0.1,0,0.1,0,0.2,0c1.6,0.3,3.2,0.7,4.8,1.2c0.8,0.2,1.6,0.5,2.3,0.8c0.4,0.1,0.8,0.3,1.1,0.4c0.4,0.1,0.7,0.3,1.1,0.5
		c0.1,0,0.3,0.1,0.4,0.1c0,0,0.1,0,0.1,0c0.1,0,0.1,0,0.2,0c0.1,0,0.2-0.1,0.2-0.1c0.1-0.1,0.1-0.1,0.2-0.2c0-0.1,0.1-0.3,0-0.5
		c-0.1-0.1-0.1-0.2-0.2-0.2c-0.1,0-0.1-0.1-0.2-0.1c-0.1,0-0.1-0.1-0.2-0.1c-0.7-0.3-1.5-0.6-2.3-0.9c-0.8-0.3-1.6-0.6-2.4-0.8
		c-0.8-0.2-1.6-0.5-2.4-0.7c-0.4-0.1-0.8-0.2-1.3-0.3c-0.4-0.1-0.8-0.2-1.2-0.2C39.1,4.1,39,4.1,38.9,4.1L38.9,4.1z"/>
</g>
<g>
	<path fill="#010101" d="M24,4.6C24,4.6,24.1,4.6,24,4.6c0.2,0,0.3,0.1,0.2,0.2c-0.1,0.1-0.2,0.1-0.3,0.1c-1.8,0.4-3.5,0.8-5.2,1.5
		c-0.8,0.3-1.7,0.7-2.5,1.1c-0.5,0.2-0.9,0.5-1.4,0.7c-0.1,0-0.3,0.2-0.5,0.2c0,0-0.1,0-0.1,0c0,0,0-0.1,0.1-0.2
		c0.1-0.1,0.2-0.2,0.3-0.2C15,7.7,16.5,7,17,6.8c0.8-0.4,1.7-0.7,2.5-1c0.9-0.3,1.7-0.5,2.6-0.8c0.4-0.1,0.9-0.2,1.3-0.3
		C23.6,4.7,23.8,4.6,24,4.6 M24,4.2c-0.2,0-0.4,0-0.6,0.1l-0.1,0c-0.4,0.1-0.9,0.2-1.3,0.3c-0.9,0.2-1.8,0.5-2.6,0.8
		c-0.9,0.3-1.7,0.6-2.6,1c-0.5,0.2-2,0.9-2.5,1.3c-0.1,0.1-0.2,0.2-0.4,0.3c-0.3,0.3-0.2,0.6,0,0.8c0.1,0.1,0.3,0.2,0.4,0.2
		c0.2,0,0.4-0.1,0.7-0.3c0.5-0.3,0.9-0.5,1.4-0.7c0.8-0.4,1.6-0.7,2.4-1.1c1.6-0.6,3.3-1.1,5.1-1.5c0.1,0,0.3-0.1,0.5-0.2
		c0.3-0.2,0.3-0.4,0.3-0.6C24.6,4.3,24.4,4.2,24,4.2C24.1,4.2,24.1,4.2,24,4.2L24,4.2z"/>
</g>
<g>
	<path fill="#010101" d="M67,40.2C67,40.2,67,40.3,67,40.2c0.2,0.2,0.1,0.5,0.1,0.7c-0.1,0.5-0.1,1-0.2,1.5
		c-0.1,0.9-0.3,1.8-0.5,2.7c-0.4,1.8-0.9,3.5-1.5,5.2c0,0.1-0.1,0.2-0.2,0.3c0,0-0.1,0.1-0.1,0.1c0,0,0,0,0,0
		c-0.1-0.1,0.1-0.5,0.1-0.6c0.2-0.5,0.3-1,0.5-1.5c0.3-0.9,0.5-1.7,0.7-2.6c0.4-1.8,0.8-3.5,1-5.3C66.8,40.5,66.9,40.4,67,40.2
		C66.9,40.3,67,40.2,67,40.2 M67,39.8c-0.2,0-0.4,0.1-0.5,0.3c-0.1,0.2-0.1,0.4-0.2,0.5c-0.2,1.8-0.5,3.5-1,5.3
		c-0.2,0.9-0.5,1.7-0.7,2.6c-0.2,0.5-0.3,1-0.5,1.5c-0.1,0.3-0.3,0.9,0.1,1.1c0.1,0,0.2,0.1,0.3,0.1c0.1,0,0.3,0,0.5-0.3
		c0.1-0.2,0.2-0.3,0.2-0.4c0.6-1.6,1.1-3.3,1.5-5.3c0.2-0.9,0.4-1.8,0.5-2.7c0.1-0.5,0.2-1,0.2-1.6l0-0.1c0-0.3,0.1-0.7-0.2-1
		C67.3,39.8,67.1,39.8,67,39.8L67,39.8z"/>
</g>
<g>
	<path fill="#010101" d="M60.2,16.7C60.3,16.7,60.3,16.7,60.2,16.7c0.2,0.1,0.3,0.2,0.3,0.3c1.1,1.4,2.1,2.9,3,4.5
		c0.4,0.8,0.8,1.6,1.2,2.4c0.2,0.5,0.4,1,0.6,1.5c0,0.1,0.2,0.5,0.1,0.6c0,0,0,0,0,0c0,0-0.1,0-0.1,0c-0.1-0.1-0.1-0.2-0.2-0.3
		c-0.2-0.4-0.3-0.9-0.5-1.3c-0.2-0.4-0.4-0.8-0.5-1.2c-0.4-0.8-0.8-1.6-1.3-2.4c-0.5-0.8-0.9-1.5-1.5-2.3c-0.3-0.4-0.5-0.7-0.8-1.1
		c-0.1-0.2-0.3-0.3-0.4-0.5C60.2,16.9,60.2,16.8,60.2,16.7C60.2,16.7,60.2,16.7,60.2,16.7 M60.2,16.2c-0.1,0-0.3,0.1-0.4,0.2
		c-0.1,0.1-0.2,0.3-0.1,0.4c0,0.2,0.1,0.3,0.1,0.3c0.1,0.2,0.2,0.3,0.3,0.5c0,0,0.1,0.1,0.1,0.1c0.3,0.3,0.5,0.7,0.8,1
		c0.5,0.7,1,1.5,1.4,2.2c0.4,0.8,0.9,1.6,1.2,2.4c0.2,0.4,0.4,0.8,0.5,1.2c0.1,0.2,0.2,0.5,0.3,0.7c0.1,0.2,0.1,0.3,0.2,0.5
		c0.1,0.1,0.1,0.3,0.3,0.4c0.1,0.1,0.2,0.2,0.4,0.2c0.2,0,0.4-0.1,0.5-0.3c0.2-0.3,0-0.7-0.1-1l0-0.1c-0.2-0.5-0.4-1-0.6-1.5
		c-0.4-0.8-0.8-1.7-1.2-2.5c-0.9-1.6-1.9-3.1-3-4.6c-0.1-0.1-0.2-0.3-0.4-0.4C60.4,16.2,60.3,16.2,60.2,16.2L60.2,16.2z"/>
</g>
<g>
	<path d="M39.6,67.8c-2.5,0-4.9,0-7.4,0c-3.5-0.1-8.6-0.2-12.3-0.7c-2.2-0.3-4.1-0.7-5.9-1.7c-1.8-1-3.4-2.5-4.5-4.2
		c-2.7-4.1-2.1-8.8-1.2-12c0.5-1.9,1.3-3.7,2.1-5.4l0.3-0.6c0.8-1.7,1.6-3.6,2.1-5.4c1.1-3.5,1.8-7.6-1.8-11.1
		c-0.5-0.5-1-0.9-1.5-1.3L9,25c-0.7-0.6-1.4-1.2-2.1-1.7c-1.8-1.4-3.6-2.7-5.6-4.1C1.2,19.1,1.1,19,1,18.9c-0.3-0.6,0.2-1.3,0.4-1.5
		c0.4-0.4,0.7-0.7,1.2-0.9c0,0,0.1,0,0.1,0c0,0,0.1,0,0.1,0c0.8,0.6,1.7,1.2,2.5,1.8c0.9,0.6,1.7,1.3,2.6,2c1.5,1.1,2.9,2.3,4,3.2
		l0.2,0.2c0.1,0.1,0.3,0.2,0.4,0.3c0.1,0.1,0.2,0.2,0.3,0.3c0.1,0.1,0.2,0.2,0.3,0.3c0.4,0.4,0.7,0.8,1.1,1.2
		c0.3,0.4,0.6,0.9,0.9,1.4c0.3,0.4,0.5,0.9,0.7,1.4c0.1,0.2,0.2,0.5,0.3,0.7c0.1,0.3,0.2,0.5,0.2,0.8c0.3,1.1,0.4,2.2,0.3,3.4
		c0,1.2-0.2,2.4-0.6,3.8c-0.3,1.1-0.7,2.3-1.2,3.7c-0.3,0.7-0.5,1.3-0.8,2c-0.3,0.6-0.5,1.2-0.8,1.9L12.6,46
		c-0.2,0.4-0.3,0.8-0.5,1.2c-0.2,0.6-0.5,1.3-0.8,2.1c-0.3,0.7-0.5,1.4-0.6,2.1c-0.1,0.7-0.3,1.3-0.3,2c-0.1,0.8-0.1,1.6,0,2.4
		c0.1,0.8,0.3,1.5,0.6,2.3c0.3,0.7,0.6,1.3,1,1.9c0.4,0.6,0.9,1.2,1.5,1.7c0.3,0.2,0.5,0.4,0.8,0.7c0.3,0.2,0.6,0.4,0.9,0.6
		c0.6,0.3,1.2,0.6,1.9,0.8c0.4,0.1,0.8,0.2,1.2,0.3c0.5,0.1,1,0.2,1.4,0.3c1.1,0.2,2.2,0.3,3.6,0.4c1.4,0.1,2.9,0.2,4.8,0.3
		c1.9,0.1,4,0.1,6.5,0.2c2.8,0,5.7,0.1,8.5,0.1c5,0,10,0,15,0c0.1,0,0.2,0.1,0.2,0.2c0,0.5-0.1,0.9-0.4,1.4
		c-0.1,0.2-0.6,0.9-1.3,0.9C51,67.8,45.3,67.8,39.6,67.8C39.6,67.8,39.6,67.8,39.6,67.8z"/>
	<g>
		<path fill="#FFFFFF" d="M2.7,16.7c0.8,0.6,1.7,1.2,2.5,1.8c0.9,0.6,1.7,1.3,2.6,1.9c1.3,1,2.6,2.1,3.9,3.2
			c0.1,0.1,0.1,0.1,0.2,0.2c0.1,0.1,0.3,0.2,0.4,0.3c0.1,0.1,0.2,0.2,0.3,0.3c0.1,0.1,0.2,0.2,0.3,0.3c0.4,0.4,0.7,0.8,1,1.2
			c0.3,0.4,0.6,0.9,0.9,1.3c0.2,0.4,0.5,0.9,0.6,1.3c0.1,0.2,0.2,0.5,0.3,0.7c0.1,0.2,0.2,0.5,0.2,0.8c0.3,1.1,0.4,2.2,0.3,3.3
			c0,1.3-0.3,2.5-0.6,3.8c-0.3,1.3-0.7,2.5-1.2,3.7c-0.3,0.7-0.5,1.3-0.8,1.9c-0.4,1-0.9,2.1-1.4,3.1c-0.2,0.4-0.3,0.8-0.5,1.2
			c-0.3,0.7-0.6,1.4-0.8,2.1c-0.2,0.7-0.4,1.4-0.6,2.1c-0.1,0.7-0.3,1.3-0.3,2c-0.1,0.8-0.1,1.6,0,2.5c0.1,0.8,0.3,1.6,0.6,2.3
			c0.3,0.7,0.6,1.4,1.1,2c0.4,0.6,1,1.2,1.5,1.7c0.3,0.2,0.6,0.5,0.8,0.7c0.3,0.2,0.6,0.4,0.9,0.6c0.6,0.3,1.2,0.6,1.9,0.8
			c0.4,0.1,0.8,0.2,1.2,0.3c0.5,0.1,1,0.2,1.5,0.3c1.2,0.2,2.4,0.3,3.7,0.4c1.6,0.1,3.2,0.2,4.8,0.3c2.2,0.1,4.3,0.1,6.5,0.2
			c2.8,0,5.7,0.1,8.5,0.1c5,0,10,0,15,0c0,0.5-0.1,0.9-0.4,1.3c-0.2,0.3-0.6,0.8-1,0.8c-5.7,0.1-11.4,0.2-17.1,0.2
			c-2.5,0-4.9,0-7.4-0.1c-3.6-0.1-8.7-0.2-12.2-0.7c-2.1-0.3-4-0.7-5.9-1.7c-1.8-1-3.4-2.4-4.5-4.1c-2.3-3.6-2.3-7.9-1.2-11.8
			c0.6-2,1.4-3.8,2.2-5.7c0.8-1.9,1.6-3.7,2.3-5.7c1.3-4.1,1.6-8-1.9-11.4c-0.6-0.6-1.3-1.1-1.9-1.7c-0.7-0.6-1.4-1.2-2.2-1.7
			c-1.8-1.4-3.7-2.8-5.6-4.1c-0.1-0.1-0.2-0.1-0.2-0.3c-0.2-0.4,0.1-1,0.4-1.3C1.9,17.1,2.2,16.8,2.7,16.7 M2.7,16.2
			c-0.1,0-0.1,0-0.2,0c-0.5,0.2-1,0.5-1.4,0.9c-0.2,0.2-0.8,1-0.4,1.8c0.1,0.2,0.2,0.4,0.4,0.5c2,1.4,3.8,2.7,5.5,4.1
			c0.7,0.6,1.4,1.1,2.1,1.7l0.4,0.3c0.5,0.4,1,0.8,1.5,1.3c2.8,2.7,3.3,6,1.8,10.9c-0.6,1.8-1.4,3.6-2.1,5.4l-0.1,0.3l-0.1,0.3
			c-0.8,1.7-1.6,3.6-2.1,5.4C6.7,53.8,7.1,58,9.3,61.4c1.1,1.8,2.8,3.3,4.6,4.3c1.9,1,3.8,1.4,6,1.7c3.6,0.5,8.8,0.6,12.3,0.7
			c2.4,0,4.8,0.1,7.4,0.1c5.7,0,11.4-0.1,17.1-0.2c0.8,0,1.3-0.8,1.5-1c0.3-0.5,0.5-1,0.4-1.6c0-0.3-0.2-0.5-0.5-0.5c-5,0-10,0-15,0
			c-2.7,0-5.6,0-8.5-0.1c-2.5,0-4.6-0.1-6.5-0.2c-1.9-0.1-3.4-0.2-4.8-0.3c-1.4-0.1-2.6-0.2-3.6-0.4c-0.5-0.1-1-0.2-1.4-0.3
			c-0.4-0.1-0.8-0.2-1.1-0.3c-0.7-0.2-1.3-0.5-1.8-0.8c-0.3-0.2-0.6-0.3-0.9-0.5c-0.3-0.2-0.6-0.4-0.8-0.6c-0.6-0.5-1.1-1-1.5-1.6
			c-0.4-0.6-0.8-1.2-1-1.9c-0.3-0.7-0.4-1.4-0.5-2.2c-0.1-0.7-0.1-1.5,0-2.4c0.1-0.6,0.2-1.3,0.3-1.9c0.1-0.7,0.3-1.4,0.6-2.1
			c0.3-0.8,0.6-1.5,0.8-2.1c0.2-0.4,0.3-0.8,0.5-1.2c0.2-0.4,0.4-0.9,0.6-1.3c0.3-0.6,0.5-1.2,0.8-1.8c0.3-0.7,0.6-1.4,0.8-2
			c0.5-1.4,0.9-2.6,1.2-3.8c0.3-1.4,0.5-2.6,0.6-3.9c0-1.2-0.1-2.4-0.3-3.5c-0.1-0.3-0.1-0.5-0.2-0.8c-0.1-0.3-0.2-0.5-0.3-0.8
			c-0.2-0.5-0.4-1-0.7-1.4c-0.3-0.5-0.6-0.9-0.9-1.4c-0.3-0.4-0.7-0.8-1.1-1.2c-0.1-0.1-0.2-0.2-0.3-0.3c-0.1-0.1-0.2-0.2-0.3-0.3
			c-0.1-0.1-0.3-0.2-0.4-0.4l-0.2-0.2c-1.1-0.9-2.5-2.1-4-3.2c-0.9-0.7-1.8-1.3-2.6-2c-0.8-0.6-1.7-1.2-2.5-1.8
			C2.9,16.2,2.8,16.2,2.7,16.2L2.7,16.2z"/>
	</g>
</g>
</svg>
