<?xml version="1.0" encoding="utf-8"?>
<!-- Generator: Adobe Illustrator 23.0.0, SVG Export Plug-In . SVG Version: 6.00 Build 0)  -->
<svg version="1.1" id="Calque_1" xmlns="http://www.w3.org/2000/svg" xmlns:xlink="http://www.w3.org/1999/xlink" x="0px" y="0px"
	 viewBox="0 0 70 70" enable-background="new 0 0 70 70" xml:space="preserve">
<g>
	<path fill="#010101" d="M31.2,2.4c6.4,0,12.8,1.4,18.5,4.1c0,0,0,0,0,0c0,0,0,0,0,0C55.2,9,59.7,13,63,18
		c3.3,4.9,5.4,10.6,5.7,16.6c-18,0-36,0-54,0c0.3-1.9,0.2-3.7-0.5-5.5c-0.7-1.8-1.9-3.1-3.4-4.4C8,22.2,5.1,19.9,2,17.8
		c2.4-3.7,5.5-7.1,9.2-9.7c3.7-2.6,7.9-4.2,12.3-5C26,2.6,28.6,2.4,31.2,2.4 M31.2,1.9L31.2,1.9c-2.6,0-5.2,0.2-7.8,0.7
		c-4.8,0.9-8.9,2.6-12.5,5.1c-3.6,2.5-6.7,5.8-9.3,9.8c-0.1,0.2-0.1,0.5,0.1,0.6c2.7,1.8,5.5,4,8.9,6.8c1.7,1.4,2.6,2.6,3.3,4.2
		c0.6,1.6,0.8,3.3,0.5,5.3c0,0.1,0,0.3,0.1,0.4c0.1,0.1,0.2,0.2,0.4,0.2l54,0c0.1,0,0.3-0.1,0.3-0.1c0.1-0.1,0.1-0.2,0.1-0.4
		c-0.3-5.9-2.3-11.7-5.8-16.8C60,12.6,55.3,8.6,50,6.1c0,0-0.1,0-0.1-0.1C44,3.4,37.6,1.9,31.2,1.9L31.2,1.9z"/>
</g>
<g>
	<path fill="#010101" d="M14.6,36.1c-0.1,0-0.1,0-0.2-0.1c0-0.1-0.1-0.1,0-0.2c0.1-0.4,0.2-0.9,0.2-1.3c0-0.1,0.1-0.2,0.2-0.2h54
		c0.1,0,0.2,0.1,0.2,0.2c0,0.5,0,0.9,0,1.4c0,0.1,0,0.1-0.1,0.2c0,0-0.1,0.1-0.2,0.1H14.6z"/>
	<path fill="#010101" d="M68.8,34.5c0,0.4,0,0.9,0,1.3c-18.1,0-36.2,0-54.3,0c0.1-0.4,0.2-0.9,0.2-1.3
		C32.8,34.5,50.8,34.5,68.8,34.5 M68.8,34l-54,0c-0.2,0-0.4,0.2-0.5,0.4c-0.1,0.4-0.1,0.9-0.2,1.3c0,0.1,0,0.3,0.1,0.4
		s0.2,0.2,0.4,0.2h54.3c0.1,0,0.2-0.1,0.3-0.1s0.1-0.2,0.1-0.3c0-0.5,0-0.9,0-1.4C69.2,34.2,69,34,68.8,34L68.8,34z"/>
</g>
<g>
	<path fill="#010101" d="M68.8,35.9c0,0.9,0,1.8-0.1,2.7c-18.3,0-36.6,0-55,0c0.3-0.9,0.6-1.8,0.8-2.7
		C32.7,35.9,50.7,35.9,68.8,35.9 M68.8,35.4l-54.3,0c-0.2,0-0.4,0.2-0.5,0.4c-0.2,0.9-0.5,1.8-0.8,2.6c-0.1,0.1,0,0.3,0.1,0.4
		c0.1,0.1,0.2,0.2,0.4,0.2l55,0c0.3,0,0.5-0.2,0.5-0.4c0.1-0.9,0.1-1.8,0.1-2.7C69.3,35.6,69.1,35.4,68.8,35.4L68.8,35.4z"/>
</g>
<path fill="none" stroke="#010101" stroke-width="0.4734" stroke-linecap="round" stroke-linejoin="round" d="M68.8,35.9
	c0,0.9,0,1.8-0.1,2.7"/>
<path fill="none" stroke="#010101" stroke-width="0.4734" stroke-linecap="round" stroke-linejoin="round" d="M14.6,35.9
	c0.1-0.4,0.2-0.9,0.2-1.3c0.4-2.6,0-5-1.4-7.2c-0.7-1.1-1.6-1.9-2.6-2.7c-1-0.8-1.9-1.6-2.9-2.4c-0.8-0.6-1.6-1.2-2.4-1.8
	c-1.1-0.9-2.3-1.7-3.5-2.5c2.4-3.7,5.5-7.1,9.2-9.7c3.7-2.6,7.9-4.2,12.3-5c8.8-1.7,18.1-0.4,26.2,3.4c0,0,0,0,0.1,0l0,0
	c5.6,2.6,10.3,6.8,13.7,12c3.4,5.2,5.3,11.1,5.4,17.3"/>
<g>
	<path fill="#010101" d="M12.8,41.2c18.6,0,37.2,0,55.8,0c-0.1,0.9-0.3,1.8-0.4,2.7c-18.8,0-37.7,0-56.5,0
		C12,43,12.4,42.1,12.8,41.2 M12.8,40.7c-0.2,0-0.4,0.1-0.4,0.3c-0.4,0.9-0.8,1.8-1.2,2.7c-0.1,0.1-0.1,0.3,0,0.4s0.2,0.2,0.4,0.2
		l56.5,0c0.2,0,0.4-0.2,0.5-0.4c0.2-0.9,0.3-1.8,0.4-2.7c0-0.1,0-0.3-0.1-0.4c-0.1-0.1-0.2-0.2-0.4-0.2l-27.9,0L12.8,40.7L12.8,40.7
		z"/>
</g>
<g>
	<path fill="#010101" d="M10,47.9c19.1,0,38.1,0,57.2,0c-0.3,0.9-0.5,1.8-0.8,2.7c-19,0-38.1,0-57.1,0C9.4,49.7,9.6,48.8,10,47.9
		 M10,47.5c-0.2,0-0.4,0.1-0.4,0.3c-0.3,0.9-0.6,1.8-0.8,2.7c0,0.1,0,0.3,0.1,0.4C8.9,51,9,51.1,9.2,51.1l28.6,0l28.6,0
		c0.2,0,0.4-0.1,0.4-0.3c0.3-0.9,0.6-1.8,0.9-2.7c0-0.1,0-0.3-0.1-0.4c-0.1-0.1-0.2-0.2-0.4-0.2l-45.8,0L10,47.5L10,47.5z"/>
</g>
<g>
	<path fill="#010101" d="M8.9,56.2c-0.1,0-0.2-0.1-0.2-0.2c0,0-0.1-0.6-0.1-0.6c-0.1-1-0.1-1.9,0-2.9l0-0.3c0.1-0.5,0.2-1.1,0.3-1.6
		c0-0.1,0.1-0.2,0.2-0.2h57.1c0.1,0,0.1,0,0.2,0.1c0,0.1,0.1,0.1,0,0.2c-0.6,1.8-1.4,3.7-2.3,5.4c0,0.1-0.1,0.1-0.2,0.1H8.9z"/>
	<path fill="#010101" d="M9.2,50.6c19,0,38.1,0,57.1,0c-0.6,1.8-1.4,3.6-2.2,5.4c-18.4,0-36.8,0-55.1,0c0-0.1,0-0.1,0-0.2
		c0-0.1,0-0.2,0-0.3c0,0,0-0.1,0-0.1c-0.1-1-0.1-1.9,0-2.8c0,0,0-0.1,0-0.1c0-0.1,0-0.1,0-0.2C9,51.7,9.1,51.1,9.2,50.6 M9.2,50.1
		c-0.2,0-0.4,0.2-0.5,0.4c-0.1,0.6-0.2,1.1-0.3,1.6l0,0.2l0,0.1c-0.1,1-0.1,2,0,2.9l0,0.1c0,0.1,0,0.2,0,0.3l0,0.2
		c0,0.2,0.2,0.4,0.5,0.4l27.6,0h27.6c0.2,0,0.3-0.1,0.4-0.3c0.9-1.8,1.6-3.6,2.3-5.4c0.1-0.1,0-0.3-0.1-0.4
		c-0.1-0.1-0.2-0.2-0.4-0.2l-28.6,0L9.2,50.1L9.2,50.1z"/>
</g>
<g>
	<path fill="#010101" d="M64.1,56c-0.4,0.9-0.9,1.8-1.4,2.7c-17.7,0-35.3,0-53,0v0c-0.4-0.9-0.6-1.8-0.7-2.7
		C27.3,56,45.7,56,64.1,56 M64.1,55.5l-27.6,0H8.9c-0.1,0-0.3,0.1-0.4,0.2c-0.1,0.1-0.1,0.2-0.1,0.4c0.1,1,0.4,1.9,0.8,2.8
		c0.1,0.2,0.2,0.3,0.4,0.3l53,0c0.2,0,0.3-0.1,0.4-0.2c0.5-0.9,1-1.8,1.4-2.7c0.1-0.1,0.1-0.3,0-0.5C64.4,55.6,64.2,55.5,64.1,55.5
		L64.1,55.5z M64.1,56.5L64.1,56.5L64.1,56.5L64.1,56.5z"/>
</g>
<g>
	<path fill="#010101" d="M41.5,66.7l0-0.2L41.5,66.7l-5,0c0,0-2.5,0-2.5,0l-0.2-0.2v0.2l-0.9,0l-0.2-0.2l0,0.2c0,0-0.2,0-0.2,0
		l-0.1-0.2l0,0.2l-0.6,0l-0.1-0.2l0,0.2l-0.9,0l-0.1-0.2l0,0.2l-3.6-0.1l-1.7-0.1l-1.5-0.1l-1.4-0.1l-1.4-0.1L20.3,66l-0.1-0.3
		l0,0.2c-0.7-0.1-1.3-0.2-2-0.3c-0.6-0.1-1.3-0.3-1.9-0.5c-0.4-0.1-0.9-0.3-1.3-0.5c-0.7-0.4-1.5-0.8-2.2-1.4
		c-0.6-0.5-1.1-1-1.6-1.6c0,0-0.3-0.3-0.3-0.3l-0.2-0.2c0,0-0.3-0.3-0.3-0.3l-0.1-0.2c-0.4-0.6-0.7-1.2-1-1.9c0-0.1,0-0.2,0-0.2
		c0-0.1,0.1-0.1,0.2-0.1h53c0.1,0,0.2,0,0.2,0.1c0,0.1,0,0.2,0,0.2c-1.5,2.5-3.2,5.1-5.3,7.8c0,0.1-0.1,0.1-0.2,0.1l-0.3,0l-0.1-0.2
		l0,0.2c0,0-0.1,0-0.2,0l-0.1-0.2l0,0.2c0,0-3,0-3,0l-0.1-0.2l0,0.2c0,0-0.3,0-0.3,0l-0.2-0.2l0,0.2l-0.5,0l-0.1-0.2l0,0.2l-0.1-0.2
		l0,0.2l-0.1-0.2l0,0.2c0,0-2,0-2,0L50,66.5l0,0.2l-0.2-0.2l0,0.2L41.5,66.7C41.5,66.7,41.5,66.7,41.5,66.7z"/>
	<path fill="#010101" d="M9.7,58.7c17.7,0,35.3,0,53,0c-1.6,2.7-3.3,5.3-5.3,7.7c0,0,0,0,0,0c0,0,0,0,0,0c0,0,0,0,0,0c0,0,0,0,0,0
		c0,0,0,0,0,0c0,0,0,0,0,0c0,0,0,0,0,0c0,0,0,0,0,0c0,0,0,0,0,0c0,0,0,0,0,0c-0.1,0-0.2,0-0.2,0c0,0,0,0,0,0c0,0,0,0,0,0
		c0,0,0,0,0,0c0,0,0,0,0,0c0,0,0,0,0,0c0,0,0,0-0.1,0c0,0,0,0,0,0c0,0-0.1,0-0.1,0c-0.8,0-1.5,0-2.3,0c-0.2,0-0.4,0-0.5,0
		c0,0-0.1,0-0.1,0c0,0-0.1,0-0.1,0c0,0-0.1,0-0.1,0c0,0-0.1,0-0.1,0c0,0-0.1,0-0.1,0c-0.1,0-0.1,0-0.2,0c-0.1,0-0.2,0-0.2,0
		c0,0,0,0,0,0c-0.1,0-0.1,0-0.2,0c0,0,0,0-0.1,0c-0.1,0-0.1,0-0.2,0c0,0-0.1,0-0.1,0c0,0-0.1,0-0.1,0c-0.1,0-0.1,0-0.2,0
		c-0.1,0-0.2,0-0.3,0c0,0,0,0,0,0c-0.1,0-0.2,0-0.2,0c0,0,0,0-0.1,0c-0.1,0-0.1,0-0.2,0c0,0-0.1,0-0.1,0c0,0-0.1,0-0.1,0
		c-0.1,0-0.1,0-0.2,0c-0.1,0-0.2,0-0.3,0c0,0,0,0,0,0c-0.1,0-0.2,0-0.2,0c0,0,0,0-0.1,0c-0.1,0-0.1,0-0.2,0c0,0-0.1,0-0.1,0
		c-0.4,0-0.8,0-1.2,0c0,0-0.1,0-0.1,0c0,0-0.1,0-0.1,0c0,0-0.1,0-0.1,0c0,0-0.1,0-0.1,0c0,0-0.1,0-0.1,0c-0.1,0-0.1,0-0.2,0
		c0,0-0.1,0-0.1,0c-0.1,0-0.1,0-0.2,0c0,0-0.1,0-0.1,0c-0.1,0-0.1,0-0.2,0c0,0-0.1,0-0.1,0c-0.1,0-0.1,0-0.2,0c0,0,0,0-0.1,0
		c-0.1,0-0.1,0-0.2,0c-0.7,0-1.4,0-2.1,0c0,0,0,0,0,0c0,0,0,0,0,0c-0.1,0-0.2,0-0.3,0c0,0,0,0,0,0c0,0,0,0,0,0c-0.1,0-0.2,0-0.2,0
		c0,0,0,0-0.1,0c0,0,0,0,0,0c-0.1,0-0.2,0-0.2,0c0,0,0,0-0.1,0c0,0,0,0,0,0c0,0,0,0,0,0c-0.1,0-0.1,0-0.2,0c0,0,0,0-0.1,0
		c0,0,0,0,0,0c0,0,0,0,0,0c-0.1,0-0.1,0-0.2,0c0,0,0,0-0.1,0c0,0,0,0,0,0c0,0,0,0-0.1,0c0,0-0.1,0-0.1,0c0,0-0.1,0-0.1,0
		c0,0,0,0,0,0c0,0,0,0-0.1,0c0,0-0.1,0-0.1,0c0,0-0.1,0-0.1,0c0,0,0,0-0.1,0c0,0,0,0-0.1,0c0,0-0.1,0-0.1,0c0,0-0.1,0-0.1,0
		c0,0,0,0-0.1,0c0,0,0,0-0.1,0c0,0-0.1,0-0.1,0c0,0-0.1,0-0.1,0c0,0-0.1,0-0.1,0c0,0,0,0-0.1,0c0,0,0,0-0.1,0c0,0-0.1,0-0.1,0
		c0,0-0.1,0-0.1,0c0,0,0,0-0.1,0c0,0,0,0-0.1,0c0,0-0.1,0-0.1,0c0,0-0.1,0-0.1,0c0,0,0,0-0.1,0c0,0,0,0-0.1,0c0,0-0.1,0-0.1,0
		c0,0-0.1,0-0.1,0c0,0,0,0-0.1,0c0,0,0,0,0,0c0,0-0.1,0-0.1,0c0,0-0.1,0-0.1,0c0,0,0,0,0,0c0,0,0,0,0,0c0,0,0,0-0.1,0
		c-0.1,0-0.1,0-0.2,0c0,0,0,0,0,0c0,0,0,0,0,0c0,0,0,0-0.1,0c-0.1,0-0.1,0-0.2,0c0,0,0,0,0,0c0,0,0,0,0,0c0,0,0,0,0,0
		c-0.1,0-0.1,0-0.2,0c-0.7,0-1.4,0-2,0c0,0,0,0,0,0c-0.1,0-0.2,0-0.3,0c0,0,0,0,0,0c-0.1,0-0.2,0-0.3,0c0,0,0,0-0.1,0
		c-0.2,0-0.4,0-0.6,0c0,0-0.1,0-0.1,0c-0.1,0-0.2,0-0.2,0c0,0-0.1,0-0.1,0c-0.1,0-0.2,0-0.2,0c0,0-0.1,0-0.1,0c-0.1,0-0.1,0-0.2,0
		c0,0-0.1,0-0.1,0c-0.1,0-0.1,0-0.2,0c0,0-0.1,0-0.1,0c-0.1,0-0.1,0-0.2,0c0,0-0.1,0-0.1,0c-0.1,0-0.1,0-0.2,0c-0.1,0-0.1,0-0.2,0
		c-0.1,0-0.1,0-0.2,0c-0.1,0-0.1,0-0.2,0c-0.1,0-0.1,0-0.2,0c-0.1,0-0.1,0-0.2,0c-0.1,0-0.1,0-0.2,0c-0.1,0-0.1,0-0.2,0
		c0,0-0.1,0-0.1,0c-0.1,0-0.1,0-0.2,0c0,0-0.1,0-0.1,0c-0.1,0-0.1,0-0.2,0c0,0-0.1,0-0.1,0c-0.1,0-0.1,0-0.2,0c0,0-0.1,0-0.1,0
		c-0.2,0-0.4,0-0.6,0c0,0-0.1,0-0.1,0c-0.2,0-0.4,0-0.6,0c0,0-0.1,0-0.1,0c-0.2,0-0.4,0-0.6,0c0,0-0.1,0-0.1,0c-0.2,0-0.4,0-0.6,0
		c0,0-0.1,0-0.1,0c-0.2,0-0.4,0-0.6,0c-0.2,0-0.4,0-0.5,0c-0.1,0-0.1,0-0.2,0c-0.1,0-0.2,0-0.3,0c-0.2,0-0.3,0-0.5,0
		c-0.2,0-0.3,0-0.5,0c0,0-0.1,0-0.1,0c-0.2,0-0.5,0-0.7,0c0,0,0,0,0,0c-0.2,0-0.5,0-0.7,0c-0.1,0-0.2,0-0.3,0c-0.1,0-0.2,0-0.3,0
		c0,0-0.1,0-0.1,0c-0.2,0-0.3,0-0.5,0c-0.1,0-0.3,0-0.4,0c-0.1,0-0.2,0-0.2,0c-0.1,0-0.1,0-0.2,0c-0.1,0-0.3,0-0.4,0c0,0,0,0-0.1,0
		c-0.2,0-0.4,0-0.6-0.1c0,0-0.1,0-0.1,0c-0.1,0-0.2,0-0.2,0c-0.1,0-0.3,0-0.4,0c-0.1,0-0.2,0-0.2,0c-0.1,0-0.1,0-0.2,0
		c-0.1,0-0.1,0-0.2,0c-0.7-0.1-1.3-0.2-2-0.3c-0.6-0.1-1.2-0.3-1.8-0.5c-0.4-0.1-0.8-0.3-1.2-0.5c-0.8-0.4-1.5-0.8-2.1-1.3
		c-0.6-0.5-1.1-1-1.6-1.5c0,0,0,0-0.1-0.1c-0.1-0.1-0.1-0.1-0.1-0.2c0,0,0-0.1-0.1-0.1c-0.1-0.1-0.1-0.1-0.2-0.2c0,0,0,0,0-0.1
		c0-0.1-0.1-0.1-0.1-0.2c0,0,0-0.1-0.1-0.1c0-0.1-0.1-0.1-0.1-0.2c0,0,0,0,0,0C10.3,59.9,9.9,59.3,9.7,58.7 M9.7,58.2
		c-0.2,0-0.3,0.1-0.4,0.2c-0.1,0.1-0.1,0.3,0,0.4c0.3,0.7,0.6,1.3,1,1.9l0,0c0,0.1,0.1,0.1,0.1,0.2l0.1,0.1c0,0.1,0.1,0.1,0.1,0.2
		l0,0.1c0.1,0.1,0.1,0.2,0.2,0.2l0.1,0.1c0.1,0.1,0.1,0.1,0.2,0.2l0.1,0.1c0.5,0.6,1.1,1.1,1.7,1.6c0.7,0.6,1.4,1,2.2,1.4
		c0.4,0.2,0.8,0.4,1.3,0.5c0.6,0.2,1.3,0.4,1.9,0.5c0.7,0.1,1.3,0.3,2,0.3l0.1,0l0.1,0l0.2,0l0.1,0l0.1,0l0.4,0l0.2,0l0.1,0
		c0.2,0,0.4,0,0.6,0.1l0.1,0l0.4,0l0.2,0l0.3,0l0.4,0l0.5,0l0.1,0l0.3,0l0.3,0l0.7,0l0.7,0l0.1,0l0.4,0l0.1,0l0.5,0l0.3,0l0.2,0
		l0.2,0c0.1,0,0.2,0,0.4,0l0.6,0l0.1,0l0.6,0l0.1,0l0.6,0l0.1,0l0.6,0l0.1,0l0.6,0l0.1,0l0.2,0l0.1,0l0.2,0l0.1,0l0.2,0l0.1,0l0.2,0
		l0.2,0l0.2,0l0.2,0l0.2,0l0.2,0l0.2,0l0.2,0l0.1,0l0.2,0l0.1,0l0.2,0l0.1,0l0.2,0l0.1,0l0.1,0l0.1,0l0.1,0l0.3,0l0.1,0l0.6,0l0.1,0
		l0.2,0l0.1,0c0,0,0.1,0,0.1,0l0.3,0l1.1,0l0.9,0l0.2,0l0.1,0l0.2,0l0.1,0l0.1-0.5l0,0.5l0.2,0l0.1,0l0.1-0.5l0,0.5l0.2,0l0.1,0
		c0,0,0.1,0,0.1,0l0.1,0l0.1,0l0.1-0.5V67l0.1,0l0.1,0l0.1,0l0.1,0l0.1,0l0.1,0l0.1,0l0.1,0l0.1,0l0.1,0l0.1,0l0.1,0l0.1,0l0.1,0
		l0.1,0l0.1,0l0.1,0l0.1,0l0.1,0l0.1,0l0.1,0l0.1,0l0.1,0l0.1,0l0.1,0l0.2,0l0.1,0l0.1,0l0.2,0l0.1,0l0.2,0l0.1,0l0.2,0
		c0,0,0.1,0,0.1,0l0.3,0l2.1,0l0.2,0l0.1,0l0.1,0l0.2,0l0.1,0l0.2,0l0.1,0l0.2,0l0.1,0l0.2,0l0.1,0l0.1,0l0.1,0l0.1,0l0.2,0l1.2,0
		l0.1,0l0.1,0l0.1,0l0.1,0l0.2,0l0.3,0l0.1,0l0.1,0l0.1,0l0.1,0l0.1,0l0.1,0l0.1,0l0.1,0l0.1-0.5l0,0.5l0.2,0l0.3,0l0.1,0l0.1,0
		l0.1,0l0.1,0l0.1,0l0.1,0l0.1,0l0.1,0l0.1,0l0.2,0l0.1,0l0.2,0l0.1,0l0.1,0l0.1,0l0.1,0l0.1-0.5l0,0.5l0.2,0l0.5,0l2.3,0l0.1,0
		l0.1-0.5l0,0.5c0,0,0.1,0,0.1,0l0.1-0.5l0,0.5l0.1,0l0.3,0c0,0,0.1,0,0.1,0c0,0,0.1,0,0.1,0c0.1,0,0.3-0.1,0.4-0.2
		c2.1-2.7,3.9-5.2,5.3-7.8c0.1-0.1,0.1-0.3,0-0.5c-0.1-0.1-0.2-0.2-0.4-0.2L9.7,58.2L9.7,58.2z"/>
</g>
<path fill="none" stroke="#010101" stroke-width="0.4734" stroke-linecap="round" stroke-linejoin="round" d="M68.8,38.5
	c-0.1,0.9-0.1,1.8-0.2,2.7"/>
<g>
	<path fill="#010101" d="M38.9,4.6c0.1,0,0.1,0,0.2,0c0.4,0.1,0.8,0.2,1.2,0.2c0.4,0.1,0.8,0.2,1.2,0.3c0.8,0.2,1.6,0.4,2.4,0.7
		c0.8,0.2,1.6,0.5,2.4,0.8c0.8,0.3,1.5,0.6,2.3,0.9c0,0,0.1,0,0.1,0.1c0,0,0.1,0.1,0.1,0.1c0,0,0.1,0,0.1,0.1c0,0,0,0,0,0.1
		c0,0,0,0,0,0c0,0,0,0,0,0c0,0,0,0-0.1,0c0,0,0,0,0,0c-0.1,0-0.2,0-0.3-0.1c-0.4-0.2-0.7-0.3-1.1-0.5C47,7.2,46.6,7,46.2,6.9
		c-0.8-0.3-1.6-0.6-2.4-0.8c-1.6-0.5-3.2-0.9-4.8-1.2c0,0-0.1,0-0.1,0c0,0-0.1,0-0.1-0.1c0,0-0.1,0-0.1-0.1c0,0,0,0,0,0c0,0,0,0,0,0
		c0,0,0,0,0,0C38.7,4.6,38.8,4.6,38.9,4.6C38.8,4.6,38.9,4.6,38.9,4.6 M38.9,4.1c0,0-0.1,0-0.1,0c-0.1,0-0.2,0-0.3,0.1
		c-0.2,0.1-0.3,0.2-0.3,0.4c0,0.1,0,0.2,0,0.3c0,0.1,0.1,0.1,0.1,0.2c0.1,0,0.1,0.1,0.2,0.1c0.1,0,0.1,0.1,0.2,0.1
		c0.1,0,0.1,0,0.2,0c1.6,0.3,3.2,0.7,4.8,1.2c0.8,0.2,1.6,0.5,2.3,0.8c0.4,0.1,0.8,0.3,1.1,0.4c0.4,0.1,0.7,0.3,1.1,0.5
		c0.1,0,0.3,0.1,0.4,0.1c0,0,0.1,0,0.1,0c0.1,0,0.1,0,0.2,0c0.1,0,0.2-0.1,0.2-0.1c0.1-0.1,0.1-0.1,0.2-0.2c0-0.1,0.1-0.3,0-0.5
		c-0.1-0.1-0.1-0.2-0.2-0.2c-0.1,0-0.1-0.1-0.2-0.1c-0.1,0-0.1-0.1-0.2-0.1c-0.7-0.3-1.5-0.6-2.3-0.9c-0.8-0.3-1.6-0.6-2.4-0.8
		c-0.8-0.2-1.6-0.5-2.4-0.7c-0.4-0.1-0.8-0.2-1.3-0.3c-0.4-0.1-0.8-0.2-1.2-0.2C39.1,4.1,39,4.1,38.9,4.1L38.9,4.1z"/>
</g>
<g>
	<path fill="#010101" d="M24,4.6C24,4.6,24.1,4.6,24,4.6c0.2,0,0.3,0.1,0.2,0.2c-0.1,0.1-0.2,0.1-0.3,0.1c-1.8,0.4-3.5,0.8-5.2,1.5
		c-0.8,0.3-1.7,0.7-2.5,1.1c-0.5,0.2-0.9,0.5-1.4,0.7c-0.1,0-0.3,0.2-0.5,0.2c0,0-0.1,0-0.1,0c0,0,0-0.1,0.1-0.2
		c0.1-0.1,0.2-0.2,0.3-0.2C15,7.7,16.5,7,17,6.8c0.8-0.4,1.7-0.7,2.5-1c0.9-0.3,1.7-0.5,2.6-0.8c0.4-0.1,0.9-0.2,1.3-0.3
		C23.6,4.7,23.8,4.6,24,4.6 M24,4.2c-0.2,0-0.4,0-0.6,0.1l-0.1,0c-0.4,0.1-0.9,0.2-1.3,0.3c-0.9,0.2-1.8,0.5-2.6,0.8
		c-0.9,0.3-1.7,0.6-2.6,1c-0.5,0.2-2,0.9-2.5,1.3c-0.1,0.1-0.2,0.2-0.4,0.3c-0.3,0.3-0.2,0.6,0,0.8c0.1,0.1,0.3,0.2,0.4,0.2
		c0.2,0,0.4-0.1,0.7-0.3c0.5-0.3,0.9-0.5,1.4-0.7c0.8-0.4,1.6-0.7,2.4-1.1c1.6-0.6,3.3-1.1,5.1-1.5c0.1,0,0.3-0.1,0.5-0.2
		c0.3-0.2,0.3-0.4,0.3-0.6C24.6,4.3,24.4,4.2,24,4.2C24.1,4.2,24.1,4.2,24,4.2L24,4.2z"/>
</g>
<g>
	<path fill="#010101" d="M10,48.2c-0.1,0-0.1,0-0.2-0.1c0-0.1-0.1-0.1,0-0.2c0.1-0.3,0.2-0.6,0.4-0.9c0.2-0.6,0.5-1.2,0.8-1.8
		l0.2-0.6l0.3,0l-0.2-0.1l0.3-0.6c0-0.1,0.1-0.1,0.2-0.1h54.7c0.1,0,0.1,0,0.2,0.1s0.1,0.1,0,0.2c-0.1,0.7-0.3,1.4-0.5,2.1
		c-0.2,0.7-0.3,1.3-0.5,2c0,0.1-0.1,0.2-0.2,0.2H10z"/>
	<path fill="#010101" d="M11.6,43.9C11.6,43.9,11.6,43.9,11.6,43.9c18.2,0,36.5,0,54.7,0c-0.1,0.7-0.3,1.4-0.5,2.1
		c-0.2,0.7-0.3,1.3-0.5,1.9c-18.5,0-36.9,0-55.4,0h0c0,0,0,0,0,0c0.1-0.3,0.2-0.6,0.4-0.9c0.2-0.6,0.5-1.2,0.8-1.8c0,0,0-0.1,0-0.1
		c0.1-0.2,0.1-0.3,0.2-0.5c0,0,0-0.1,0-0.1c0.1-0.2,0.1-0.3,0.2-0.5C11.6,44,11.6,43.9,11.6,43.9C11.6,43.9,11.6,43.9,11.6,43.9
		 M11.6,43.4c-0.2,0-0.4,0.1-0.4,0.3l-0.1,0.1l0,0.1l-0.2,0.4l0,0.1l-0.2,0.5l0,0.1c-0.3,0.6-0.5,1.2-0.8,1.9
		c-0.1,0.3-0.2,0.6-0.4,1c-0.1,0.1,0,0.3,0.1,0.4c0.1,0.1,0.2,0.2,0.4,0.2l55.4,0c0.2,0,0.4-0.1,0.5-0.3c0.2-0.7,0.4-1.3,0.5-2
		c0.2-0.7,0.3-1.4,0.5-2.1c0-0.1,0-0.3-0.1-0.4c-0.1-0.1-0.2-0.2-0.4-0.2l-27.4,0L11.6,43.4L11.6,43.4z"/>
</g>
<g>
	<path fill="#010101" d="M65.6,48.2c-0.1,0-0.1,0-0.2-0.1s-0.1-0.1,0-0.2c0.3-0.9,0.5-1.8,0.7-2.8c0.1-0.4,0.2-0.8,0.3-1.2
		c0-0.1,0.1-0.2,0.2-0.2h1.5c0.1,0,0.1,0,0.2,0.1c0,0.1,0.1,0.1,0,0.2c-0.3,1.3-0.6,2.7-1,4c0,0.1-0.1,0.2-0.2,0.2H65.6z"/>
	<path fill="#010101" d="M68.1,43.9L68.1,43.9 M68.1,43.9c-0.3,1.4-0.6,2.7-0.9,4c-0.5,0-1,0-1.6,0c0.3-0.9,0.5-1.9,0.7-2.8
		c0.1-0.4,0.2-0.8,0.3-1.2C67.1,43.9,67.6,43.9,68.1,43.9 M68.1,43.4L68.1,43.4h-1.5c-0.2,0-0.4,0.2-0.5,0.4
		C66,44.2,66,44.6,65.9,45c-0.2,1-0.5,1.9-0.7,2.8c0,0.1,0,0.3,0.1,0.4c0.1,0.1,0.2,0.2,0.4,0.2h1.6c0.2,0,0.4-0.1,0.5-0.3
		c0.4-1.3,0.7-2.7,0.9-4c0,0,0-0.1,0-0.1C68.6,43.6,68.4,43.4,68.1,43.4L68.1,43.4z M68.1,44.4L68.1,44.4L68.1,44.4L68.1,44.4z"/>
</g>
<g>
	<path fill="#010101" d="M65.6,47.9L65.6,47.9 M65.6,47.9c-0.2,0.8-0.5,1.6-0.8,2.4c0,0.1-0.1,0.2-0.2,0.3c0,0-0.1,0.1-0.1,0.1
		c0,0,0,0,0,0c-0.1-0.1,0.1-0.5,0.1-0.6c0.2-0.5,0.3-1,0.5-1.5c0.1-0.2,0.1-0.4,0.2-0.7C65.4,47.9,65.5,47.9,65.6,47.9 M65.6,47.5
		L65.6,47.5h-0.3c-0.2,0-0.4,0.1-0.5,0.3c-0.1,0.2-0.1,0.4-0.2,0.6c-0.2,0.5-0.3,1-0.5,1.5c-0.1,0.3-0.3,0.9,0.1,1.1
		c0.1,0,0.2,0.1,0.3,0.1c0.1,0,0.3,0,0.5-0.3c0.1-0.2,0.2-0.3,0.2-0.4c0.3-0.7,0.5-1.5,0.8-2.4c0-0.1,0-0.1,0-0.2
		C66.1,47.7,65.9,47.5,65.6,47.5L65.6,47.5z M65.6,48.4L65.6,48.4L65.6,48.4L65.6,48.4z"/>
</g>
<g>
	<path fill="#010101" d="M67,41.5c0,0-0.1,0-0.1,0c0,0-0.1,0-0.1,0h-54c-0.1,0-0.2,0-0.2-0.1c0-0.1-0.1-0.1,0-0.2L13,40l0.3,0
		l-0.2-0.1l0.1-0.2l0.3-0.1l-0.2-0.1l0.3-0.7l0.3,0l-0.2-0.1l0.1-0.3c0-0.1,0.1-0.2,0.2-0.2h55c0.1,0,0.1,0,0.2,0.1
		c0,0,0.1,0.1,0.1,0.2c0,0.9-0.1,1.8-0.2,2.7c0,0.1-0.1,0.2-0.2,0.2H67z"/>
	<path fill="#010101" d="M13.8,38.5c18.3,0,36.6,0,55,0c-0.1,0.9-0.1,1.8-0.2,2.7c-0.5,0-1,0-1.5,0c0-0.1,0-0.2,0-0.3
		c0-0.1,0.1-0.5,0-0.6c0,0,0,0,0,0c0,0-0.1,0-0.1,0.1c-0.1,0.1-0.1,0.2-0.1,0.3c0,0.2,0,0.4-0.1,0.6c-18,0-36,0-54,0l0,0
		c0.1-0.2,0.2-0.4,0.3-0.6c0-0.1,0.1-0.2,0.1-0.2c0,0,0-0.1,0-0.1c0-0.1,0.1-0.1,0.1-0.2c0,0,0-0.1,0-0.1c0-0.1,0.1-0.1,0.1-0.2
		c0,0,0-0.1,0.1-0.1c0-0.1,0-0.1,0.1-0.2c0-0.1,0-0.1,0.1-0.2c0,0,0-0.1,0.1-0.1c0-0.1,0.1-0.1,0.1-0.2c0,0,0-0.1,0-0.1
		C13.7,38.7,13.8,38.6,13.8,38.5L13.8,38.5 M13.8,38.1c-0.2,0-0.4,0.1-0.4,0.3l-0.1,0.2l0,0.1l-0.1,0.2l-0.1,0.1L13,39.3L13,39.4
		l-0.1,0.1l-0.1,0.2l0,0.1l-0.1,0.2l0,0.1l-0.1,0.2c-0.1,0.2-0.2,0.4-0.3,0.6c-0.1,0.1,0,0.3,0,0.4c0.1,0.1,0.2,0.2,0.4,0.2l54,0
		c0,0,0.1,0,0.1,0c0,0,0.1,0,0.1,0h1.5c0.2,0,0.4-0.2,0.5-0.4c0.1-0.9,0.2-1.8,0.2-2.7c0-0.1,0-0.3-0.1-0.4
		c-0.1-0.1-0.2-0.1-0.3-0.1l-27.5,0L13.8,38.1L13.8,38.1z"/>
</g>
<g>
	<path fill="#010101" d="M67,41.2L67,41.2 M67,41.2c-0.1,0.4-0.1,0.8-0.2,1.2c-0.1,0.5-0.2,1-0.3,1.5c-0.1,0-0.2,0-0.3,0
		c0.2-0.9,0.3-1.8,0.4-2.7C66.8,41.2,66.9,41.2,67,41.2 M67,40.7L67,40.7h-0.3c-0.2,0-0.4,0.2-0.5,0.4c-0.1,0.9-0.3,1.8-0.4,2.7
		c0,0.1,0,0.3,0.1,0.4c0.1,0.1,0.2,0.2,0.4,0.2h0.3c0.2,0,0.4-0.2,0.5-0.4c0.1-0.5,0.2-1,0.3-1.5c0.1-0.4,0.1-0.8,0.2-1.2
		c0,0,0-0.1,0-0.1C67.5,41,67.3,40.7,67,40.7L67,40.7z M67,41.7L67,41.7L67,41.7L67,41.7z"/>
</g>
<g>
	<path fill="#010101" d="M60.2,16.7C60.3,16.7,60.3,16.7,60.2,16.7c0.2,0.1,0.3,0.2,0.3,0.3c1.1,1.4,2.1,2.9,3,4.5
		c0.4,0.8,0.8,1.6,1.2,2.4c0.2,0.5,0.4,1,0.6,1.5c0,0.1,0.2,0.5,0.1,0.6c0,0,0,0,0,0c0,0-0.1,0-0.1,0c-0.1-0.1-0.1-0.2-0.2-0.3
		c-0.2-0.4-0.3-0.9-0.5-1.3c-0.2-0.4-0.4-0.8-0.5-1.2c-0.4-0.8-0.8-1.6-1.3-2.4c-0.5-0.8-0.9-1.5-1.5-2.3c-0.3-0.4-0.5-0.7-0.8-1.1
		c-0.1-0.2-0.3-0.3-0.4-0.5C60.2,16.9,60.2,16.8,60.2,16.7C60.2,16.7,60.2,16.7,60.2,16.7 M60.2,16.2c-0.1,0-0.3,0.1-0.4,0.2
		c-0.1,0.1-0.2,0.3-0.1,0.4c0,0.2,0.1,0.3,0.1,0.3c0.1,0.2,0.2,0.3,0.3,0.5c0,0,0.1,0.1,0.1,0.1c0.3,0.3,0.5,0.7,0.8,1
		c0.5,0.7,1,1.5,1.4,2.2c0.4,0.8,0.9,1.6,1.2,2.4c0.2,0.4,0.4,0.8,0.5,1.2c0.1,0.2,0.2,0.5,0.3,0.7c0.1,0.2,0.1,0.3,0.2,0.5
		c0.1,0.1,0.1,0.3,0.3,0.4c0.1,0.1,0.2,0.2,0.4,0.2c0.2,0,0.4-0.1,0.5-0.3c0.2-0.3,0-0.7-0.1-1l0-0.1c-0.2-0.5-0.4-1-0.6-1.5
		c-0.4-0.8-0.8-1.7-1.2-2.5c-0.9-1.6-1.9-3.1-3-4.6c-0.1-0.1-0.2-0.3-0.4-0.4C60.4,16.2,60.3,16.2,60.2,16.2L60.2,16.2z"/>
</g>
<g>
	<path d="M39.6,67.8c-2.5,0-4.9,0-7.4,0c-3.5-0.1-8.6-0.2-12.3-0.7c-2.2-0.3-4.1-0.7-5.9-1.7c-1.8-1-3.4-2.5-4.5-4.2
		c-2.7-4.1-2.1-8.8-1.2-12c0.5-1.9,1.3-3.7,2.1-5.4l0.3-0.6c0.8-1.7,1.6-3.5,2.1-5.4c1.1-3.5,1.8-7.6-1.8-11.1
		c-0.5-0.5-1-0.9-1.5-1.3L9,25c-0.7-0.6-1.4-1.2-2.1-1.7c-1.8-1.4-3.6-2.7-5.6-4.1C1.2,19.1,1.1,19,1,18.9c-0.3-0.6,0.2-1.3,0.4-1.5
		c0.4-0.4,0.7-0.7,1.2-0.9c0,0,0.1,0,0.1,0c0,0,0.1,0,0.1,0c0.8,0.6,1.7,1.2,2.5,1.8c0.9,0.6,1.7,1.3,2.6,2c1.5,1.1,2.9,2.3,4,3.2
		l0.2,0.2c0.1,0.1,0.3,0.2,0.4,0.3c0.1,0.1,0.2,0.2,0.3,0.3c0.1,0.1,0.2,0.2,0.3,0.3c0.4,0.4,0.7,0.8,1.1,1.2
		c0.3,0.4,0.6,0.9,0.9,1.4c0.3,0.4,0.5,0.9,0.7,1.4c0.1,0.2,0.2,0.5,0.3,0.7c0.1,0.3,0.2,0.5,0.2,0.8c0.3,1.1,0.4,2.2,0.3,3.4
		c0,1.2-0.2,2.4-0.6,3.8c-0.3,1.1-0.7,2.3-1.2,3.7c-0.3,0.7-0.5,1.3-0.8,2c-0.3,0.6-0.5,1.2-0.8,1.8L12.6,46
		c-0.2,0.4-0.3,0.8-0.5,1.2c-0.2,0.6-0.5,1.3-0.8,2.1c-0.3,0.7-0.5,1.4-0.6,2.1c-0.1,0.7-0.3,1.3-0.3,2c-0.1,0.8-0.1,1.6,0,2.4
		c0.1,0.8,0.3,1.5,0.6,2.3c0.3,0.7,0.6,1.3,1,1.9c0.4,0.6,0.9,1.2,1.5,1.7c0.3,0.2,0.5,0.4,0.8,0.7c0.3,0.2,0.6,0.4,0.9,0.6
		c0.6,0.3,1.2,0.6,1.9,0.8c0.4,0.1,0.8,0.2,1.2,0.3c0.5,0.1,1,0.2,1.4,0.3c1.1,0.2,2.2,0.3,3.6,0.4c1.4,0.1,2.9,0.2,4.8,0.3
		c1.9,0.1,4,0.1,6.5,0.2c2.8,0,5.7,0.1,8.5,0.1c5,0,10,0,15,0c0.1,0,0.2,0.1,0.2,0.2c0,0.5-0.1,1-0.4,1.4c-0.1,0.2-0.6,0.9-1.3,0.9
		C51,67.8,45.3,67.8,39.6,67.8C39.6,67.8,39.6,67.8,39.6,67.8z"/>
	<g>
		<path fill="#FFFFFF" d="M2.7,16.7c0.8,0.6,1.7,1.2,2.5,1.8c0.9,0.6,1.7,1.3,2.6,1.9c1.3,1,2.6,2.1,3.9,3.2
			c0.1,0.1,0.1,0.1,0.2,0.2c0.1,0.1,0.3,0.2,0.4,0.3c0.1,0.1,0.2,0.2,0.3,0.3c0.1,0.1,0.2,0.2,0.3,0.3c0.4,0.4,0.7,0.8,1,1.2
			c0.3,0.4,0.6,0.9,0.9,1.3c0.2,0.4,0.5,0.9,0.6,1.3c0.1,0.2,0.2,0.5,0.3,0.7c0.1,0.2,0.2,0.5,0.2,0.8c0.3,1.1,0.4,2.2,0.3,3.3
			c0,1.3-0.3,2.5-0.6,3.8c-0.3,1.3-0.7,2.5-1.2,3.7c-0.3,0.7-0.5,1.3-0.8,1.9c-0.4,1-0.9,2.1-1.4,3.1c-0.2,0.4-0.3,0.8-0.5,1.2
			c-0.3,0.7-0.6,1.4-0.8,2.1c-0.2,0.7-0.4,1.4-0.6,2.1c-0.1,0.7-0.3,1.3-0.3,2c-0.1,0.8-0.1,1.6,0,2.5c0.1,0.8,0.3,1.6,0.6,2.3
			c0.3,0.7,0.6,1.4,1.1,2c0.4,0.6,1,1.2,1.5,1.7c0.3,0.2,0.6,0.5,0.8,0.7c0.3,0.2,0.6,0.4,0.9,0.6c0.6,0.3,1.2,0.6,1.9,0.8
			c0.4,0.1,0.8,0.2,1.2,0.3c0.5,0.1,1,0.2,1.5,0.3c1.2,0.2,2.4,0.3,3.7,0.4c1.6,0.1,3.2,0.2,4.8,0.3c2.2,0.1,4.3,0.1,6.5,0.2
			c2.8,0,5.7,0.1,8.5,0.1c5,0,10,0,15,0c0,0.5-0.1,0.9-0.4,1.3c-0.2,0.3-0.6,0.8-1,0.8c-5.7,0.1-11.4,0.2-17.1,0.2
			c-2.5,0-4.9,0-7.4-0.1c-3.6-0.1-8.7-0.2-12.2-0.7c-2.1-0.3-4-0.7-5.9-1.7c-1.8-1-3.4-2.4-4.5-4.1c-2.3-3.6-2.3-7.9-1.2-11.8
			c0.6-2,1.4-3.8,2.2-5.7c0.8-1.9,1.6-3.7,2.3-5.7c1.3-4.1,1.6-8-1.9-11.4c-0.6-0.6-1.3-1.1-1.9-1.7c-0.7-0.6-1.4-1.2-2.2-1.7
			c-1.8-1.4-3.7-2.8-5.6-4.1c-0.1-0.1-0.2-0.1-0.2-0.3c-0.2-0.4,0.1-1,0.4-1.3C1.9,17.1,2.2,16.8,2.7,16.7 M2.7,16.2
			c-0.1,0-0.1,0-0.2,0c-0.5,0.2-1,0.5-1.4,0.9c-0.2,0.2-0.8,1-0.4,1.8c0.1,0.2,0.2,0.4,0.4,0.5c2,1.4,3.8,2.7,5.5,4.1
			c0.7,0.6,1.4,1.1,2.1,1.7l0.4,0.3c0.5,0.4,1,0.8,1.5,1.3c2.8,2.7,3.3,6,1.8,10.9c-0.6,1.8-1.4,3.6-2.1,5.4l-0.1,0.3l-0.1,0.3
			c-0.8,1.7-1.6,3.6-2.1,5.4C6.7,53.8,7.1,58,9.3,61.4c1.1,1.8,2.8,3.3,4.6,4.3c1.9,1,3.8,1.4,6,1.7c3.6,0.5,8.8,0.6,12.3,0.7
			c2.4,0,4.8,0.1,7.4,0.1c5.7,0,11.4-0.1,17.1-0.2c0.8,0,1.3-0.8,1.5-1c0.3-0.5,0.5-1,0.4-1.6c0-0.3-0.2-0.5-0.5-0.5
			c-5.8,0-10.6,0-15,0c-2.7,0-5.6,0-8.5-0.1c-2.5,0-4.6-0.1-6.5-0.2c-1.9-0.1-3.4-0.2-4.8-0.3c-1.4-0.1-2.6-0.2-3.6-0.4
			c-0.5-0.1-1-0.2-1.4-0.3c-0.4-0.1-0.8-0.2-1.1-0.3c-0.7-0.2-1.3-0.5-1.8-0.8c-0.3-0.2-0.6-0.3-0.9-0.5c-0.3-0.2-0.6-0.4-0.8-0.6
			c-0.6-0.5-1.1-1-1.5-1.6c-0.4-0.6-0.8-1.2-1-1.9c-0.3-0.7-0.4-1.4-0.5-2.2c-0.1-0.7-0.1-1.5,0-2.4c0.1-0.6,0.2-1.3,0.3-1.9
			c0.1-0.7,0.3-1.4,0.6-2.1c0.3-0.8,0.6-1.5,0.8-2.1c0.2-0.4,0.3-0.8,0.5-1.2c0.2-0.4,0.4-0.9,0.6-1.3c0.3-0.6,0.5-1.2,0.8-1.8
			c0.3-0.7,0.6-1.4,0.8-2c0.5-1.4,0.9-2.6,1.2-3.8c0.3-1.4,0.5-2.6,0.6-3.9c0-1.2-0.1-2.4-0.3-3.5c-0.1-0.3-0.1-0.5-0.2-0.8
			c-0.1-0.3-0.2-0.5-0.3-0.8c-0.2-0.5-0.4-1-0.7-1.4c-0.3-0.5-0.6-0.9-0.9-1.4c-0.3-0.4-0.7-0.8-1.1-1.2c-0.1-0.1-0.2-0.2-0.3-0.3
			c-0.1-0.1-0.2-0.2-0.3-0.3c-0.1-0.1-0.3-0.2-0.4-0.4l-0.2-0.2c-1.1-0.9-2.5-2.1-4-3.2c-0.9-0.7-1.8-1.3-2.6-2
			c-0.8-0.6-1.7-1.2-2.5-1.8C2.9,16.2,2.8,16.2,2.7,16.2L2.7,16.2z"/>
	</g>
</g>
</svg>
