<?xml version="1.0" encoding="utf-8"?>
<!-- Generator: Adobe Illustrator 23.0.0, SVG Export Plug-In . SVG Version: 6.00 Build 0)  -->
<svg version="1.1" id="Calque_1" xmlns="http://www.w3.org/2000/svg" xmlns:xlink="http://www.w3.org/1999/xlink" x="0px" y="0px"
	 viewBox="0 0 70 70" enable-background="new 0 0 70 70" xml:space="preserve">
<g>
	<linearGradient id="SVGID_1_" gradientUnits="userSpaceOnUse" x1="35.4023" y1="66.7475" x2="35.4023" y2="2.1723">
		<stop  offset="0.2995" style="stop-color:#010101"/>
		<stop  offset="0.4388" style="stop-color:#504D4C"/>
		<stop  offset="0.5705" style="stop-color:#9D9A9A"/>
		<stop  offset="0.6638" style="stop-color:#DCDADA"/>
		<stop  offset="0.7101" style="stop-color:#FFFFFF"/>
	</linearGradient>
	<path fill="url(#SVGID_1_)" d="M41.4,66.7c-3.4,0-6.3,0-8.6-0.1c-3.6-0.1-8.7-0.2-12.3-0.7c-1.9-0.2-4.1-0.6-6-1.7
		c-1.8-1-3.4-2.6-4.4-4.3C8.2,56.7,8,52.7,9.7,48c0.5-1.5,1.2-2.9,1.8-4.4l0.6-1.3c0.8-1.8,1.6-3.7,2.1-5.8
		c1.2-4.7,0.4-8.2-2.6-11.1c-0.8-0.7-3.9-3.2-4.7-3.9c-1.7-1.3-3.3-2.5-5-3.6c-0.1-0.1-0.1-0.2-0.1-0.3c2.6-4,5.7-7.3,9.2-9.7
		c3.6-2.5,7.7-4.2,12.4-5.1c2.5-0.5,5.1-0.7,7.7-0.7c6.4,0,12.8,1.4,18.6,4.1c0,0,0.1,0,0.1,0.1c5.2,2.4,9.8,6.3,13.2,11.3
		c3.4,5,5.5,10.7,5.9,16.4c0.4,5.4-0.6,11.5-2.7,17.3c-1.9,5.2-4.7,10-8.8,15.2c0,0.1-0.1,0.1-0.2,0.1
		C53.2,66.7,47.1,66.7,41.4,66.7z"/>
	<path d="M31.2,2.4c6.4,0,12.8,1.4,18.5,4.1c0,0,0,0,0,0c0,0,0,0,0,0c5.4,2.5,9.8,6.4,13.2,11.3c3.3,4.8,5.4,10.4,5.8,16.3
		c0.4,5.7-0.7,11.9-2.7,17.2c-2,5.6-5,10.5-8.7,15.1c-4.6,0-10.4,0.1-15.9,0.1c-3.1,0-6.1,0-8.7-0.1c-3.6-0.1-8.7-0.2-12.3-0.7
		c-2-0.3-4.1-0.7-5.9-1.7c-1.8-1-3.3-2.5-4.3-4.2C8.1,56.2,8.6,51.8,9.9,48c0.7-1.9,1.5-3.8,2.3-5.6c0.8-1.9,1.6-3.8,2.1-5.8
		c1.1-4.3,0.7-8.1-2.7-11.3c-0.8-0.7-3.9-3.2-4.8-3.9c-1.6-1.3-3.3-2.5-5-3.6c2.4-3.7,5.5-7.1,9.2-9.7c3.7-2.6,7.9-4.2,12.3-5
		C26,2.6,28.6,2.4,31.2,2.4 M31.2,1.9c-2.6,0-5.2,0.2-7.8,0.7c-4.8,0.9-8.9,2.6-12.5,5.1c-3.6,2.5-6.7,5.8-9.3,9.8
		c-0.1,0.2-0.1,0.5,0.1,0.6c1.6,1.1,3.3,2.3,4.9,3.6c0.9,0.7,3.9,3.1,4.7,3.9c3,2.8,3.8,6.2,2.6,10.8c-0.5,2-1.3,4-2.1,5.7
		c-0.2,0.4-0.4,0.9-0.6,1.3c-0.6,1.4-1.3,2.9-1.8,4.4c-1.7,4.8-1.5,8.9,0.4,12.3c1,1.8,2.6,3.4,4.5,4.4c1.9,1.1,4.1,1.5,6.1,1.7
		c3.6,0.5,8.8,0.6,12.3,0.7c2.4,0,5.3,0.1,8.7,0.1c5.7,0,11.8-0.1,15.9-0.1c0.1,0,0.3-0.1,0.4-0.2c4.1-5.2,6.9-10,8.8-15.2
		c2.1-5.8,3.1-12,2.7-17.4c-0.4-5.8-2.5-11.5-5.9-16.5c-3.5-5-8.1-8.9-13.3-11.4c0,0-0.1,0-0.1-0.1C44,3.4,37.6,1.9,31.2,1.9
		L31.2,1.9z"/>
</g>
<g>
	<path fill="#FFFFFF" d="M48.7,8.1c-0.1,0-0.3-0.1-0.4-0.1c-0.4-0.2-0.7-0.3-1.1-0.5c-0.4-0.2-0.8-0.3-1.1-0.4
		c-0.8-0.3-1.6-0.6-2.3-0.8c-1.6-0.5-3.2-0.9-4.8-1.2c-0.1,0-0.1,0-0.2,0c-0.1,0-0.1,0-0.2-0.1c-0.1,0-0.1-0.1-0.1-0.1
		c0,0-0.1-0.1-0.1-0.1c0,0,0-0.1,0-0.2c0,0,0-0.1,0.2-0.2c0.1,0,0.1,0,0.2-0.1c0,0,0.1,0,0.1,0c0.1,0,0.2,0,0.3,0
		c0.4,0.1,0.8,0.2,1.2,0.2c0.4,0.1,0.8,0.2,1.3,0.3c0.8,0.2,1.6,0.4,2.4,0.7c0.8,0.2,1.6,0.5,2.4,0.8c0.8,0.3,1.6,0.6,2.3,0.9
		c0.1,0,0.1,0.1,0.2,0.1c0.1,0,0.1,0.1,0.1,0.1c0,0,0.1,0.1,0.1,0.1c0,0.1,0,0.2,0,0.3c0,0-0.1,0.1-0.1,0.1c0,0-0.1,0-0.1,0
		C48.9,8.1,48.8,8.1,48.7,8.1C48.8,8.1,48.7,8.1,48.7,8.1z"/>
	<path fill="#010101" d="M38.9,4.6c0.1,0,0.1,0,0.2,0c0.4,0.1,0.8,0.2,1.2,0.2c0.4,0.1,0.8,0.2,1.2,0.3c0.8,0.2,1.6,0.4,2.4,0.7
		c0.8,0.2,1.6,0.5,2.4,0.8c0.8,0.3,1.5,0.6,2.3,0.9c0,0,0.1,0,0.1,0.1c0,0,0.1,0.1,0.1,0.1c0,0,0.1,0,0.1,0.1c0,0,0,0,0,0.1
		c0,0,0,0,0,0c0,0,0,0,0,0c0,0,0,0-0.1,0c0,0,0,0,0,0c-0.1,0-0.2,0-0.3-0.1c-0.4-0.2-0.7-0.3-1.1-0.5C47,7.2,46.6,7,46.2,6.9
		c-0.8-0.3-1.6-0.6-2.4-0.8c-1.6-0.5-3.2-0.9-4.8-1.2c0,0-0.1,0-0.1,0c0,0-0.1,0-0.1-0.1c0,0-0.1,0-0.1-0.1c0,0,0,0,0,0c0,0,0,0,0,0
		c0,0,0,0,0,0C38.7,4.6,38.8,4.6,38.9,4.6C38.8,4.6,38.9,4.6,38.9,4.6 M38.9,4.1c0,0-0.1,0-0.1,0c-0.1,0-0.2,0-0.3,0.1
		c-0.2,0.1-0.3,0.2-0.3,0.4c0,0.1,0,0.2,0,0.3c0,0.1,0.1,0.1,0.1,0.2c0.1,0,0.1,0.1,0.2,0.1c0.1,0,0.1,0.1,0.2,0.1
		c0.1,0,0.1,0,0.2,0c1.6,0.3,3.2,0.7,4.8,1.2c0.8,0.2,1.6,0.5,2.3,0.8c0.4,0.1,0.8,0.3,1.1,0.4c0.4,0.1,0.7,0.3,1.1,0.5
		c0.1,0,0.3,0.1,0.4,0.1c0,0,0.1,0,0.1,0c0.1,0,0.1,0,0.2,0c0.1,0,0.2-0.1,0.2-0.1c0.1-0.1,0.1-0.1,0.2-0.2c0-0.1,0.1-0.3,0-0.5
		c-0.1-0.1-0.1-0.2-0.2-0.2c-0.1,0-0.1-0.1-0.2-0.1c-0.1,0-0.1-0.1-0.2-0.1c-0.7-0.3-1.5-0.6-2.3-0.9c-0.8-0.3-1.6-0.6-2.4-0.8
		c-0.8-0.2-1.6-0.5-2.4-0.7c-0.4-0.1-0.8-0.2-1.3-0.3c-0.4-0.1-0.8-0.2-1.2-0.2C39.1,4.1,39,4.1,38.9,4.1L38.9,4.1z"/>
</g>
<g>
	<path fill="#FFFFFF" d="M14.3,8.7c-0.1,0-0.2-0.1-0.3-0.1c0,0-0.2-0.2,0.1-0.5c0.1-0.1,0.2-0.2,0.3-0.3c0.5-0.3,2-1,2.5-1.2
		c0.8-0.4,1.7-0.7,2.5-1C20.3,5.3,21.1,5,22,4.8c0.4-0.1,0.9-0.2,1.3-0.3l0.1,0c0.2,0,0.3-0.1,0.5-0.1c0.3,0,0.4,0.1,0.5,0.3
		c0,0.1,0,0.2-0.2,0.4c-0.1,0.1-0.3,0.1-0.4,0.2c-1.8,0.4-3.5,0.9-5.2,1.5c-0.8,0.3-1.7,0.7-2.5,1.1c-0.5,0.2-0.9,0.5-1.4,0.7
		C14.7,8.6,14.5,8.7,14.3,8.7z"/>
	<path fill="#010101" d="M24,4.6C24,4.6,24.1,4.6,24,4.6c0.2,0,0.3,0.1,0.2,0.2c-0.1,0.1-0.2,0.1-0.3,0.1c-1.8,0.4-3.5,0.8-5.2,1.5
		c-0.8,0.3-1.7,0.7-2.5,1.1c-0.5,0.2-0.9,0.5-1.4,0.7c-0.1,0-0.3,0.2-0.5,0.2c0,0-0.1,0-0.1,0c0,0,0-0.1,0.1-0.2
		c0.1-0.1,0.2-0.2,0.3-0.2C15,7.7,16.5,7,17,6.8c0.8-0.4,1.7-0.7,2.5-1c0.9-0.3,1.7-0.5,2.6-0.8c0.4-0.1,0.9-0.2,1.3-0.3
		C23.6,4.7,23.8,4.6,24,4.6 M24,4.2L24,4.2c-0.2,0-0.4,0-0.6,0.1l-0.1,0c-0.4,0.1-0.9,0.2-1.3,0.3c-0.9,0.2-1.8,0.5-2.6,0.8
		c-0.9,0.3-1.7,0.6-2.6,1c-0.5,0.2-2,0.9-2.5,1.3c-0.1,0.1-0.2,0.2-0.4,0.3c-0.3,0.3-0.2,0.6,0,0.8c0.1,0.1,0.3,0.2,0.4,0.2
		c0.2,0,0.4-0.1,0.7-0.3c0.5-0.3,0.9-0.5,1.4-0.7c0.8-0.4,1.6-0.7,2.4-1.1c1.6-0.6,3.3-1.1,5.1-1.5c0.1,0,0.3-0.1,0.5-0.2
		c0.3-0.2,0.3-0.4,0.3-0.6C24.6,4.3,24.4,4.2,24,4.2C24.1,4.2,24.1,4.2,24,4.2L24,4.2z"/>
</g>
<g>
	<path fill="#FFFFFF" d="M64.6,50.9c0,0-0.1,0-0.2,0c-0.3-0.2-0.1-0.6,0-0.8c0.2-0.5,0.4-1,0.5-1.5c0.3-0.9,0.5-1.7,0.7-2.6
		c0.4-1.8,0.8-3.5,1-5.3c0-0.1,0-0.3,0.1-0.4c0-0.1,0.1-0.2,0.3-0.2c0.1,0,0.2,0.1,0.2,0.1c0.2,0.2,0.1,0.5,0.1,0.8
		c-0.1,0.6-0.1,1.1-0.2,1.6c-0.1,0.9-0.3,1.8-0.5,2.7c-0.4,1.9-0.9,3.6-1.5,5.2c-0.1,0.1-0.1,0.3-0.2,0.4
		C64.8,50.8,64.7,50.9,64.6,50.9z"/>
	<path fill="#010101" d="M67,40.2C67,40.2,67,40.3,67,40.2c0.2,0.2,0.1,0.5,0.1,0.7c-0.1,0.5-0.1,1-0.2,1.5
		c-0.1,0.9-0.3,1.8-0.5,2.7c-0.4,1.8-0.9,3.5-1.5,5.2c0,0.1-0.1,0.2-0.2,0.3c0,0-0.1,0.1-0.1,0.1c0,0,0,0,0,0
		c-0.1-0.1,0.1-0.5,0.1-0.6c0.2-0.5,0.3-1,0.5-1.5c0.3-0.9,0.5-1.7,0.7-2.6c0.4-1.8,0.8-3.5,1-5.3C66.8,40.5,66.9,40.4,67,40.2
		C66.9,40.3,67,40.2,67,40.2 M67,39.8c-0.2,0-0.4,0.1-0.5,0.3c-0.1,0.2-0.1,0.4-0.2,0.5c-0.2,1.8-0.5,3.5-1,5.3
		c-0.2,0.9-0.5,1.7-0.7,2.6c-0.2,0.5-0.3,1-0.5,1.5c-0.1,0.3-0.3,0.9,0.1,1.1c0.1,0,0.2,0.1,0.3,0.1c0.1,0,0.3,0,0.5-0.3
		c0.1-0.2,0.2-0.3,0.2-0.4c0.6-1.6,1.1-3.3,1.5-5.3c0.2-0.9,0.4-1.8,0.5-2.7c0.1-0.5,0.2-1,0.2-1.6l0-0.1c0-0.3,0.1-0.7-0.2-1
		C67.3,39.8,67.1,39.8,67,39.8L67,39.8z"/>
</g>
<g>
	<path fill="#FFFFFF" d="M65.4,26.2c-0.1,0-0.2-0.1-0.2-0.1C65.1,26,65,25.9,65,25.8l-0.2-0.5c-0.1-0.3-0.2-0.5-0.3-0.8
		c-0.2-0.4-0.4-0.8-0.5-1.2c-0.4-0.8-0.8-1.6-1.3-2.4c-0.5-0.8-0.9-1.5-1.5-2.3c-0.3-0.4-0.5-0.7-0.8-1.1l-0.1-0.1
		c-0.1-0.1-0.2-0.3-0.3-0.4c0-0.1-0.1-0.1-0.1-0.3c0-0.1,0-0.2,0.1-0.2c0,0,0.1-0.1,0.2-0.1c0.1,0,0.1,0,0.2,0
		c0.2,0.1,0.3,0.2,0.3,0.3c1.1,1.5,2.1,2.9,3,4.5c0.4,0.8,0.8,1.6,1.2,2.4c0.2,0.5,0.4,1,0.6,1.5c0.1,0.3,0.2,0.6,0.1,0.8
		C65.6,26.2,65.5,26.2,65.4,26.2z"/>
	<path fill="#010101" d="M60.2,16.7C60.3,16.7,60.3,16.7,60.2,16.7c0.2,0.1,0.3,0.2,0.3,0.3c1.1,1.4,2.1,2.9,3,4.5
		c0.4,0.8,0.8,1.6,1.2,2.4c0.2,0.5,0.4,1,0.6,1.5c0,0.1,0.2,0.5,0.1,0.6c0,0,0,0,0,0c0,0-0.1,0-0.1,0c-0.1-0.1-0.1-0.2-0.2-0.3
		c-0.2-0.4-0.3-0.9-0.5-1.3c-0.2-0.4-0.4-0.8-0.5-1.2c-0.4-0.8-0.8-1.6-1.3-2.4c-0.5-0.8-0.9-1.5-1.5-2.3c-0.3-0.4-0.5-0.7-0.8-1.1
		c-0.1-0.2-0.3-0.3-0.4-0.5C60.2,16.9,60.2,16.8,60.2,16.7C60.2,16.7,60.2,16.7,60.2,16.7 M60.2,16.2c-0.1,0-0.3,0.1-0.4,0.2
		c-0.1,0.1-0.2,0.3-0.1,0.4c0,0.2,0.1,0.3,0.1,0.3c0.1,0.2,0.2,0.3,0.3,0.5c0,0,0.1,0.1,0.1,0.1c0.3,0.3,0.5,0.7,0.8,1
		c0.5,0.7,1,1.5,1.4,2.2c0.4,0.8,0.9,1.6,1.2,2.4c0.2,0.4,0.4,0.8,0.5,1.2c0.1,0.2,0.2,0.5,0.3,0.7c0.1,0.2,0.1,0.3,0.2,0.5
		c0.1,0.1,0.1,0.3,0.3,0.4c0.1,0.1,0.2,0.2,0.4,0.2c0.2,0,0.4-0.1,0.5-0.3c0.2-0.3,0-0.7-0.1-1l0-0.1c-0.2-0.5-0.4-1-0.6-1.5
		c-0.4-0.8-0.8-1.7-1.2-2.5c-0.9-1.6-1.9-3.1-3-4.6c-0.1-0.1-0.2-0.3-0.4-0.4C60.4,16.2,60.3,16.2,60.2,16.2L60.2,16.2z"/>
</g>
<linearGradient id="SVGID_2_" gradientUnits="userSpaceOnUse" x1="53.7391" y1="65.3284" x2="57.6427" y2="65.3284">
	<stop  offset="0.2995" style="stop-color:#000000"/>
	<stop  offset="0.3132" style="stop-color:#0A0A0A"/>
	<stop  offset="0.4626" style="stop-color:#717171"/>
	<stop  offset="0.5828" style="stop-color:#BEBEBE"/>
	<stop  offset="0.6678" style="stop-color:#EDEDED"/>
	<stop  offset="0.7101" style="stop-color:#FFFFFF"/>
</linearGradient>
<path fill="url(#SVGID_2_)" stroke="#010101" stroke-width="0.4734" stroke-linecap="round" stroke-linejoin="round" d="M53.7,65.3
	c1.3,0,2.6,0,3.9,0"/>
<linearGradient id="SVGID_3_" gradientUnits="userSpaceOnUse" x1="57.5322" y1="65.313" x2="57.627" y2="65.313">
	<stop  offset="0.2995" style="stop-color:#000000"/>
	<stop  offset="0.3132" style="stop-color:#0A0A0A"/>
	<stop  offset="0.4626" style="stop-color:#717171"/>
	<stop  offset="0.5828" style="stop-color:#BEBEBE"/>
	<stop  offset="0.6678" style="stop-color:#EDEDED"/>
	<stop  offset="0.7101" style="stop-color:#FFFFFF"/>
</linearGradient>
<path fill="url(#SVGID_3_)" stroke="#010101" stroke-width="0.4734" stroke-linecap="round" stroke-linejoin="round" d="M57.6,65.3
	C57.6,65.3,57.6,65.3,57.6,65.3"/>
<linearGradient id="SVGID_4_" gradientUnits="userSpaceOnUse" x1="57.3199" y1="65.3314" x2="57.4137" y2="65.3314">
	<stop  offset="0.2995" style="stop-color:#000000"/>
	<stop  offset="0.3132" style="stop-color:#0A0A0A"/>
	<stop  offset="0.4626" style="stop-color:#717171"/>
	<stop  offset="0.5828" style="stop-color:#BEBEBE"/>
	<stop  offset="0.6678" style="stop-color:#EDEDED"/>
	<stop  offset="0.7101" style="stop-color:#FFFFFF"/>
</linearGradient>
<path fill="url(#SVGID_4_)" stroke="#010101" stroke-width="0.4734" stroke-linecap="round" stroke-linejoin="round" d="M57.4,65.3
	C57.4,65.3,57.4,65.3,57.4,65.3"/>
<linearGradient id="SVGID_5_" gradientUnits="userSpaceOnUse" x1="52.5359" y1="65.3232" x2="57.5322" y2="65.3232">
	<stop  offset="0.2995" style="stop-color:#000000"/>
	<stop  offset="0.3132" style="stop-color:#0A0A0A"/>
	<stop  offset="0.4626" style="stop-color:#717171"/>
	<stop  offset="0.5828" style="stop-color:#BEBEBE"/>
	<stop  offset="0.6678" style="stop-color:#EDEDED"/>
	<stop  offset="0.7101" style="stop-color:#FFFFFF"/>
</linearGradient>
<path fill="url(#SVGID_5_)" stroke="#010101" stroke-width="0.4734" stroke-linecap="round" stroke-linejoin="round" d="M52.5,65.3
	c1.7,0,3.3,0,5,0"/>
<g>
	<path d="M39.6,67.8c-2.5,0-4.9,0-7.4,0c-3.5-0.1-8.6-0.2-12.3-0.7c-2.2-0.3-4.1-0.7-5.9-1.7c-1.8-1-3.4-2.5-4.5-4.2
		c-2.7-4.1-2.1-8.8-1.2-12c0.5-1.9,1.3-3.7,2.1-5.4l0.3-0.6c0.8-1.7,1.6-3.6,2.1-5.4c1.1-3.5,1.8-7.6-1.8-11.1
		c-0.5-0.5-1-0.9-1.5-1.3L9,25c-0.7-0.6-1.4-1.2-2.1-1.7c-1.7-1.4-3.6-2.7-5.6-4.1C1.2,19.1,1.1,19,1,18.9c-0.3-0.6,0.2-1.3,0.4-1.5
		c0.4-0.4,0.7-0.7,1.2-0.9c0,0,0.1,0,0.1,0c0,0,0.1,0,0.1,0c0.8,0.6,1.7,1.2,2.5,1.8c0.9,0.6,1.7,1.3,2.6,2c1.5,1.1,2.9,2.3,4,3.2
		l0.2,0.2c0.1,0.1,0.3,0.2,0.4,0.3c0.1,0.1,0.2,0.2,0.3,0.3c0.1,0.1,0.2,0.2,0.3,0.3c0.4,0.4,0.7,0.8,1.1,1.2
		c0.3,0.4,0.6,0.9,0.9,1.4c0.3,0.4,0.5,0.9,0.7,1.4c0.1,0.2,0.2,0.5,0.3,0.7c0.1,0.3,0.2,0.5,0.2,0.8c0.3,1.1,0.4,2.2,0.3,3.4
		c0,1.2-0.2,2.4-0.6,3.8c-0.3,1.1-0.7,2.3-1.2,3.7c-0.3,0.7-0.5,1.3-0.8,2c-0.3,0.6-0.5,1.2-0.8,1.9L12.6,46
		c-0.2,0.4-0.3,0.8-0.5,1.2c-0.2,0.6-0.5,1.3-0.8,2.1c-0.3,0.7-0.5,1.4-0.6,2.1c-0.1,0.7-0.3,1.3-0.3,2c-0.1,0.8-0.1,1.6,0,2.4
		c0.1,0.8,0.3,1.5,0.6,2.3c0.3,0.7,0.6,1.3,1,1.9c0.4,0.6,0.9,1.2,1.5,1.7c0.3,0.2,0.5,0.4,0.8,0.7c0.3,0.2,0.6,0.4,0.9,0.6
		c0.6,0.3,1.2,0.6,1.9,0.8c0.4,0.1,0.8,0.2,1.2,0.3c0.5,0.1,1,0.2,1.4,0.3c1.1,0.2,2.2,0.3,3.6,0.4c1.4,0.1,2.9,0.2,4.8,0.3
		c1.9,0.1,4,0.1,6.5,0.2c2.8,0,5.7,0.1,8.5,0.1c5,0,10,0,15,0c0.1,0,0.2,0.1,0.2,0.2c0,0.5-0.1,0.9-0.4,1.4
		c-0.1,0.2-0.6,0.9-1.3,0.9C51,67.8,45.3,67.8,39.6,67.8C39.6,67.8,39.6,67.8,39.6,67.8z"/>
	<path fill="#FFFFFF" d="M2.7,16.7c0.8,0.6,1.7,1.2,2.5,1.8c0.9,0.6,1.7,1.3,2.6,1.9c1.3,1,2.6,2.1,3.9,3.2c0.1,0.1,0.1,0.1,0.2,0.2
		c0.1,0.1,0.3,0.2,0.4,0.3c0.1,0.1,0.2,0.2,0.3,0.3c0.1,0.1,0.2,0.2,0.3,0.3c0.4,0.4,0.7,0.8,1,1.2c0.3,0.4,0.6,0.9,0.9,1.3
		c0.2,0.4,0.5,0.9,0.6,1.3c0.1,0.2,0.2,0.5,0.3,0.7c0.1,0.2,0.2,0.5,0.2,0.8c0.3,1.1,0.4,2.2,0.3,3.3c0,1.3-0.3,2.5-0.6,3.8
		c-0.3,1.3-0.7,2.5-1.2,3.7c-0.3,0.7-0.5,1.3-0.8,1.9c-0.4,1-0.9,2.1-1.4,3.1c-0.2,0.4-0.3,0.8-0.5,1.2c-0.3,0.7-0.6,1.4-0.8,2.1
		c-0.2,0.7-0.4,1.4-0.6,2.1c-0.1,0.7-0.3,1.3-0.3,2c-0.1,0.8-0.1,1.6,0,2.5c0.1,0.8,0.3,1.6,0.6,2.3c0.3,0.7,0.6,1.4,1.1,2
		c0.4,0.6,1,1.2,1.5,1.7c0.3,0.2,0.6,0.5,0.8,0.7c0.3,0.2,0.6,0.4,0.9,0.6c0.6,0.3,1.2,0.6,1.9,0.8c0.4,0.1,0.8,0.2,1.2,0.3
		c0.5,0.1,1,0.2,1.5,0.3c1.2,0.2,2.4,0.3,3.7,0.4c1.6,0.1,3.2,0.2,4.8,0.3c2.2,0.1,4.3,0.1,6.5,0.2c2.8,0,5.7,0.1,8.5,0.1
		c5,0,10,0,15,0c0,0.5-0.1,0.9-0.4,1.3c-0.2,0.3-0.6,0.8-1,0.8c-5.7,0.1-11.4,0.2-17.1,0.2c-2.5,0-4.9,0-7.4-0.1
		c-3.6-0.1-8.7-0.2-12.2-0.7c-2.1-0.3-4-0.7-5.9-1.7c-1.8-1-3.4-2.4-4.5-4.1c-2.3-3.6-2.3-7.9-1.2-11.8c0.6-2,1.4-3.8,2.2-5.7
		c0.8-1.9,1.6-3.7,2.3-5.7c1.3-4.1,1.6-8-1.9-11.4c-0.6-0.6-1.3-1.1-1.9-1.7c-0.7-0.6-1.4-1.2-2.2-1.7c-1.8-1.4-3.7-2.8-5.6-4.1
		c-0.1-0.1-0.2-0.1-0.2-0.3c-0.2-0.4,0.1-1,0.4-1.3C1.9,17.1,2.2,16.8,2.7,16.7 M2.7,16.2c-0.1,0-0.1,0-0.2,0
		c-0.5,0.2-1,0.5-1.4,0.9c-0.2,0.2-0.8,1-0.4,1.8c0.1,0.2,0.2,0.4,0.4,0.5c2,1.4,3.8,2.7,5.5,4.1c0.7,0.6,1.4,1.1,2.1,1.7l0.4,0.3
		c0.5,0.4,1,0.8,1.5,1.3c2.8,2.7,3.3,6,1.8,10.9c-0.6,1.8-1.4,3.6-2.1,5.4l-0.1,0.3l-0.1,0.3c-0.8,1.7-1.6,3.6-2.1,5.4
		C6.7,53.8,7.1,58,9.3,61.4c1.1,1.8,2.8,3.3,4.6,4.3c1.9,1,3.8,1.4,6,1.7c3.6,0.5,8.8,0.6,12.3,0.7c2.4,0,4.8,0.1,7.4,0.1
		c5.7,0,11.4-0.1,17.1-0.2c0.8,0,1.3-0.8,1.5-1c0.3-0.5,0.5-1,0.4-1.6c0-0.3-0.2-0.5-0.5-0.5c-5,0-10,0-15,0c-2.7,0-5.6,0-8.5-0.1
		c-2.5,0-4.6-0.1-6.5-0.2c-1.9-0.1-3.4-0.2-4.8-0.3c-1.4-0.1-2.6-0.2-3.6-0.4c-0.5-0.1-1-0.2-1.4-0.3c-0.4-0.1-0.8-0.2-1.1-0.3
		c-0.7-0.2-1.3-0.5-1.8-0.8c-0.3-0.2-0.6-0.3-0.9-0.5c-0.3-0.2-0.6-0.4-0.8-0.6c-0.6-0.5-1.1-1-1.5-1.6c-0.4-0.6-0.8-1.2-1-1.9
		c-0.3-0.7-0.4-1.4-0.5-2.2c-0.1-0.7-0.1-1.5,0-2.4c0.1-0.6,0.2-1.3,0.3-1.9c0.1-0.7,0.3-1.4,0.6-2.1c0.3-0.8,0.6-1.5,0.8-2.1
		c0.2-0.4,0.3-0.8,0.5-1.2c0.2-0.4,0.4-0.9,0.6-1.3c0.3-0.6,0.5-1.2,0.8-1.8c0.3-0.7,0.6-1.4,0.8-2c0.5-1.4,0.9-2.6,1.2-3.8
		c0.3-1.4,0.5-2.6,0.6-3.9c0-1.2-0.1-2.4-0.3-3.5c-0.1-0.3-0.1-0.5-0.2-0.8c-0.1-0.3-0.2-0.5-0.3-0.8c-0.2-0.5-0.4-1-0.7-1.4
		c-0.3-0.5-0.6-0.9-0.9-1.4c-0.3-0.4-0.7-0.8-1.1-1.2c-0.1-0.1-0.2-0.2-0.3-0.3c-0.1-0.1-0.2-0.2-0.3-0.3c-0.1-0.1-0.3-0.2-0.4-0.4
		l-0.2-0.2c-1.1-0.9-2.5-2.1-4-3.2c-0.9-0.7-1.8-1.3-2.6-2c-0.8-0.6-1.7-1.2-2.5-1.8C2.9,16.2,2.8,16.2,2.7,16.2L2.7,16.2z"/>
</g>
</svg>
