<?xml version="1.0" encoding="utf-8"?>
<!-- Generator: Adobe Illustrator 23.0.0, SVG Export Plug-In . SVG Version: 6.00 Build 0)  -->
<svg version="1.1" id="Calque_1" xmlns="http://www.w3.org/2000/svg" xmlns:xlink="http://www.w3.org/1999/xlink" x="0px" y="0px"
	 viewBox="0 0 70 70" enable-background="new 0 0 70 70" xml:space="preserve">
<g>
	<path fill="#010101" d="M35,18c5.5,0,11.5,1,16.6,3.3c1.3,0.6,2.5,1.3,3.7,2c1.1,0.7,2.4,1.7,3.3,2.6c2,2.1,3.1,4.8,3.4,7.6
		c0.4,2.9,0.1,5.6-0.5,8.5c-0.5,2.8-1.4,5.5-2,8.3c-0.6,2.8-1,5.6-1.1,8.4c0,1.4,0,2.7,0.2,4.1c0.1,0.7,0.2,1.5,0.4,2.2
		c0.1,0.4,0.2,0.7,0.4,1c0.1,0.2,0.2,0.3,0.3,0.5c0,0.1,0.3,0.4,0.3,0.5c-0.1,0.2-0.7,0.2-0.9,0.2c-0.5,0-1,0-1.5,0
		c-0.2,0-0.5,0-0.7,0c-1,0-2.1,0-3.1,0c-2.1,0-4.2,0-6.3,0c-4.2,0-8.3,0-12.5,0c-4.2,0-8.5,0-12.7,0c-2,0-4.1,0-6.1,0
		c-1,0-2,0-3.1,0c-0.1,0-0.3,0-0.4,0c-0.4,0-0.8,0-1.1,0c-0.4,0-0.7,0-1.1,0c-0.1,0-0.3,0-0.4-0.1c0,0,0,0,0,0
		c0-0.1,0.2-0.4,0.3-0.5c0.1-0.1,0.2-0.3,0.3-0.5c0.2-0.3,0.3-0.7,0.4-1c0.2-0.7,0.3-1.5,0.4-2.2c0.2-1.3,0.2-2.7,0.2-4.1
		c0-2.9-0.5-5.6-1.1-8.4c-0.6-2.8-1.4-5.5-2-8.3c-0.6-2.8-0.8-5.6-0.5-8.5c0.4-2.8,1.4-5.5,3.4-7.6c0.9-0.9,2.3-1.9,3.3-2.6
		c1.2-0.8,2.4-1.5,3.7-2C23.5,19,29.5,18,35,18 M35,17.5c-6.1,0-12,1.2-16.8,3.3c-1.4,0.6-2.6,1.3-3.8,2.1c-0.5,0.3-2.3,1.5-3.4,2.7
		c-1.9,2-3.1,4.7-3.5,7.9c-0.3,2.6-0.2,5.2,0.5,8.6c0.3,1.6,0.7,3.2,1.1,4.8c0.3,1.1,0.6,2.3,0.8,3.5c0.7,3.1,1,5.8,1.1,8.3
		c0,1.4,0,2.7-0.2,4c-0.1,0.7-0.2,1.4-0.3,2.1c-0.1,0.4-0.2,0.7-0.3,0.9c-0.1,0.1-0.2,0.3-0.3,0.4c-0.2,0.2-0.4,0.6-0.3,0.9
		c0,0.1,0.1,0.2,0.2,0.2c0.2,0.2,0.5,0.2,0.7,0.2c0.4,0,0.8,0,1.1,0.1c0.4,0,0.8,0,1.2,0l0.4,0c0.9,0,1.8,0,2.7,0l0.3,0
		c2,0,4.1,0,6.1,0c4.2,0,8.5,0,12.7,0c4.2,0,8.4,0,12.5,0c2.1,0,4.2,0,6.3,0l0.4,0c0.9,0,1.8,0,2.8,0l0.3,0l0.5,0c0.4,0,1,0,1.5,0
		c0.6,0,1.1-0.1,1.3-0.5c0.1-0.4-0.1-0.7-0.3-0.9c-0.1-0.2-0.2-0.3-0.3-0.4c-0.1-0.3-0.3-0.6-0.3-0.9c-0.2-0.7-0.3-1.4-0.3-2.1
		c-0.1-1.3-0.2-2.6-0.2-4c0-2.6,0.4-5.2,1.1-8.3c0.3-1.2,0.6-2.3,0.8-3.5c0.4-1.6,0.8-3.2,1.1-4.8c0.7-3.4,0.8-6,0.5-8.6
		c-0.4-3.2-1.6-5.9-3.5-7.9c-1.1-1.2-2.9-2.4-3.4-2.7c-1.2-0.8-2.4-1.5-3.8-2.1C47,18.7,41.1,17.5,35,17.5L35,17.5z"/>
</g>
<g>
	<path fill="#010101" d="M35,2.4c3.4,0,7,0.7,10.2,1.8c3.4,1.2,6.3,2.8,9.1,5c5.7,4.5,9.2,10.4,11.1,17.3c1.9,6.7,2,13.8,0.9,20.7
		C65.2,53.9,62.8,60.8,60,67c0-0.1-0.2-0.4-0.3-0.5c-0.1-0.1-0.2-0.3-0.3-0.5c-0.2-0.3-0.3-0.7-0.4-1c-0.2-0.7-0.3-1.5-0.4-2.2
		c-0.2-1.3-0.2-2.7-0.2-4.1c0-2.9,0.5-5.6,1.1-8.4c0.6-2.8,1.4-5.5,2-8.3c0.6-2.8,0.8-5.6,0.5-8.5c-0.4-2.8-1.4-5.5-3.4-7.6
		c-0.9-0.9-2.3-1.9-3.3-2.6c-1.2-0.8-2.4-1.5-3.7-2C46.5,19,40.5,18,35,18C35,12.8,35,7.6,35,2.4 M35,1.9c-0.1,0-0.2,0.1-0.3,0.1
		c-0.1,0.1-0.1,0.2-0.1,0.3V18c0,0.3,0.2,0.5,0.5,0.5c6,0,11.8,1.2,16.4,3.3c1.3,0.6,2.5,1.3,3.7,2c0.5,0.3,2.2,1.5,3.2,2.6
		c1.8,1.9,2.9,4.3,3.3,7.4c0.3,2.5,0.2,5-0.5,8.3c-0.3,1.6-0.7,3.2-1.1,4.8c-0.3,1.1-0.6,2.3-0.9,3.5c-0.7,3.2-1.1,5.9-1.1,8.5
		c0,1.4,0,2.8,0.2,4.1c0.1,0.8,0.2,1.5,0.4,2.3c0.1,0.4,0.2,0.8,0.4,1.2c0.1,0.2,0.2,0.3,0.3,0.5c0,0,0,0,0,0
		c0.1,0.1,0.1,0.1,0.1,0.2c0,0.2,0.1,0.3,0.3,0.4c0.1,0,0.1,0,0.2,0c0.2,0,0.4-0.1,0.4-0.3c3.2-6.9,5.4-13.8,6.4-19.9
		c1.2-7.2,0.8-14.4-0.9-20.9c-2-7.3-5.8-13.2-11.2-17.5c-2.8-2.2-5.8-3.9-9.2-5.1C42,2.6,38.4,1.9,35,1.9L35,1.9z"/>
</g>
<g>
	<path fill="#010101" d="M10.1,67.2c-0.1,0-0.2-0.1-0.2-0.2c-3.2-6.9-5.4-13.8-6.4-19.9C2.3,40,2.6,32.9,4.4,26.4
		c2-7.3,5.8-13.1,11.1-17.4c2.8-2.2,5.8-3.9,9.2-5c3.4-1.2,6.9-1.8,10.3-1.8c0.1,0,0.1,0,0.2,0.1c0,0,0.1,0.1,0.1,0.2V18
		c0,0.1-0.1,0.2-0.2,0.2c-6,0-11.8,1.2-16.5,3.3c-1.3,0.6-2.5,1.3-3.7,2c-0.5,0.3-2.2,1.5-3.3,2.6c-1.8,1.9-3,4.4-3.3,7.5
		C7.9,36.1,8,38.7,8.7,42c0.3,1.6,0.7,3.2,1.1,4.8c0.3,1.2,0.6,2.3,0.9,3.5c0.7,3.2,1.1,5.9,1.1,8.5c0,1.4,0,2.7-0.2,4.1
		c-0.1,0.8-0.2,1.5-0.4,2.2c-0.1,0.4-0.2,0.8-0.4,1.1c-0.1,0.2-0.2,0.3-0.3,0.5c-0.2,0.2-0.2,0.3-0.2,0.3
		C10.3,67.1,10.2,67.2,10.1,67.2C10.1,67.2,10.1,67.2,10.1,67.2z"/>
	<path fill="#010101" d="M35,2.4C35,2.4,35,2.4,35,2.4c0,5.2,0,10.4,0,15.6c-5.5,0-11.5,1-16.6,3.3c-1.3,0.6-2.5,1.3-3.7,2
		C13.7,24,12.3,25,11.4,26c-2,2.1-3.1,4.8-3.4,7.6c-0.4,2.9-0.1,5.6,0.5,8.5c0.5,2.8,1.4,5.5,2,8.3c0.6,2.8,1,5.6,1.1,8.4
		c0,1.4,0,2.7-0.2,4.1c-0.1,0.7-0.2,1.5-0.4,2.2c-0.1,0.4-0.2,0.7-0.4,1c-0.1,0.2-0.2,0.3-0.3,0.5c0,0.1-0.3,0.4-0.3,0.5
		c-2.8-6.1-5.3-13.1-6.4-19.8c-1.1-6.9-0.9-14,0.9-20.7C6.5,19.6,10,13.7,15.7,9.2c2.8-2.2,5.7-3.8,9.1-5C28,3.1,31.6,2.4,35,2.4
		 M35,1.9L35,1.9c-3.4,0-7,0.6-10.4,1.8c-3.4,1.2-6.4,2.8-9.2,5.1C9.9,13.1,6.2,19,4.1,26.3C2.4,32.8,2,40,3.2,47.2
		c1,6.1,3.2,13,6.4,19.9c0.1,0.2,0.3,0.3,0.4,0.3c0.1,0,0.1,0,0.2,0c0.2-0.1,0.3-0.2,0.3-0.4c0,0,0.1-0.1,0.1-0.2c0,0,0,0,0,0
		c0.1-0.2,0.2-0.4,0.3-0.5c0.2-0.3,0.3-0.7,0.4-1.2c0.2-0.8,0.3-1.5,0.4-2.3c0.2-1.3,0.2-2.7,0.2-4.1c0-2.6-0.4-5.3-1.1-8.5
		c-0.3-1.2-0.6-2.4-0.9-3.5c-0.4-1.6-0.8-3.2-1.1-4.8c-0.6-3.3-0.8-5.8-0.5-8.3c0.4-3,1.5-5.5,3.3-7.4c1.1-1.1,2.8-2.3,3.2-2.6
		c1.1-0.8,2.3-1.4,3.7-2c4.6-2.1,10.4-3.3,16.4-3.3c0.3,0,0.5-0.2,0.5-0.5V2.4C35.5,2.1,35.3,1.9,35,1.9L35,1.9z"/>
</g>
<g>
	<path fill="#FFFFFF" d="M24.9,8.7c-0.1,0-0.2,0-0.3-0.1c-0.1-0.1-0.1-0.3-0.1-0.4l0-3.2c0-0.1,0-0.2,0.1-0.3
		c0.1-0.1,0.3-0.2,0.4-0.2c0.1,0,0.3-0.1,0.4-0.1c0,0,0.1,0,0.2,0c0.1,0.1,0.1,0.2,0.1,0.3l0,3.2c0,0.3-0.2,0.5-0.5,0.7
		C25.1,8.7,25,8.7,24.9,8.7z"/>
	<path fill="#010101" d="M25.5,4.6C25.5,4.6,25.5,4.6,25.5,4.6C25.6,4.7,25.6,4.7,25.5,4.6c0.1,0.1,0.1,0.1,0.1,0.1
		c0,0.1,0,0.1,0,0.2c0,0.1,0,0.3,0,0.4c0,0.4,0,0.7,0,1.1c0,0.4,0,0.7,0,1.1c0,0.1,0,0.3,0,0.4c0,0.3-0.2,0.4-0.4,0.5
		c-0.1,0-0.2,0.1-0.2,0.1c0,0-0.1,0-0.1,0c-0.1,0,0-0.2,0-0.2c0-0.2,0-0.3,0-0.5c0-0.4,0-0.7,0-1.1c0-0.4,0-0.7,0-1.1
		c0-0.1,0-0.3,0-0.4c0-0.1,0-0.1,0-0.2c0-0.1,0-0.1,0.1-0.1c0.1-0.1,0.2-0.1,0.4-0.2C25.2,4.7,25.4,4.6,25.5,4.6 M25.5,4.2
		C25.5,4.2,25.5,4.2,25.5,4.2c-0.2,0-0.4,0.1-0.5,0.1c-0.1,0-0.3,0.1-0.5,0.2c-0.1,0.1-0.2,0.2-0.2,0.5v0.2v0.4v1.1v1.1v0.5
		c0,0.1,0,0.4,0.2,0.6C24.6,8.9,24.8,9,24.9,9h0c0.1,0,0.3,0,0.4-0.1C25.9,8.6,26,8.2,26,7.9l0-0.4l0-0.3l0-0.8L26,6l0-0.6l0-0.2
		l0-0.2l0-0.1V4.7c0,0,0,0,0,0c0,0,0,0,0,0c0-0.2-0.1-0.4-0.3-0.5C25.7,4.2,25.6,4.2,25.5,4.2L25.5,4.2z M26,4.8L26,4.8L26,4.8
		L26,4.8z"/>
</g>
<g>
	<path fill="#010101" d="M44.5,4.6C44.5,4.6,44.5,4.6,44.5,4.6c0.1,0,0.1,0,0.1,0c0.1,0,0.1,0,0.2,0.1c0.1,0,0.1,0.1,0.2,0.1
		c0,0,0.2,0.1,0.2,0.1c0,0.7,0,1.5,0,2.2c0,0.4,0,0.7,0,1.1c0,0.2,0,0.3-0.1,0.3c0,0,0,0-0.1,0c-0.2,0-0.5-0.2-0.6-0.3
		c-0.1-0.1,0-0.2,0-0.3c0-0.1,0-0.2,0-0.3c0-0.2,0-0.3,0-0.5c0-0.4,0-0.7,0-1.1c0-0.4,0-0.7,0-1.1C44.4,4.8,44.4,4.7,44.5,4.6
		C44.4,4.6,44.5,4.6,44.5,4.6 M44.5,4.2c-0.3,0-0.5,0.3-0.5,0.5l0,0.1v0.1l0,0.1l0,1l0,1.1l0,0.3l0,0.3v0.3c0,0.1,0,0.3,0.1,0.6
		C44.3,8.7,44.6,8.9,45,9c0,0,0.1,0,0.1,0c0.2,0,0.4-0.1,0.4-0.2c0.2-0.2,0.2-0.4,0.2-0.5l0-1.1V6.4V4.9c0-0.4-0.3-0.5-0.4-0.6
		c-0.1,0-0.2-0.1-0.3-0.1c-0.1,0-0.2-0.1-0.3-0.1C44.7,4.2,44.6,4.2,44.5,4.2C44.5,4.2,44.5,4.2,44.5,4.2L44.5,4.2z"/>
</g>
<path fill="none" stroke="#010101" stroke-width="0.4784" stroke-linecap="round" stroke-linejoin="round" d="M35,18.4
	C35,18.5,35,18.4,35,18.4c0-0.1,0-0.2,0-0.3c0-0.1,0-0.2,0-0.3c0-0.2,0-0.4,0-0.6c0-0.4,0-0.8,0-1.2"/>
<g>
	<g>
		<path d="M12.5,67.8c-0.5,0-0.9,0-1.4,0c-0.2,0-0.4,0-0.6,0c-0.4,0-0.8-0.1-1.1-0.5c-0.6-0.7-0.6-1.8-0.4-2.6
			c0-0.1,0.1-0.2,0.4-0.5l0.1-0.1c0.1-0.2,0.2-0.4,0.3-0.6c0.2-0.4,0.3-1.8,0.4-2.6c0.1-0.9,0.1-1.8,0.1-2.7c0-1.7-0.2-3.5-0.6-5.4
			c-0.3-1.8-0.8-3.6-1.2-5.4c-0.4-1.7-0.9-3.5-1.2-5.3c-0.8-4.2-0.8-7.8,0-11c0.5-1.9,1.2-3.6,2.2-5.1c1.1-1.7,2.4-2.8,3.9-3.9
			c0.7-0.5,1.4-1,2.1-1.4c0.7-0.5,1.5-0.9,2.4-1.3c1.6-0.7,3.3-1.4,5.1-1.9c1.9-0.5,3.9-1,6-1.2c2-0.3,4.1-0.4,6.2-0.4
			c1,0,2.1,0,3.1,0.1c1,0.1,2.1,0.2,3.1,0.3c2.1,0.3,4.1,0.7,6,1.2c1.8,0.5,3.5,1.2,5.1,1.9c0.8,0.4,1.5,0.8,2.3,1.2
			c0.7,0.4,1.5,0.9,2.2,1.5c1.5,1.1,2.8,2.2,3.9,3.9c1,1.5,1.7,3.1,2.2,5.1c0.8,3.2,0.8,6.8,0,11c-0.3,1.8-0.8,3.6-1.2,5.3
			c-0.4,1.8-0.9,3.6-1.2,5.4c-0.4,1.9-0.5,3.7-0.6,5.4c0,0.9,0,1.9,0.1,2.8c0.1,0.7,0.2,2.1,0.4,2.6c0.1,0.2,0.2,0.4,0.3,0.6
			l0.1,0.1c0.3,0.3,0.4,0.5,0.4,0.5c0.2,0.6,0.2,1.3,0,1.9c-0.3,0.7-0.7,1-1.5,1.1c-0.4,0-0.8,0-1.2,0c-0.3,0-0.6,0-0.9,0l-1.4,0
			l-7-0.1c-4.7,0-9.3-0.1-14-0.1s-9.3,0-14,0.1L12.5,67.8z M11.9,65c0.7,0,1.4,0,2.1,0l2.6,0c6.1,0,12.3,0,18.4,0
			c4.2,0,8.4,0,12.6,0l8.4,0c0.7,0,1.4,0,2.1,0c-0.3-1.1-0.5-2.8-0.5-3.8c-0.1-1.3-0.1-2.7,0-4.1c0.1-2.5,0.5-5.1,1.2-8.1
			c0.2-0.9,0.4-1.8,0.7-2.7c1.1-4.3,2.2-8.7,1.5-13.3c-0.4-2.9-1.6-5.3-3.4-7.1c-0.9-0.8-2.3-1.8-3.2-2.4c-1.1-0.7-2.3-1.3-3.6-1.9
			c-4.5-2-10.1-3.1-15.8-3.1c-5.7,0-11.3,1.1-15.8,3.1c-1.3,0.6-2.5,1.2-3.6,1.9c-0.9,0.6-2.3,1.6-3.2,2.4c-1.8,1.8-3,4.1-3.4,7.1
			c-0.7,4.6,0.5,9,1.5,13.3c0.2,0.9,0.5,1.8,0.7,2.7c0.7,3,1.1,5.6,1.2,8.1c0.1,1.4,0.1,2.8,0,4.1C12.4,62.2,12.2,63.9,11.9,65z"/>
	</g>
	<g>
		<path fill="#FFFFFF" d="M35,16.1C35,16.1,35,16.1,35,16.1c1,0,2.1,0,3.1,0.1c1,0.1,2,0.2,3.1,0.3c2,0.3,4,0.7,5.9,1.2
			c1.7,0.5,3.4,1.1,5.1,1.9c0.8,0.4,1.5,0.8,2.3,1.2c0.7,0.4,1.5,0.9,2.2,1.4c1.6,1.2,2.7,2.2,3.8,3.9c1,1.6,1.7,3.2,2.2,5
			c0.9,3.6,0.6,7.3,0,10.9c-0.7,3.6-1.8,7.1-2.5,10.7c-0.3,1.8-0.5,3.6-0.6,5.4c0,0.9,0,1.9,0.1,2.8c0,0.5,0.2,2.1,0.4,2.7
			c0.1,0.2,0.2,0.4,0.4,0.6c0.1,0.1,0.4,0.5,0.4,0.6c0.2,0.6,0.2,1.2,0,1.7c-0.2,0.6-0.6,0.9-1.3,1c-0.4,0-0.8,0-1.2,0
			c-0.3,0-0.6,0-0.9,0c-0.5,0-0.9,0-1.4,0c-2.3,0-4.7,0-7-0.1c-4.7,0-9.3-0.1-14-0.1c0,0,0,0-0.1,0c-4.6,0-9.3,0-13.9,0.1
			c-2.3,0-4.7,0-7,0.1c-0.5,0-1,0-1.5,0c-0.5,0-0.9,0-1.4,0c-0.2,0-0.4,0-0.6,0c-0.4,0-0.7-0.1-0.9-0.4c-0.5-0.6-0.6-1.6-0.3-2.3
			c0-0.1,0.4-0.5,0.4-0.6c0.1-0.2,0.3-0.4,0.4-0.6c0.2-0.5,0.4-2.2,0.4-2.7c0.1-0.9,0.1-1.8,0.1-2.7c0-1.8-0.3-3.6-0.6-5.4
			C9.3,49.1,8.1,45.6,7.5,42c-0.7-3.6-0.9-7.3,0-10.9c0.4-1.8,1.1-3.4,2.2-5c1.1-1.6,2.3-2.7,3.8-3.9c0.7-0.5,1.4-1,2.1-1.4
			c0.8-0.5,1.5-0.9,2.3-1.3c1.6-0.8,3.3-1.4,5-1.9c1.9-0.6,3.9-1,5.9-1.2C30.9,16.2,32.9,16.1,35,16.1 M14,65.3c0.9,0,1.7,0,2.6,0
			c6.1,0,12.2,0,18.3,0c0,0,0.1,0,0.1,0c6.2,0,12.4,0,18.5,0c0.8,0,1.6,0,2.5,0c0.8,0,1.6,0,2.4,0c-0.3-1-0.5-3-0.6-4
			c-0.1-1.4-0.1-2.7,0-4.1c0.1-2.7,0.6-5.4,1.2-8.1c1.2-5.1,3-10.5,2.2-16c-0.4-2.7-1.4-5.3-3.5-7.2c-0.9-0.8-2.2-1.8-3.2-2.4
			c-1.2-0.7-2.4-1.4-3.6-1.9C46,19.4,40.3,18.4,35,18.4c-5.3,0-11,0.9-15.9,3.1c-1.3,0.6-2.5,1.2-3.6,1.9c-1,0.6-2.3,1.6-3.2,2.4
			c-2,2-3.1,4.5-3.5,7.2c-0.8,5.6,1,10.9,2.2,16c0.6,2.7,1.1,5.3,1.2,8.1c0.1,1.4,0.1,2.7,0,4.1c-0.1,1-0.3,3-0.6,4
			C12.4,65.3,13.2,65.3,14,65.3 M35,15.6C35,15.6,35,15.6,35,15.6L35,15.6c-2.1,0-4.2,0.1-6.2,0.4c-2.1,0.3-4.1,0.7-6,1.3
			c-1.8,0.5-3.5,1.2-5.1,1.9c-0.8,0.4-1.6,0.8-2.4,1.3c-0.7,0.4-1.4,0.9-2.1,1.4c-1.5,1.1-2.8,2.2-4,4C8.1,27.4,7.4,29,7,31
			c-0.8,3.2-0.8,6.8,0,11.1c0.3,1.8,0.8,3.6,1.2,5.3c0.4,1.8,0.9,3.6,1.2,5.4c0.4,1.9,0.5,3.7,0.6,5.4c0,0.9,0,1.8-0.1,2.7
			c-0.1,0.8-0.2,2.2-0.4,2.6c-0.1,0.2-0.2,0.4-0.3,0.5L9.2,64c-0.3,0.3-0.4,0.5-0.4,0.6c-0.3,0.8-0.2,2,0.4,2.8
			c0.4,0.4,0.9,0.5,1.3,0.6c0.2,0,0.4,0,0.6,0c0.5,0,1,0,1.4,0c0.4,0,0.7,0,1.1,0l0.4,0c1.2,0,2.5,0,3.7,0c1.1,0,2.2,0,3.3,0
			c4.6,0,9.3-0.1,13.9-0.1H35c4.6,0,9.3,0,14,0.1c1.1,0,2.1,0,3.2,0c1.3,0,2.5,0,3.8,0c0.5,0,0.9,0,1.4,0c0.3,0,0.6,0,0.9,0
			c0.4,0,0.8,0,1.2-0.1c0.9-0.1,1.4-0.5,1.7-1.3c0.2-0.7,0.3-1.4,0-2.1c0-0.1-0.1-0.2-0.4-0.6l-0.1-0.1c-0.1-0.2-0.2-0.4-0.3-0.5
			c-0.1-0.3-0.3-1.5-0.4-2.5C60,60,59.9,59.1,60,58.2c0-1.7,0.2-3.4,0.6-5.4c0.3-1.8,0.8-3.6,1.2-5.4c0.4-1.7,0.9-3.5,1.2-5.3
			c0.8-4.3,0.8-7.9,0-11.1c-0.5-2-1.2-3.6-2.2-5.2c-1.2-1.7-2.4-2.8-4-4c-0.7-0.5-1.5-1-2.2-1.5c-0.7-0.4-1.5-0.8-2.3-1.2
			c-1.6-0.8-3.3-1.4-5.1-1.9c-1.9-0.5-3.9-1-6-1.2c-1-0.1-2.1-0.2-3.1-0.3C37.1,15.6,36,15.6,35,15.6L35,15.6z M12.2,64.8
			c0.2-1.1,0.4-2.7,0.5-3.5c0.1-1.4,0.1-2.7,0-4.1c-0.1-2.5-0.5-5.1-1.3-8.1c-0.2-0.9-0.4-1.8-0.7-2.7c-1.1-4.3-2.2-8.7-1.5-13.2
			c0.4-2.9,1.5-5.2,3.3-6.9c0.9-0.8,2.2-1.8,3.1-2.4c1.1-0.7,2.3-1.3,3.6-1.9c4.4-2,10-3,15.7-3c5.7,0,11.3,1.1,15.7,3
			c1.3,0.6,2.5,1.2,3.6,1.9c0.9,0.6,2.3,1.5,3.1,2.4c1.8,1.7,2.9,4,3.3,6.9c0.7,4.5-0.5,8.9-1.5,13.2c-0.2,0.9-0.5,1.8-0.7,2.7
			c-0.7,3-1.1,5.6-1.3,8.1c-0.1,1.4-0.1,2.8,0,4.1c0,0.2,0.2,2.1,0.5,3.5c-0.6,0-1.2,0-1.8,0l-1.5,0l-1,0l-6,0c-4.2,0-8.3,0-12.5,0
			h-0.1c-6.1,0-12.2,0-18.3,0l-1.1,0l-1.5,0C13.4,64.8,12.8,64.8,12.2,64.8L12.2,64.8z"/>
	</g>
</g>
</svg>
