<?xml version="1.0" encoding="utf-8"?>
<!-- Generator: Adobe Illustrator 23.0.0, SVG Export Plug-In . SVG Version: 6.00 Build 0)  -->
<svg version="1.1" id="Calque_1" xmlns="http://www.w3.org/2000/svg" xmlns:xlink="http://www.w3.org/1999/xlink" x="0px" y="0px"
	 viewBox="0 0 70 70" enable-background="new 0 0 70 70" xml:space="preserve">
<path d="M57,63.7c-14.8,0-29.6,0-44.3,0c0.1-0.5,0.2-1,0.3-1.5c15.3-0.8,15.3-3.1,17.6-14c1.8-8.4,3.5-16.7,5.3-25.1
	c0.3-1.2,0.7-2.6,0.7-5.1c0-3.8-5.2-3.7-12.7-3.2c0.1-0.5,0.2-1,0.3-1.5c7.3-1.1,12.2-1.7,20.8-7.1c3.9,0,7.7,0,11.6,0
	c-3.2,15.1-6.4,30.3-9.7,45.4C46.4,54.1,46,56,46,56.6c0,5.3,3.1,5,11.4,5.7C57.2,62.8,57.1,63.3,57,63.7z"/>
</svg>
