<?xml version="1.0" encoding="utf-8"?>
<!-- Generator: Adobe Illustrator 23.0.0, SVG Export Plug-In . SVG Version: 6.00 Build 0)  -->
<svg version="1.1" id="Calque_1" xmlns="http://www.w3.org/2000/svg" xmlns:xlink="http://www.w3.org/1999/xlink" x="0px" y="0px"
	 viewBox="0 0 70 70" enable-background="new 0 0 70 70" xml:space="preserve">
<path fill="#F3F3F3" stroke="#949494" stroke-width="0.25" stroke-miterlimit="10" d="M2,17.8c1.7,1.2,3.3,2.4,5,3.6
	c0.9,0.7,4,3.1,4.8,3.9c3.4,3.2,3.8,7,2.7,11.3c-0.5,2-1.3,3.9-2.1,5.8c-0.8,1.9-1.7,3.7-2.3,5.6c-1.3,3.8-1.8,8.1,0.4,11.9
	c1,1.8,2.6,3.2,4.3,4.2c1.8,1,3.9,1.4,5.9,1.7c3.6,0.5,8.7,0.6,12.3,0.7c7.2,0.1,17.4,0,24.6,0c3.7-4.7,6.7-9.5,8.7-15.1
	c1.9-5.3,3.1-11.5,2.7-17.2c-0.4-5.9-2.5-11.5-5.8-16.3C59.6,12.9,55.1,9,49.7,6.5c0,0,0,0,0,0c0,0,0,0,0,0
	c-8.1-3.7-17.4-5-26.2-3.4C19,4,14.9,5.5,11.2,8.1C7.5,10.7,4.4,14.1,2,17.8z"/>
<g>
	<path fill="#F3F3F3" d="M48.7,8c-0.1,0-0.2,0-0.3-0.1c-0.4-0.2-0.7-0.3-1.1-0.5c-0.4-0.2-0.8-0.3-1.1-0.4c-0.8-0.3-1.6-0.6-2.3-0.8
		C42.2,5.7,40.6,5.3,39,5c-0.1,0-0.1,0-0.2,0c-0.1,0-0.1,0-0.2-0.1c0,0-0.1,0-0.1-0.1l-0.1-0.1l0,0l0-0.1c0,0,0-0.1,0.1-0.1
		c0.1,0,0.1,0,0.1,0l0.1,0c0.1,0,0.2,0,0.2,0c0.4,0.1,0.8,0.2,1.2,0.2c0.4,0.1,0.8,0.2,1.2,0.3c0.8,0.2,1.6,0.4,2.4,0.7
		c0.8,0.2,1.6,0.5,2.4,0.8c0.8,0.3,1.5,0.6,2.3,0.9c0.1,0,0.1,0.1,0.2,0.1c0,0,0.1,0.1,0.1,0.1c0,0,0.1,0.1,0.1,0.1l0,0.1l0,0.1
		L48.9,8L48.7,8L48.7,8z"/>
	<path fill="#949494" d="M38.9,4.6c0.1,0,0.1,0,0.2,0c0.4,0.1,0.8,0.2,1.2,0.2c0.4,0.1,0.8,0.2,1.2,0.3c0.8,0.2,1.6,0.4,2.4,0.7
		c0.8,0.2,1.6,0.5,2.4,0.8c0.8,0.3,1.5,0.6,2.3,0.9c0,0,0.1,0,0.1,0.1c0,0,0.1,0.1,0.1,0.1c0,0,0.1,0,0.1,0.1c0,0,0,0,0,0.1
		c0,0,0,0,0,0c0,0,0,0,0,0c0,0,0,0-0.1,0c0,0,0,0,0,0c-0.1,0-0.2,0-0.3-0.1c-0.4-0.2-0.7-0.3-1.1-0.5C47,7.2,46.6,7,46.2,6.9
		c-0.8-0.3-1.6-0.6-2.4-0.8c-1.6-0.5-3.2-0.9-4.8-1.2c0,0-0.1,0-0.1,0c0,0-0.1,0-0.1-0.1c0,0-0.1,0-0.1-0.1c0,0,0,0,0,0c0,0,0,0,0,0
		c0,0,0,0,0,0C38.7,4.6,38.8,4.6,38.9,4.6C38.8,4.6,38.9,4.6,38.9,4.6 M38.9,4.4c0,0-0.1,0-0.1,0c-0.1,0-0.1,0-0.2,0.1
		c-0.1,0.1-0.2,0.2-0.2,0.2l0,0.1l0,0.1c0,0.1,0.1,0.1,0.1,0.1c0,0,0.1,0.1,0.1,0.1c0.1,0,0.1,0.1,0.2,0.1c0.1,0,0.1,0,0.2,0
		c1.6,0.3,3.2,0.7,4.8,1.2c0.8,0.2,1.6,0.5,2.3,0.8c0.4,0.1,0.8,0.3,1.1,0.4C47.6,7.7,48,7.9,48.3,8c0.1,0,0.2,0.1,0.4,0.1
		c0,0,0.1,0,0.1,0c0,0,0.1,0,0.1,0l0.1,0l0.1,0c0,0,0.1-0.1,0.1-0.1c0,0,0-0.2,0-0.3c0-0.1-0.1-0.1-0.1-0.2c0,0-0.1-0.1-0.1-0.1
		c-0.1,0-0.1-0.1-0.2-0.1c-0.7-0.3-1.5-0.6-2.3-0.9c-0.8-0.3-1.6-0.6-2.4-0.8c-0.8-0.2-1.6-0.5-2.4-0.7c-0.4-0.1-0.8-0.2-1.2-0.3
		c-0.4-0.1-0.8-0.2-1.2-0.2C39.1,4.4,39,4.4,38.9,4.4L38.9,4.4z"/>
</g>
<g>
	<path fill="#F3F3F3" d="M14.3,8.6l-0.1-0.1c0,0-0.1-0.2,0.1-0.3c0.1-0.1,0.2-0.2,0.3-0.2c0.5-0.3,1.9-1,2.4-1.2
		c0.8-0.4,1.7-0.7,2.5-1c0.8-0.3,1.7-0.5,2.6-0.8c0.4-0.1,0.9-0.2,1.3-0.3l0.1,0c0.2,0,0.3-0.1,0.5-0.1c0.2,0,0.3,0.1,0.4,0.2
		c0,0.1,0,0.1-0.1,0.2C24.1,5,24,5,23.9,5c-1.8,0.4-3.5,0.9-5.2,1.5c-0.8,0.3-1.7,0.7-2.5,1.1c-0.5,0.2-0.9,0.5-1.4,0.7
		C14.7,8.5,14.5,8.6,14.3,8.6L14.3,8.6z"/>
	<path fill="#949494" d="M24,4.6C24,4.6,24.1,4.6,24,4.6c0.2,0,0.3,0.1,0.2,0.2c-0.1,0.1-0.2,0.1-0.3,0.1c-1.8,0.4-3.5,0.8-5.2,1.5
		c-0.8,0.3-1.7,0.7-2.5,1.1c-0.5,0.2-0.9,0.5-1.4,0.7c-0.1,0-0.3,0.2-0.5,0.2c0,0-0.1,0-0.1,0c0,0,0-0.1,0.1-0.2
		c0.1-0.1,0.2-0.2,0.3-0.2C15,7.7,16.5,7,17,6.8c0.8-0.4,1.7-0.7,2.5-1c0.9-0.3,1.7-0.5,2.6-0.8c0.4-0.1,0.9-0.2,1.3-0.3
		C23.6,4.7,23.8,4.6,24,4.6 M24,4.4c-0.2,0-0.4,0-0.5,0.1l-0.1,0c-0.4,0.1-0.9,0.2-1.3,0.3c-0.9,0.2-1.8,0.5-2.6,0.8
		c-0.9,0.3-1.7,0.6-2.5,1c-0.5,0.2-2,0.9-2.5,1.2c-0.1,0.1-0.2,0.2-0.3,0.3c-0.2,0.3-0.1,0.4-0.1,0.5c0.1,0.1,0.2,0.1,0.3,0.1
		c0.2,0,0.4-0.1,0.6-0.2c0.5-0.3,0.9-0.5,1.4-0.7c0.8-0.4,1.6-0.8,2.5-1.1c1.6-0.6,3.3-1.1,5.2-1.5c0.1,0,0.3-0.1,0.4-0.2
		c0.2-0.1,0.2-0.3,0.2-0.4C24.5,4.5,24.3,4.4,24,4.4L24,4.4L24,4.4z"/>
</g>
<g>
	<path fill="#F3F3F3" d="M64.5,50.8L64.5,50.8c-0.2-0.1-0.1-0.4,0-0.7c0.2-0.5,0.4-1,0.5-1.5c0.3-0.9,0.5-1.7,0.7-2.6
		c0.4-1.8,0.8-3.6,1-5.3c0-0.1,0-0.2,0.1-0.4c0-0.1,0.1-0.1,0.2-0.1h0.1l0.1,0.1c0.1,0.1,0.1,0.4,0.1,0.7c-0.1,0.6-0.1,1.1-0.2,1.6
		c-0.1,0.9-0.3,1.8-0.5,2.7c-0.4,1.9-0.9,3.6-1.5,5.2c0,0.1-0.1,0.2-0.2,0.3C64.7,50.8,64.6,50.8,64.5,50.8L64.5,50.8z"/>
	<path fill="#949494" d="M67,40.2C67,40.2,67,40.3,67,40.2c0.2,0.2,0.1,0.5,0.1,0.7c-0.1,0.5-0.1,1-0.2,1.5
		c-0.1,0.9-0.3,1.8-0.5,2.7c-0.4,1.8-0.9,3.5-1.5,5.2c0,0.1-0.1,0.2-0.2,0.3c0,0-0.1,0.1-0.1,0.1c0,0,0,0,0,0
		c-0.1-0.1,0.1-0.5,0.1-0.6c0.2-0.5,0.3-1,0.5-1.5c0.3-0.9,0.5-1.7,0.7-2.6c0.4-1.8,0.8-3.5,1-5.3C66.8,40.5,66.9,40.4,67,40.2
		C66.9,40.3,67,40.2,67,40.2 M67,40c-0.2,0-0.3,0.1-0.3,0.2c-0.1,0.2-0.1,0.3-0.1,0.4c-0.2,1.8-0.5,3.5-1,5.3
		c-0.2,0.9-0.5,1.7-0.7,2.6c-0.2,0.5-0.3,1-0.5,1.5c-0.1,0.3-0.3,0.7,0,0.9l0.1,0l0.1,0c0.1,0,0.2-0.1,0.3-0.2
		c0.1-0.1,0.1-0.2,0.2-0.4c0.6-1.6,1.1-3.3,1.5-5.2c0.2-0.9,0.4-1.8,0.5-2.7c0.1-0.5,0.2-1,0.2-1.5l0-0.1c0-0.3,0.1-0.6-0.1-0.8
		C67.1,40,67.1,40,67,40L67,40z"/>
</g>
<g>
	<path fill="#F3F3F3" d="M65.4,26.1L65.3,26c-0.1-0.1-0.2-0.2-0.2-0.3l-0.2-0.5c-0.1-0.2-0.2-0.5-0.3-0.7c-0.2-0.4-0.4-0.8-0.5-1.2
		c-0.4-0.8-0.8-1.6-1.3-2.4c-0.5-0.8-0.9-1.5-1.5-2.3c-0.3-0.4-0.5-0.7-0.8-1.1l-0.1-0.1c-0.1-0.1-0.2-0.3-0.3-0.4
		c0-0.1-0.1-0.1-0.1-0.2l0-0.1l0.1-0.1l0,0l0.1,0c0,0,0.1,0,0.1,0c0.1,0.1,0.2,0.2,0.3,0.3c1.1,1.4,2.1,2.9,3,4.5
		c0.4,0.8,0.8,1.6,1.2,2.4c0.2,0.5,0.4,1,0.6,1.5c0.1,0.3,0.2,0.5,0.1,0.7l0,0.1L65.4,26.1L65.4,26.1z"/>
	<path fill="#949494" d="M60.2,16.7C60.3,16.7,60.3,16.7,60.2,16.7c0.2,0.1,0.3,0.2,0.3,0.3c1.1,1.4,2.1,2.9,3,4.5
		c0.4,0.8,0.8,1.6,1.2,2.4c0.2,0.5,0.4,1,0.6,1.5c0,0.1,0.2,0.5,0.1,0.6c0,0,0,0,0,0c0,0-0.1,0-0.1,0c-0.1-0.1-0.1-0.2-0.2-0.3
		c-0.2-0.4-0.3-0.9-0.5-1.3c-0.2-0.4-0.4-0.8-0.5-1.2c-0.4-0.8-0.8-1.6-1.3-2.4c-0.5-0.8-0.9-1.5-1.5-2.3c-0.3-0.4-0.5-0.7-0.8-1.1
		c-0.1-0.2-0.3-0.3-0.4-0.5C60.2,16.9,60.2,16.8,60.2,16.7C60.2,16.7,60.2,16.7,60.2,16.7 M60.2,16.4h-0.1L60,16.5
		c-0.1,0.1-0.1,0.2-0.1,0.2c0,0.1,0.1,0.2,0.1,0.3c0.1,0.2,0.2,0.3,0.3,0.4c0,0,0.1,0.1,0.1,0.1c0.3,0.3,0.5,0.7,0.8,1.1
		c0.5,0.7,1,1.5,1.5,2.3c0.5,0.8,0.9,1.6,1.3,2.4c0.2,0.4,0.4,0.8,0.5,1.2c0.1,0.2,0.2,0.5,0.3,0.8c0.1,0.2,0.1,0.3,0.2,0.5
		c0,0.1,0.1,0.2,0.2,0.4c0,0,0.1,0.1,0.2,0.1c0.1,0,0.2-0.1,0.3-0.2c0.1-0.2,0-0.6-0.1-0.8l0-0.1c-0.2-0.5-0.4-1-0.6-1.5
		c-0.4-0.8-0.8-1.6-1.2-2.4c-0.9-1.6-1.9-3.1-3-4.5c-0.1-0.1-0.2-0.2-0.3-0.3C60.4,16.4,60.3,16.4,60.2,16.4L60.2,16.4z"/>
</g>
<path fill="#F3F3F3" stroke="#949494" stroke-width="0.25" stroke-miterlimit="10" d="M1.4,19c1.9,1.3,3.8,2.7,5.6,4.1
	c0.7,0.6,1.4,1.2,2.2,1.7c0.7,0.5,1.3,1.1,1.9,1.7c3.5,3.3,3.2,7.3,1.9,11.4c-0.6,2-1.4,3.8-2.3,5.7c-0.8,1.9-1.7,3.7-2.2,5.7
	c-1.1,3.9-1.2,8.2,1.2,11.8c1.1,1.7,2.7,3.2,4.5,4.1c1.9,1,3.8,1.4,5.9,1.7c3.6,0.5,8.6,0.6,12.2,0.7c8.2,0.1,16.3,0,24.5-0.1
	c0.5,0,0.8-0.5,1-0.8c0.2-0.4,0.4-0.8,0.4-1.3c-5,0-10,0-15,0c-2.8,0-5.7,0-8.5-0.1c-2.2,0-4.3-0.1-6.5-0.2
	c-1.6-0.1-3.2-0.1-4.8-0.3c-1.2-0.1-2.4-0.2-3.7-0.4c-0.5-0.1-1-0.2-1.5-0.3c-0.4-0.1-0.8-0.2-1.2-0.3c-0.7-0.2-1.3-0.5-1.9-0.8
	c-0.3-0.2-0.6-0.4-0.9-0.6c-0.3-0.2-0.6-0.4-0.8-0.7c-0.6-0.5-1.1-1.1-1.5-1.7c-0.4-0.6-0.8-1.3-1.1-2c-0.3-0.7-0.5-1.5-0.6-2.3
	c-0.1-0.8-0.1-1.6,0-2.5c0.1-0.7,0.2-1.3,0.3-2c0.2-0.7,0.4-1.4,0.6-2.1c0.2-0.7,0.5-1.4,0.8-2.1c0.2-0.4,0.3-0.8,0.5-1.2
	c0.5-1,0.9-2.1,1.4-3.1c0.3-0.6,0.5-1.3,0.8-1.9c0.5-1.2,0.9-2.4,1.2-3.7c0.3-1.2,0.5-2.5,0.6-3.8c0-1.1-0.1-2.2-0.3-3.3
	c-0.1-0.3-0.1-0.5-0.2-0.8c-0.1-0.2-0.2-0.5-0.3-0.7c-0.2-0.5-0.4-0.9-0.6-1.3c-0.3-0.5-0.6-0.9-0.9-1.3c-0.3-0.4-0.7-0.8-1-1.2
	c-0.1-0.1-0.2-0.2-0.3-0.3c-0.1-0.1-0.2-0.2-0.3-0.3c-0.1-0.1-0.3-0.2-0.4-0.3c-0.1-0.1-0.1-0.1-0.2-0.2c-1.3-1.1-2.6-2.1-3.9-3.2
	c-0.9-0.7-1.7-1.3-2.6-1.9c-0.8-0.6-1.7-1.2-2.5-1.8c-0.5,0.2-0.8,0.4-1.1,0.8c-0.2,0.3-0.6,0.9-0.4,1.3C1.3,18.9,1.3,19,1.4,19z"/>
<circle fill="#010101" cx="19.2" cy="54.9" r="2.9"/>
<circle fill="#010101" cx="27.9" cy="47.9" r="2.9"/>
</svg>
